<svg width="15" height="15" viewBox="0 0 15 15" fill="none" xmlns="http://www.w3.org/2000/svg">
<path d="M4.16667 0C1.86917 0 0 1.86917 0 4.16667V10.8333C0 13.1308 1.86917 15 4.16667 15H10.8333C13.1308 15 15 13.1308 15 10.8333V4.16667C15 1.86917 13.1308 0 10.8333 0H4.16667ZM4.16667 1.66667H10.8333C12.2117 1.66667 13.3333 2.78833 13.3333 4.16667V10.8333C13.3333 12.2117 12.2117 13.3333 10.8333 13.3333H4.16667C2.78833 13.3333 1.66667 12.2117 1.66667 10.8333V4.16667C1.66667 2.78833 2.78833 1.66667 4.16667 1.66667ZM11.6667 2.5C11.4457 2.5 11.2337 2.5878 11.0774 2.74408C10.9211 2.90036 10.8333 3.11232 10.8333 3.33333C10.8333 3.55435 10.9211 3.76631 11.0774 3.92259C11.2337 4.07887 11.4457 4.16667 11.6667 4.16667C11.8877 4.16667 12.0996 4.07887 12.2559 3.92259C12.4122 3.76631 12.5 3.55435 12.5 3.33333C12.5 3.11232 12.4122 2.90036 12.2559 2.74408C12.0996 2.5878 11.8877 2.5 11.6667 2.5ZM7.5 3.33333C5.2025 3.33333 3.33333 5.2025 3.33333 7.5C3.33333 9.7975 5.2025 11.6667 7.5 11.6667C9.7975 11.6667 11.6667 9.7975 11.6667 7.5C11.6667 5.2025 9.7975 3.33333 7.5 3.33333ZM7.5 5C8.87833 5 10 6.12167 10 7.5C10 8.87833 8.87833 10 7.5 10C6.12167 10 5 8.87833 5 7.5C5 6.12167 6.12167 5 7.5 5Z" fill="white"/>
</svg>
