<svg width="374" height="62" viewBox="0 0 374 62" fill="none" xmlns="http://www.w3.org/2000/svg">
<path d="M4.32 21.4L29.84 45.72L30.32 50.56L4.8 26.28L4.32 21.4ZM4.52 47.16V50H1.2V49.6C1.2 49.6 1.32 49.6 1.56 49.6C1.8 49.6 1.93333 49.6 1.96 49.6C2.62667 49.6 3.2 49.36 3.68 48.88C4.16 48.4 4.4 47.8267 4.4 47.16H4.52ZM10.12 47.16C10.12 47.8267 10.36 48.4 10.84 48.88C11.32 49.36 11.8933 49.6 12.56 49.6C12.5867 49.6 12.72 49.6 12.96 49.6C13.2 49.6 13.32 49.6 13.32 49.6V50H10V47.16H10.12ZM4.32 21.4L10.08 27.52L10.12 50H4.4V26.4C4.4 24.9067 4.32 23.7067 4.16 22.8C4 21.8667 3.92 21.4 3.92 21.4H4.32ZM30.2 22V45.44C30.2 46.4267 30.24 47.32 30.32 48.12C30.4 48.8933 30.48 49.4933 30.56 49.92C30.64 50.3467 30.68 50.56 30.68 50.56H30.32L24.52 44.08V22H30.2ZM33.4 22V22.4C33.4 22.4 33.28 22.4 33.04 22.4C32.8 22.4 32.68 22.4 32.68 22.4C32.0133 22.4 31.44 22.64 30.96 23.12C30.48 23.5733 30.2267 24.1467 30.2 24.84H30.08V22H33.4ZM21.28 22H24.6V24.84H24.52C24.4933 24.1467 24.24 23.5733 23.76 23.12C23.3067 22.64 22.7333 22.4 22.04 22.4C22.04 22.4 21.92 22.4 21.68 22.4C21.44 22.4 21.3067 22.4 21.28 22.4V22ZM46.6663 24.92L58.5063 49.8H51.7463L44.3063 32.24L46.6663 24.92ZM39.1463 47.36C38.8529 48.08 38.8929 48.64 39.2663 49.04C39.6396 49.4133 40.0529 49.6 40.5063 49.6H40.8263V50H32.8262V49.6C32.8262 49.6 32.8796 49.6 32.9862 49.6C33.0929 49.6 33.1462 49.6 33.1462 49.6C33.6796 49.6 34.2396 49.44 34.8263 49.12C35.4129 48.7733 35.8929 48.1867 36.2663 47.36H39.1463ZM46.6663 24.92L46.7463 29.72L38.0663 49.88H35.1063L44.4662 29.76C44.5196 29.6 44.6396 29.32 44.8263 28.92C45.0129 28.4933 45.2129 28.0267 45.4263 27.52C45.6396 26.9867 45.8396 26.4933 46.0263 26.04C46.2129 25.56 46.3196 25.1867 46.3463 24.92H46.6663ZM50.1463 42.16V43.72H39.9463V42.16H50.1463ZM50.7463 47.36H57.3463C57.7463 48.1867 58.2396 48.7733 58.8263 49.12C59.4129 49.44 59.9729 49.6 60.5063 49.6C60.5063 49.6 60.5596 49.6 60.6663 49.6C60.7729 49.6 60.8263 49.6 60.8263 49.6V50H49.0663V49.6H49.3863C49.8396 49.6 50.2529 49.4133 50.6263 49.04C50.9996 48.64 51.0396 48.08 50.7463 47.36ZM72.1847 26.12V50H66.3847V26.12H72.1847ZM80.9047 25.96V27.56H57.7047V25.96H80.9047ZM80.9047 27.44V31.68H80.4647V31.32C80.4914 30.1733 80.1714 29.2667 79.5047 28.6C78.8647 27.9333 77.9714 27.5867 76.8247 27.56V27.44H80.9047ZM80.9047 25.36V26.36L76.6647 25.96C77.1714 25.96 77.718 25.9333 78.3047 25.88C78.8914 25.8 79.4247 25.72 79.9047 25.64C80.3847 25.5333 80.718 25.44 80.9047 25.36ZM66.4647 47.48V50H63.7847V49.6C63.7847 49.6 63.8514 49.6 63.9847 49.6C64.1447 49.6 64.2247 49.6 64.2247 49.6C64.8114 49.6 65.3047 49.4 65.7047 49C66.1314 48.5733 66.358 48.0667 66.3847 47.48H66.4647ZM72.0647 47.48H72.1847C72.1847 48.0667 72.398 48.5733 72.8247 49C73.2514 49.4 73.7714 49.6 74.3847 49.6C74.3847 49.6 74.4514 49.6 74.5847 49.6C74.7447 49.6 74.8247 49.6 74.8247 49.6V50H72.0647V47.48ZM61.7847 27.44V27.56C60.6114 27.5867 59.7047 27.9333 59.0647 28.6C58.4514 29.2667 58.1447 30.1733 58.1447 31.32V31.68H57.7047V27.44H61.7847ZM57.7047 25.36C57.9447 25.4133 58.2914 25.4933 58.7447 25.6C59.2247 25.7067 59.7447 25.8 60.3047 25.88C60.8914 25.9333 61.4247 25.96 61.9047 25.96L57.7047 26.36V25.36ZM107.642 26V50H101.922V26H107.642ZM91.3616 26V50H85.6016V26H91.3616ZM102.242 37.24V38.84H91.0016V37.24H102.242ZM85.7216 47.48V50H82.9616V49.6C82.9616 49.6 83.0282 49.6 83.1616 49.6C83.3216 49.6 83.4149 49.6 83.4416 49.6C84.0282 49.6 84.5349 49.4 84.9616 49C85.3882 48.5733 85.6016 48.0667 85.6016 47.48H85.7216ZM91.2816 47.48H91.3616C91.3882 48.0667 91.6149 48.5733 92.0416 49C92.4682 49.4 92.9749 49.6 93.5616 49.6C93.5616 49.6 93.6282 49.6 93.7616 49.6C93.9216 49.6 94.0016 49.6 94.0016 49.6V50H91.2816V47.48ZM91.2816 28.52V26H94.0016V26.4C94.0016 26.4 93.9216 26.4 93.7616 26.4C93.6282 26.4 93.5616 26.4 93.5616 26.4C92.9749 26.4 92.4682 26.6 92.0416 27C91.6149 27.4 91.3882 27.9067 91.3616 28.52H91.2816ZM85.7216 28.52H85.6016C85.6016 27.9067 85.3882 27.4 84.9616 27C84.5349 26.6 84.0282 26.4 83.4416 26.4C83.4149 26.4 83.3216 26.4 83.1616 26.4C83.0282 26.4 82.9616 26.4 82.9616 26.4V26H85.7216V28.52ZM102.002 47.48V50H99.2816V49.6C99.2816 49.6 99.3482 49.6 99.4816 49.6C99.6416 49.6 99.7216 49.6 99.7216 49.6C100.308 49.6 100.815 49.4 101.242 49C101.668 48.5733 101.882 48.0667 101.882 47.48H102.002ZM107.522 47.48H107.642C107.668 48.0667 107.882 48.5733 108.282 49C108.708 49.4 109.228 49.6 109.842 49.6C109.842 49.6 109.908 49.6 110.042 49.6C110.202 49.6 110.282 49.6 110.282 49.6V50H107.522V47.48ZM107.562 28.52V26H110.322V26.4C110.322 26.4 110.242 26.4 110.082 26.4C109.922 26.4 109.842 26.4 109.842 26.4C109.228 26.4 108.708 26.6 108.282 27C107.882 27.4 107.682 27.9067 107.682 28.52H107.562ZM102.002 28.52H101.882C101.882 27.9067 101.668 27.4 101.242 27C100.815 26.6 100.308 26.4 99.7216 26.4C99.7216 26.4 99.6416 26.4 99.4816 26.4C99.3482 26.4 99.2816 26.4 99.2816 26.4V26H102.002V28.52ZM124.401 24.92L136.241 49.8H129.481L122.041 32.24L124.401 24.92ZM116.881 47.36C116.587 48.08 116.627 48.64 117.001 49.04C117.374 49.4133 117.787 49.6 118.241 49.6H118.561V50H110.561V49.6C110.561 49.6 110.614 49.6 110.721 49.6C110.827 49.6 110.881 49.6 110.881 49.6C111.414 49.6 111.974 49.44 112.561 49.12C113.147 48.7733 113.627 48.1867 114.001 47.36H116.881ZM124.401 24.92L124.481 29.72L115.801 49.88H112.841L122.201 29.76C122.254 29.6 122.374 29.32 122.561 28.92C122.747 28.4933 122.947 28.0267 123.161 27.52C123.374 26.9867 123.574 26.4933 123.761 26.04C123.947 25.56 124.054 25.1867 124.081 24.92H124.401ZM127.881 42.16V43.72H117.681V42.16H127.881ZM128.481 47.36H135.081C135.481 48.1867 135.974 48.7733 136.561 49.12C137.147 49.44 137.707 49.6 138.241 49.6C138.241 49.6 138.294 49.6 138.401 49.6C138.507 49.6 138.561 49.6 138.561 49.6V50H126.801V49.6H127.121C127.574 49.6 127.987 49.4133 128.361 49.04C128.734 48.64 128.774 48.08 128.481 47.36ZM123.561 23.24C124.014 22.4667 124.574 21.6667 125.241 20.84C125.907 20.0133 126.601 19.24 127.321 18.52C128.067 17.8 128.721 17.1733 129.281 16.64C130.001 17.04 130.574 17.5067 131.001 18.04C131.427 18.5733 131.774 19.2 132.041 19.92C131.241 20.4267 130.361 20.92 129.401 21.4C128.467 21.8533 127.521 22.2667 126.561 22.64C125.627 23.0133 124.721 23.3067 123.841 23.52L123.561 23.24ZM147.183 26V50H141.423V26H147.183ZM156.503 48.4L157.463 50H147.103V48.4H156.503ZM159.143 42.64L157.583 50H150.663L151.903 48.4C153.049 48.4 154.063 48.1733 154.943 47.72C155.849 47.24 156.623 46.5733 157.263 45.72C157.903 44.84 158.396 43.8133 158.743 42.64H159.143ZM141.503 47.48L141.703 50H138.743V49.6C138.743 49.6 138.823 49.6 138.983 49.6C139.143 49.6 139.236 49.6 139.263 49.6C139.849 49.6 140.343 49.4 140.743 49C141.169 48.5733 141.396 48.0667 141.423 47.48H141.503ZM147.103 28.52V26H149.863V26.4C149.836 26.4 149.743 26.4 149.583 26.4C149.449 26.4 149.383 26.4 149.383 26.4C148.796 26.4 148.289 26.6 147.863 27C147.436 27.4 147.209 27.9067 147.183 28.52H147.103ZM141.503 28.52H141.423C141.396 27.9067 141.169 27.4 140.743 27C140.316 26.6 139.809 26.4 139.223 26.4C139.196 26.4 139.103 26.4 138.943 26.4C138.809 26.4 138.743 26.4 138.743 26.4V26H141.503V28.52ZM168.865 26V50H163.105V26H168.865ZM163.225 47.48V50H160.305V49.6C160.305 49.6 160.385 49.6 160.545 49.6C160.705 49.6 160.799 49.6 160.825 49.6C161.439 49.6 161.972 49.4 162.425 49C162.879 48.5733 163.105 48.0667 163.105 47.48H163.225ZM168.785 47.48H168.865C168.892 48.0667 169.119 48.5733 169.545 49C169.999 49.4 170.545 49.6 171.185 49.6C171.185 49.6 171.252 49.6 171.385 49.6C171.545 49.6 171.639 49.6 171.665 49.6V50H168.785V47.48ZM168.785 28.52V26H171.665L171.625 26.4C171.625 26.4 171.559 26.4 171.425 26.4C171.292 26.4 171.212 26.4 171.185 26.4C170.545 26.4 169.999 26.6 169.545 27C169.119 27.4 168.892 27.9067 168.865 28.52H168.785ZM163.225 28.52H163.105C163.105 27.9067 162.879 27.4 162.425 27C161.972 26.6 161.425 26.4 160.785 26.4C160.785 26.4 160.705 26.4 160.545 26.4C160.385 26.4 160.305 26.4 160.305 26.4V26H163.225V28.52ZM185.768 24.92L197.608 49.8H190.848L183.408 32.24L185.768 24.92ZM178.248 47.36C177.954 48.08 177.994 48.64 178.368 49.04C178.741 49.4133 179.154 49.6 179.608 49.6H179.928V50H171.928V49.6C171.928 49.6 171.981 49.6 172.088 49.6C172.194 49.6 172.248 49.6 172.248 49.6C172.781 49.6 173.341 49.44 173.928 49.12C174.514 48.7733 174.994 48.1867 175.368 47.36H178.248ZM185.768 24.92L185.848 29.72L177.168 49.88H174.208L183.568 29.76C183.621 29.6 183.741 29.32 183.928 28.92C184.114 28.4933 184.314 28.0267 184.528 27.52C184.741 26.9867 184.941 26.4933 185.128 26.04C185.314 25.56 185.421 25.1867 185.448 24.92H185.768ZM189.248 42.16V43.72H179.048V42.16H189.248ZM189.848 47.36H196.448C196.848 48.1867 197.341 48.7733 197.928 49.12C198.514 49.44 199.074 49.6 199.608 49.6C199.608 49.6 199.661 49.6 199.768 49.6C199.874 49.6 199.928 49.6 199.928 49.6V50H188.168V49.6H188.488C188.941 49.6 189.354 49.4133 189.728 49.04C190.101 48.64 190.141 48.08 189.848 47.36ZM239.95 21.44L240.27 25.8L228.39 46.4C228.39 46.4 228.257 46.64 227.99 47.12C227.723 47.5733 227.457 48.1333 227.19 48.8C226.95 49.4667 226.83 50.1333 226.83 50.8H226.43L224.87 47.32L239.95 21.44ZM212.83 47.08V50H208.39V49.6C208.417 49.6 208.537 49.6 208.75 49.6C208.937 49.6 209.03 49.6 209.03 49.6C209.75 49.6 210.39 49.3867 210.95 48.96C211.51 48.5067 211.843 47.88 211.95 47.08H212.83ZM214.59 47.72C214.59 47.7467 214.59 47.7733 214.59 47.8C214.59 47.8267 214.59 47.8667 214.59 47.92C214.59 48.3467 214.737 48.7467 215.03 49.12C215.35 49.4667 215.723 49.64 216.15 49.64H216.75V50H214.31V47.72H214.59ZM215.27 21.44H215.63L217.03 25.44L214.35 50H211.55L215.27 21.44ZM215.63 21.44L228.71 42.92L226.43 50.8L214.59 30.92L215.63 21.44ZM240.31 21.44L244.11 50H237.67L235.67 31.6L239.95 21.44H240.31ZM242.87 47.08H243.71C243.843 47.88 244.19 48.5067 244.75 48.96C245.31 49.3867 245.937 49.6 246.63 49.6C246.63 49.6 246.737 49.6 246.95 49.6C247.163 49.6 247.27 49.6 247.27 49.6V50H242.87V47.08ZM237.43 47.72H237.71V50H235.27V49.64H235.87C236.323 49.64 236.697 49.4667 236.99 49.12C237.283 48.7467 237.43 48.3467 237.43 47.92C237.43 47.8667 237.43 47.8267 237.43 47.8C237.43 47.7733 237.43 47.7467 237.43 47.72ZM262.239 25.48C264.372 25.48 266.305 25.7733 268.039 26.36C269.772 26.92 271.265 27.7467 272.519 28.84C273.772 29.9333 274.732 31.2533 275.399 32.8C276.092 34.3467 276.439 36.0933 276.439 38.04C276.439 39.96 276.092 41.6933 275.399 43.24C274.732 44.76 273.772 46.0667 272.519 47.16C271.265 48.2533 269.772 49.0933 268.039 49.68C266.305 50.24 264.372 50.52 262.239 50.52C260.132 50.52 258.212 50.24 256.479 49.68C254.745 49.0933 253.252 48.2533 251.999 47.16C250.745 46.0667 249.785 44.76 249.119 43.24C248.452 41.6933 248.119 39.96 248.119 38.04C248.119 36.0933 248.452 34.3467 249.119 32.8C249.785 31.2533 250.745 29.9333 251.999 28.84C253.252 27.7467 254.745 26.92 256.479 26.36C258.212 25.7733 260.132 25.48 262.239 25.48ZM262.239 48.96C263.865 48.96 265.279 48.52 266.479 47.64C267.705 46.7333 268.639 45.4667 269.279 43.84C269.945 42.2133 270.279 40.28 270.279 38.04C270.279 35.7733 269.945 33.8267 269.279 32.2C268.639 30.5467 267.705 29.28 266.479 28.4C265.279 27.4933 263.865 27.04 262.239 27.04C260.639 27.04 259.239 27.4933 258.039 28.4C256.839 29.28 255.905 30.5467 255.239 32.2C254.572 33.8267 254.239 35.7733 254.239 38.04C254.239 40.28 254.572 42.2133 255.239 43.84C255.905 45.4667 256.839 46.7333 258.039 47.64C259.239 48.52 260.639 48.96 262.239 48.96ZM286.984 26H291.304C292.397 26 293.464 26.12 294.504 26.36C295.544 26.5733 296.477 26.9333 297.304 27.44C298.13 27.92 298.784 28.5867 299.264 29.44C299.77 30.2667 300.024 31.3067 300.024 32.56C300.024 33.4933 299.824 34.4267 299.424 35.36C299.05 36.2667 298.45 37.0533 297.624 37.72C296.824 38.3867 295.77 38.8267 294.464 39.04C295.237 39.28 295.97 39.7467 296.664 40.44C297.384 41.1333 297.944 41.7867 298.344 42.4C298.45 42.6133 298.637 42.96 298.904 43.44C299.17 43.8933 299.504 44.4267 299.904 45.04C300.33 45.6267 300.77 46.24 301.224 46.88C301.757 47.6 302.224 48.16 302.624 48.56C303.024 48.9333 303.437 49.2 303.864 49.36C304.29 49.52 304.784 49.6 305.344 49.6V50H301.984C300.544 50 299.317 49.8933 298.304 49.68C297.317 49.4667 296.45 49.08 295.704 48.52C294.984 47.9333 294.317 47.1467 293.704 46.16C293.464 45.8133 293.21 45.4 292.944 44.92C292.677 44.4133 292.41 43.9067 292.144 43.4C291.877 42.8933 291.637 42.4 291.424 41.92C291.237 41.44 291.104 41.04 291.024 40.72C290.677 39.8667 290.277 39.2533 289.824 38.88C289.397 38.48 288.997 38.28 288.624 38.28V37.92C288.624 37.92 288.717 37.92 288.904 37.92C289.09 37.92 289.33 37.92 289.624 37.92C290.184 37.92 290.73 37.8267 291.264 37.64C291.824 37.4267 292.33 37.04 292.784 36.48C293.237 35.8933 293.57 35.04 293.784 33.92C293.837 33.76 293.877 33.5333 293.904 33.24C293.957 32.9467 293.97 32.6133 293.944 32.24C293.89 31.2533 293.704 30.4667 293.384 29.88C293.09 29.2667 292.717 28.8133 292.264 28.52C291.81 28.2 291.344 27.9867 290.864 27.88C290.41 27.7467 290.01 27.68 289.664 27.68C289.157 27.6533 288.69 27.6533 288.264 27.68C287.864 27.68 287.557 27.6667 287.344 27.64C287.317 27.64 287.277 27.5067 287.224 27.24C287.17 26.9467 287.117 26.6667 287.064 26.4C287.01 26.1333 286.984 26 286.984 26ZM287.384 26V50H281.584V26H287.384ZM281.704 47.48L281.864 50H278.984V49.6C279.01 49.6 279.077 49.6 279.184 49.6C279.317 49.6 279.41 49.6 279.464 49.6C280.05 49.6 280.544 49.4 280.944 49C281.37 48.5733 281.597 48.0667 281.624 47.48H281.704ZM281.704 28.48H281.624C281.597 27.8667 281.37 27.3733 280.944 27C280.544 26.6 280.064 26.4 279.504 26.4C279.424 26.4 279.317 26.4 279.184 26.4C279.077 26.4 279.01 26.4 278.984 26.4V26H281.864L281.704 28.48ZM287.304 47.48H287.384C287.384 48.1467 287.61 48.6667 288.064 49.04C288.544 49.4133 289.05 49.6 289.584 49.6C289.584 49.6 289.637 49.6 289.744 49.6C289.85 49.6 289.93 49.6 289.984 49.6V50H287.104L287.304 47.48ZM317.174 24.92L329.014 49.8H322.254L314.814 32.24L317.174 24.92ZM309.654 47.36C309.361 48.08 309.401 48.64 309.774 49.04C310.147 49.4133 310.561 49.6 311.014 49.6H311.334V50H303.334V49.6C303.334 49.6 303.387 49.6 303.494 49.6C303.601 49.6 303.654 49.6 303.654 49.6C304.187 49.6 304.747 49.44 305.334 49.12C305.921 48.7733 306.401 48.1867 306.774 47.36H309.654ZM317.174 24.92L317.254 29.72L308.574 49.88H305.614L314.974 29.76C315.027 29.6 315.147 29.32 315.334 28.92C315.521 28.4933 315.721 28.0267 315.934 27.52C316.147 26.9867 316.347 26.4933 316.534 26.04C316.721 25.56 316.827 25.1867 316.854 24.92H317.174ZM320.654 42.16V43.72H310.454V42.16H320.654ZM321.254 47.36H327.854C328.254 48.1867 328.747 48.7733 329.334 49.12C329.921 49.44 330.481 49.6 331.014 49.6C331.014 49.6 331.067 49.6 331.174 49.6C331.281 49.6 331.334 49.6 331.334 49.6V50H319.574V49.6H319.894C320.347 49.6 320.761 49.4133 321.134 49.04C321.507 48.64 321.547 48.08 321.254 47.36ZM339.956 26V50H334.196V26H339.956ZM349.316 48.4L350.236 50H339.876V48.4H349.316ZM347.956 37.32V38.92H339.876V37.32H347.956ZM349.756 26V27.6H339.876V26H349.756ZM351.876 42.64L350.356 50H343.436L344.676 48.4C345.823 48.4 346.836 48.1733 347.716 47.72C348.623 47.24 349.396 46.5733 350.036 45.72C350.676 44.84 351.17 43.8133 351.516 42.64H351.876ZM347.956 38.84V42.36H347.556V42.04C347.556 41.16 347.276 40.4267 346.716 39.84C346.183 39.2533 345.45 38.9467 344.516 38.92V38.84H347.956ZM347.956 33.88V37.4H344.516V37.32C345.45 37.2933 346.183 36.9867 346.716 36.4C347.276 35.7867 347.556 35.04 347.556 34.16V33.88H347.956ZM349.756 27.52V31.76H349.356V31.4C349.356 30.2267 349.036 29.3067 348.396 28.64C347.783 27.9733 346.89 27.6267 345.716 27.6V27.52H349.756ZM349.756 25.4V26.36L345.556 26C346.33 26 347.143 25.9333 347.996 25.8C348.85 25.64 349.436 25.5067 349.756 25.4ZM334.276 47.48L334.476 50H331.516V49.6C331.516 49.6 331.596 49.6 331.756 49.6C331.916 49.6 332.01 49.6 332.036 49.6C332.623 49.6 333.116 49.4 333.516 49C333.943 48.5733 334.17 48.0667 334.196 47.48H334.276ZM334.276 28.52H334.196C334.17 27.9067 333.943 27.4 333.516 27C333.116 26.6 332.623 26.4 332.036 26.4C332.01 26.4 331.916 26.4 331.756 26.4C331.596 26.4 331.516 26.4 331.516 26.4V26H334.476L334.276 28.52ZM362.254 25.48C362.788 25.48 363.428 25.5067 364.174 25.56C364.948 25.6133 365.708 25.68 366.454 25.76C367.201 25.8133 367.854 25.8933 368.414 26C369.001 26.08 369.401 26.16 369.614 26.24L369.094 31.12H368.734C368.734 29.8933 368.308 28.92 367.454 28.2C366.601 27.48 365.374 27.12 363.774 27.12C362.494 27.12 361.454 27.4 360.654 27.96C359.881 28.52 359.468 29.2667 359.414 30.2C359.361 30.68 359.441 31.12 359.654 31.52C359.894 31.8933 360.214 32.2267 360.614 32.52C361.041 32.8133 361.508 33.1067 362.014 33.4L368.294 37.28C369.361 37.8133 370.201 38.5867 370.814 39.6C371.428 40.6133 371.694 41.84 371.614 43.28C371.534 44.7733 371.094 46.0667 370.294 47.16C369.521 48.2533 368.441 49.0933 367.054 49.68C365.694 50.24 364.081 50.52 362.214 50.52C361.068 50.52 360.001 50.4267 359.014 50.24C358.028 50.0533 357.174 49.8 356.454 49.48C355.761 49.16 355.228 48.8 354.854 48.4C354.641 47.8667 354.548 47.2267 354.574 46.48C354.601 45.7067 354.721 44.9467 354.934 44.2C355.148 43.4267 355.414 42.7867 355.734 42.28H356.054C355.974 43.48 356.188 44.5867 356.694 45.6C357.228 46.6133 358.001 47.4267 359.014 48.04C360.028 48.6267 361.241 48.92 362.654 48.92C364.201 48.92 365.361 48.56 366.134 47.84C366.908 47.12 367.294 46.28 367.294 45.32C367.294 44.6 367.054 43.96 366.574 43.4C366.121 42.8133 365.361 42.24 364.294 41.68L358.614 38.08C357.281 37.3867 356.308 36.4667 355.694 35.32C355.108 34.1733 354.894 32.92 355.054 31.56C355.188 30.28 355.561 29.1867 356.174 28.28C356.814 27.3733 357.654 26.68 358.694 26.2C359.734 25.72 360.921 25.48 362.254 25.48ZM369.614 25.84L369.574 26.56H365.294V25.84H369.614Z" fill="url(#paint0_linear_46_320)"/>
<path d="M105.228 5.6V14H103.428V5.6H105.228ZM108.396 13.484L108.684 14H105.192V13.484H108.396ZM107.952 9.608V10.112H105.192V9.608H107.952ZM108.54 5.6V6.116H105.192V5.6H108.54ZM109.272 11.54L108.72 14H106.368L106.8 13.484C107.2 13.484 107.552 13.408 107.856 13.256C108.16 13.096 108.42 12.872 108.636 12.584C108.852 12.288 109.024 11.94 109.152 11.54H109.272ZM107.952 10.088V11.24H107.832V11.144C107.832 10.848 107.736 10.604 107.544 10.412C107.352 10.22 107.108 10.12 106.812 10.112V10.088H107.952ZM107.952 8.48V9.632H106.812V9.608C107.108 9.6 107.352 9.5 107.544 9.308C107.736 9.108 107.832 8.86 107.832 8.564V8.48H107.952ZM108.54 6.08V7.484H108.42V7.34C108.42 6.972 108.308 6.676 108.084 6.452C107.868 6.228 107.572 6.112 107.196 6.104V6.08H108.54ZM108.54 5.384V5.732L107.076 5.6C107.252 5.6 107.436 5.588 107.628 5.564C107.828 5.54 108.012 5.512 108.18 5.48C108.348 5.448 108.468 5.416 108.54 5.384ZM103.464 13.124V14H102.504V13.88C102.504 13.88 102.528 13.88 102.576 13.88C102.632 13.88 102.66 13.88 102.66 13.88C102.868 13.88 103.044 13.808 103.188 13.664C103.34 13.512 103.42 13.332 103.428 13.124H103.464ZM103.464 6.476H103.428C103.42 6.268 103.34 6.092 103.188 5.948C103.044 5.796 102.868 5.72 102.66 5.72C102.66 5.72 102.632 5.72 102.576 5.72C102.528 5.72 102.504 5.72 102.504 5.72V5.6H103.464V6.476ZM112.438 6.644C112.598 6.644 112.79 6.652 113.014 6.668C113.246 6.684 113.474 6.704 113.698 6.728C113.922 6.744 114.118 6.768 114.286 6.8C114.462 6.824 114.582 6.848 114.646 6.872L114.49 8.336H114.382C114.382 7.968 114.254 7.676 113.998 7.46C113.742 7.244 113.374 7.136 112.894 7.136C112.51 7.136 112.198 7.22 111.958 7.388C111.726 7.556 111.602 7.78 111.586 8.06C111.57 8.204 111.594 8.336 111.658 8.456C111.73 8.568 111.826 8.668 111.946 8.756C112.074 8.844 112.214 8.932 112.366 9.02L114.25 10.184C114.57 10.344 114.822 10.576 115.006 10.88C115.19 11.184 115.27 11.552 115.246 11.984C115.222 12.432 115.09 12.82 114.85 13.148C114.618 13.476 114.294 13.728 113.878 13.904C113.47 14.072 112.986 14.156 112.426 14.156C112.082 14.156 111.762 14.128 111.466 14.072C111.17 14.016 110.914 13.94 110.698 13.844C110.49 13.748 110.33 13.64 110.218 13.52C110.154 13.36 110.126 13.168 110.134 12.944C110.142 12.712 110.178 12.484 110.242 12.26C110.306 12.028 110.386 11.836 110.482 11.684H110.578C110.554 12.044 110.618 12.376 110.77 12.68C110.93 12.984 111.162 13.228 111.466 13.412C111.77 13.588 112.134 13.676 112.558 13.676C113.022 13.676 113.37 13.568 113.602 13.352C113.834 13.136 113.95 12.884 113.95 12.596C113.95 12.38 113.878 12.188 113.734 12.02C113.598 11.844 113.37 11.672 113.05 11.504L111.346 10.424C110.946 10.216 110.654 9.94 110.47 9.596C110.294 9.252 110.23 8.876 110.278 8.468C110.318 8.084 110.43 7.756 110.614 7.484C110.806 7.212 111.058 7.004 111.37 6.86C111.682 6.716 112.038 6.644 112.438 6.644ZM114.646 6.752L114.634 6.968H113.35V6.752H114.646ZM120.081 6.836V14H118.341V6.836H120.081ZM122.697 6.788V7.268H115.737V6.788H122.697ZM122.697 7.232V8.504H122.565V8.396C122.573 8.052 122.477 7.78 122.277 7.58C122.085 7.38 121.817 7.276 121.473 7.268V7.232H122.697ZM122.697 6.608V6.908L121.425 6.788C121.577 6.788 121.741 6.78 121.917 6.764C122.093 6.74 122.253 6.716 122.397 6.692C122.541 6.66 122.641 6.632 122.697 6.608ZM118.365 13.244V14H117.561V13.88C117.561 13.88 117.581 13.88 117.621 13.88C117.669 13.88 117.693 13.88 117.693 13.88C117.869 13.88 118.017 13.82 118.137 13.7C118.265 13.572 118.333 13.42 118.341 13.244H118.365ZM120.045 13.244H120.081C120.081 13.42 120.145 13.572 120.273 13.7C120.401 13.82 120.557 13.88 120.741 13.88C120.741 13.88 120.761 13.88 120.801 13.88C120.849 13.88 120.873 13.88 120.873 13.88V14H120.045V13.244ZM116.961 7.232V7.268C116.609 7.276 116.337 7.38 116.145 7.58C115.961 7.78 115.869 8.052 115.869 8.396V8.504H115.737V7.232H116.961ZM115.737 6.608C115.809 6.624 115.913 6.648 116.049 6.68C116.193 6.712 116.349 6.74 116.517 6.764C116.693 6.78 116.853 6.788 116.997 6.788L115.737 6.908V6.608ZM125.846 6.8V14H124.118V6.8H125.846ZM128.654 13.52L128.93 14H125.822V13.52H128.654ZM128.246 10.196V10.676H125.822V10.196H128.246ZM128.786 6.8V7.28H125.822V6.8H128.786ZM129.422 11.792L128.966 14H126.89L127.262 13.52C127.606 13.52 127.91 13.452 128.174 13.316C128.446 13.172 128.678 12.972 128.87 12.716C129.062 12.452 129.21 12.144 129.314 11.792H129.422ZM128.246 10.652V11.708H128.126V11.612C128.126 11.348 128.042 11.128 127.874 10.952C127.714 10.776 127.494 10.684 127.214 10.676V10.652H128.246ZM128.246 9.164V10.22H127.214V10.196C127.494 10.188 127.714 10.096 127.874 9.92C128.042 9.736 128.126 9.512 128.126 9.248V9.164H128.246ZM128.786 7.256V8.528H128.666V8.42C128.666 8.068 128.57 7.792 128.378 7.592C128.194 7.392 127.926 7.288 127.574 7.28V7.256H128.786ZM128.786 6.62V6.908L127.526 6.8C127.758 6.8 128.002 6.78 128.258 6.74C128.514 6.692 128.69 6.652 128.786 6.62ZM124.142 13.244L124.202 14H123.314V13.88C123.314 13.88 123.338 13.88 123.386 13.88C123.434 13.88 123.462 13.88 123.47 13.88C123.646 13.88 123.794 13.82 123.914 13.7C124.042 13.572 124.11 13.42 124.118 13.244H124.142ZM124.142 7.556H124.118C124.11 7.372 124.042 7.22 123.914 7.1C123.794 6.98 123.646 6.92 123.47 6.92C123.462 6.92 123.434 6.92 123.386 6.92C123.338 6.92 123.314 6.92 123.314 6.92V6.8H124.202L124.142 7.556ZM134.179 6.836V14H132.439V6.836H134.179ZM136.795 6.788V7.268H129.835V6.788H136.795ZM136.795 7.232V8.504H136.663V8.396C136.671 8.052 136.575 7.78 136.375 7.58C136.183 7.38 135.915 7.276 135.571 7.268V7.232H136.795ZM136.795 6.608V6.908L135.523 6.788C135.675 6.788 135.839 6.78 136.015 6.764C136.191 6.74 136.351 6.716 136.495 6.692C136.639 6.66 136.739 6.632 136.795 6.608ZM132.463 13.244V14H131.659V13.88C131.659 13.88 131.679 13.88 131.719 13.88C131.767 13.88 131.791 13.88 131.791 13.88C131.967 13.88 132.115 13.82 132.235 13.7C132.363 13.572 132.431 13.42 132.439 13.244H132.463ZM134.143 13.244H134.179C134.179 13.42 134.243 13.572 134.371 13.7C134.499 13.82 134.655 13.88 134.839 13.88C134.839 13.88 134.859 13.88 134.899 13.88C134.947 13.88 134.971 13.88 134.971 13.88V14H134.143V13.244ZM131.059 7.232V7.268C130.707 7.276 130.435 7.38 130.243 7.58C130.059 7.78 129.967 8.052 129.967 8.396V8.504H129.835V7.232H131.059ZM129.835 6.608C129.907 6.624 130.011 6.648 130.147 6.68C130.291 6.712 130.447 6.74 130.615 6.764C130.791 6.78 130.951 6.788 131.095 6.788L129.835 6.908V6.608ZM139.98 6.8V14H138.252V6.8H139.98ZM138.288 13.244V14H137.412V13.88C137.412 13.88 137.436 13.88 137.484 13.88C137.532 13.88 137.56 13.88 137.568 13.88C137.752 13.88 137.912 13.82 138.048 13.7C138.184 13.572 138.252 13.42 138.252 13.244H138.288ZM139.956 13.244H139.98C139.988 13.42 140.056 13.572 140.184 13.7C140.32 13.82 140.484 13.88 140.676 13.88C140.676 13.88 140.696 13.88 140.736 13.88C140.784 13.88 140.812 13.88 140.82 13.88V14H139.956V13.244ZM139.956 7.556V6.8H140.82L140.808 6.92C140.808 6.92 140.788 6.92 140.748 6.92C140.708 6.92 140.684 6.92 140.676 6.92C140.484 6.92 140.32 6.98 140.184 7.1C140.056 7.22 139.988 7.372 139.98 7.556H139.956ZM138.288 7.556H138.252C138.252 7.372 138.184 7.22 138.048 7.1C137.912 6.98 137.748 6.92 137.556 6.92C137.556 6.92 137.532 6.92 137.484 6.92C137.436 6.92 137.412 6.92 137.412 6.92V6.8H138.288V7.556ZM148.725 10.988L148.857 12.8C148.705 13.056 148.493 13.288 148.221 13.496C147.949 13.696 147.617 13.856 147.225 13.976C146.833 14.096 146.377 14.156 145.857 14.156C144.961 14.148 144.189 13.996 143.541 13.7C142.893 13.404 142.393 12.98 142.041 12.428C141.697 11.868 141.525 11.188 141.525 10.388C141.525 9.604 141.697 8.936 142.041 8.384C142.385 7.824 142.881 7.396 143.529 7.1C144.177 6.796 144.953 6.644 145.857 6.644C146.401 6.644 146.905 6.696 147.369 6.8C147.841 6.904 148.233 7.036 148.545 7.196L148.557 9.104H148.461C148.261 8.368 147.945 7.852 147.513 7.556C147.081 7.26 146.569 7.112 145.977 7.112C145.393 7.112 144.905 7.248 144.513 7.52C144.129 7.792 143.837 8.172 143.637 8.66C143.445 9.148 143.349 9.72 143.349 10.376C143.349 11.04 143.445 11.616 143.637 12.104C143.837 12.592 144.125 12.972 144.501 13.244C144.877 13.516 145.329 13.66 145.857 13.676C146.425 13.676 146.893 13.588 147.261 13.412C147.637 13.236 147.933 12.952 148.149 12.56C148.373 12.168 148.533 11.644 148.629 10.988H148.725ZM152.285 6.8V14H150.557V6.8H152.285ZM150.593 13.244V14H149.717V13.88C149.717 13.88 149.741 13.88 149.789 13.88C149.837 13.88 149.865 13.88 149.873 13.88C150.057 13.88 150.217 13.82 150.353 13.7C150.489 13.572 150.557 13.42 150.557 13.244H150.593ZM152.261 13.244H152.285C152.293 13.42 152.361 13.572 152.489 13.7C152.625 13.82 152.789 13.88 152.981 13.88C152.981 13.88 153.001 13.88 153.041 13.88C153.089 13.88 153.117 13.88 153.125 13.88V14H152.261V13.244ZM152.261 7.556V6.8H153.125L153.113 6.92C153.113 6.92 153.093 6.92 153.053 6.92C153.013 6.92 152.989 6.92 152.981 6.92C152.789 6.92 152.625 6.98 152.489 7.1C152.361 7.22 152.293 7.372 152.285 7.556H152.261ZM150.593 7.556H150.557C150.557 7.372 150.489 7.22 150.353 7.1C150.217 6.98 150.053 6.92 149.861 6.92C149.861 6.92 149.837 6.92 149.789 6.92C149.741 6.92 149.717 6.92 149.717 6.92V6.8H150.593V7.556ZM156.383 6.644C156.543 6.644 156.735 6.652 156.959 6.668C157.191 6.684 157.419 6.704 157.643 6.728C157.867 6.744 158.063 6.768 158.231 6.8C158.407 6.824 158.527 6.848 158.591 6.872L158.435 8.336H158.327C158.327 7.968 158.199 7.676 157.943 7.46C157.687 7.244 157.319 7.136 156.839 7.136C156.455 7.136 156.143 7.22 155.903 7.388C155.671 7.556 155.547 7.78 155.531 8.06C155.515 8.204 155.539 8.336 155.603 8.456C155.675 8.568 155.771 8.668 155.891 8.756C156.019 8.844 156.159 8.932 156.311 9.02L158.195 10.184C158.515 10.344 158.767 10.576 158.951 10.88C159.135 11.184 159.215 11.552 159.191 11.984C159.167 12.432 159.035 12.82 158.795 13.148C158.563 13.476 158.239 13.728 157.823 13.904C157.415 14.072 156.931 14.156 156.371 14.156C156.027 14.156 155.707 14.128 155.411 14.072C155.115 14.016 154.859 13.94 154.643 13.844C154.435 13.748 154.275 13.64 154.163 13.52C154.099 13.36 154.071 13.168 154.079 12.944C154.087 12.712 154.123 12.484 154.187 12.26C154.251 12.028 154.331 11.836 154.427 11.684H154.523C154.499 12.044 154.563 12.376 154.715 12.68C154.875 12.984 155.107 13.228 155.411 13.412C155.715 13.588 156.079 13.676 156.503 13.676C156.967 13.676 157.315 13.568 157.547 13.352C157.779 13.136 157.895 12.884 157.895 12.596C157.895 12.38 157.823 12.188 157.679 12.02C157.543 11.844 157.315 11.672 156.995 11.504L155.291 10.424C154.891 10.216 154.599 9.94 154.415 9.596C154.239 9.252 154.175 8.876 154.223 8.468C154.263 8.084 154.375 7.756 154.559 7.484C154.751 7.212 155.003 7.004 155.315 6.86C155.627 6.716 155.983 6.644 156.383 6.644ZM158.591 6.752L158.579 6.968H157.295V6.752H158.591ZM164.027 6.836V14H162.287V6.836H164.027ZM166.643 6.788V7.268H159.683V6.788H166.643ZM166.643 7.232V8.504H166.511V8.396C166.519 8.052 166.423 7.78 166.223 7.58C166.031 7.38 165.763 7.276 165.419 7.268V7.232H166.643ZM166.643 6.608V6.908L165.371 6.788C165.523 6.788 165.687 6.78 165.863 6.764C166.039 6.74 166.199 6.716 166.342 6.692C166.487 6.66 166.587 6.632 166.643 6.608ZM162.311 13.244V14H161.507V13.88C161.507 13.88 161.527 13.88 161.567 13.88C161.615 13.88 161.639 13.88 161.639 13.88C161.815 13.88 161.963 13.82 162.083 13.7C162.211 13.572 162.279 13.42 162.287 13.244H162.311ZM163.991 13.244H164.027C164.027 13.42 164.091 13.572 164.219 13.7C164.347 13.82 164.503 13.88 164.687 13.88C164.687 13.88 164.707 13.88 164.747 13.88C164.795 13.88 164.819 13.88 164.819 13.88V14H163.991V13.244ZM160.907 7.232V7.268C160.555 7.276 160.283 7.38 160.091 7.58C159.907 7.78 159.815 8.052 159.815 8.396V8.504H159.683V7.232H160.907ZM159.683 6.608C159.755 6.624 159.859 6.648 159.995 6.68C160.139 6.712 160.295 6.74 160.463 6.764C160.639 6.78 160.799 6.788 160.943 6.788L159.683 6.908V6.608ZM169.836 6.476L173.388 13.94H171.36L169.128 8.672L169.836 6.476ZM167.58 13.208C167.492 13.424 167.504 13.592 167.616 13.712C167.728 13.824 167.852 13.88 167.988 13.88H168.084V14H165.684V13.88C165.684 13.88 165.7 13.88 165.732 13.88C165.764 13.88 165.78 13.88 165.78 13.88C165.94 13.88 166.108 13.832 166.284 13.736C166.46 13.632 166.604 13.456 166.716 13.208H167.58ZM169.836 6.476L169.86 7.916L167.256 13.964H166.368L169.176 7.928C169.192 7.88 169.228 7.796 169.284 7.676C169.34 7.548 169.4 7.408 169.464 7.256C169.528 7.096 169.588 6.948 169.644 6.812C169.7 6.668 169.732 6.556 169.74 6.476H169.836ZM170.88 11.648V12.116H167.82V11.648H170.88ZM171.06 13.208H173.04C173.16 13.456 173.308 13.632 173.484 13.736C173.66 13.832 173.828 13.88 173.988 13.88C173.988 13.88 174.004 13.88 174.036 13.88C174.068 13.88 174.084 13.88 174.084 13.88V14H170.556V13.88H170.652C170.788 13.88 170.912 13.824 171.024 13.712C171.136 13.592 171.148 13.424 171.06 13.208ZM179.67 6.8V14H177.942V6.8H179.67ZM182.478 13.52L182.754 14H179.646V13.52H182.478ZM182.07 10.196V10.676H179.646V10.196H182.07ZM182.61 6.8V7.28H179.646V6.8H182.61ZM183.246 11.792L182.79 14H180.714L181.086 13.52C181.43 13.52 181.734 13.452 181.998 13.316C182.27 13.172 182.502 12.972 182.694 12.716C182.886 12.452 183.034 12.144 183.138 11.792H183.246ZM182.07 10.652V11.708H181.95V11.612C181.95 11.348 181.866 11.128 181.698 10.952C181.538 10.776 181.318 10.684 181.038 10.676V10.652H182.07ZM182.07 9.164V10.22H181.038V10.196C181.318 10.188 181.538 10.096 181.698 9.92C181.866 9.736 181.95 9.512 181.95 9.248V9.164H182.07ZM182.61 7.256V8.528H182.49V8.42C182.49 8.068 182.394 7.792 182.202 7.592C182.018 7.392 181.75 7.288 181.398 7.28V7.256H182.61ZM182.61 6.62V6.908L181.35 6.8C181.582 6.8 181.826 6.78 182.082 6.74C182.338 6.692 182.514 6.652 182.61 6.62ZM177.966 13.244L178.026 14H177.138V13.88C177.138 13.88 177.162 13.88 177.21 13.88C177.258 13.88 177.286 13.88 177.294 13.88C177.47 13.88 177.618 13.82 177.738 13.7C177.866 13.572 177.934 13.42 177.942 13.244H177.966ZM177.966 7.556H177.942C177.934 7.372 177.866 7.22 177.738 7.1C177.618 6.98 177.47 6.92 177.294 6.92C177.286 6.92 177.258 6.92 177.21 6.92C177.162 6.92 177.138 6.92 177.138 6.92V6.8H178.026L177.966 7.556ZM194.112 10.988L194.244 12.8C194.092 13.056 193.88 13.288 193.608 13.496C193.336 13.696 193.004 13.856 192.612 13.976C192.22 14.096 191.764 14.156 191.244 14.156C190.348 14.148 189.576 13.996 188.928 13.7C188.28 13.404 187.78 12.98 187.428 12.428C187.084 11.868 186.912 11.188 186.912 10.388C186.912 9.604 187.084 8.936 187.428 8.384C187.772 7.824 188.268 7.396 188.916 7.1C189.564 6.796 190.34 6.644 191.244 6.644C191.788 6.644 192.292 6.696 192.756 6.8C193.228 6.904 193.62 7.036 193.932 7.196L193.944 9.104H193.848C193.648 8.368 193.332 7.852 192.9 7.556C192.468 7.26 191.956 7.112 191.364 7.112C190.78 7.112 190.292 7.248 189.9 7.52C189.516 7.792 189.224 8.172 189.024 8.66C188.832 9.148 188.736 9.72 188.736 10.376C188.736 11.04 188.832 11.616 189.024 12.104C189.224 12.592 189.512 12.972 189.888 13.244C190.264 13.516 190.716 13.66 191.244 13.676C191.812 13.676 192.28 13.588 192.648 13.412C193.024 13.236 193.32 12.952 193.536 12.56C193.76 12.168 193.92 11.644 194.016 10.988H194.112ZM199.539 6.644C200.179 6.644 200.759 6.732 201.279 6.908C201.799 7.076 202.247 7.324 202.623 7.652C202.999 7.98 203.287 8.376 203.487 8.84C203.695 9.304 203.799 9.828 203.799 10.412C203.799 10.988 203.695 11.508 203.487 11.972C203.287 12.428 202.999 12.82 202.623 13.148C202.247 13.476 201.799 13.728 201.279 13.904C200.759 14.072 200.179 14.156 199.539 14.156C198.907 14.156 198.331 14.072 197.811 13.904C197.291 13.728 196.843 13.476 196.467 13.148C196.091 12.82 195.803 12.428 195.603 11.972C195.403 11.508 195.303 10.988 195.303 10.412C195.303 9.828 195.403 9.304 195.603 8.84C195.803 8.376 196.091 7.98 196.467 7.652C196.843 7.324 197.291 7.076 197.811 6.908C198.331 6.732 198.907 6.644 199.539 6.644ZM199.539 13.688C200.027 13.688 200.451 13.556 200.811 13.292C201.179 13.02 201.459 12.64 201.651 12.152C201.851 11.664 201.951 11.084 201.951 10.412C201.951 9.732 201.851 9.148 201.651 8.66C201.459 8.164 201.179 7.784 200.811 7.52C200.451 7.248 200.027 7.112 199.539 7.112C199.059 7.112 198.639 7.248 198.279 7.52C197.919 7.784 197.639 8.164 197.439 8.66C197.239 9.148 197.139 9.732 197.139 10.412C197.139 11.084 197.239 11.664 197.439 12.152C197.639 12.64 197.919 13.02 198.279 13.292C198.639 13.556 199.059 13.688 199.539 13.688ZM212.601 6.644L212.697 7.88L209.469 13.004C209.469 13.004 209.433 13.072 209.361 13.208C209.289 13.336 209.217 13.492 209.145 13.676C209.081 13.86 209.045 14.044 209.037 14.228H208.929L208.461 13.244L212.601 6.644ZM205.221 13.232V14H204.045V13.88C204.045 13.88 204.073 13.88 204.129 13.88C204.177 13.88 204.201 13.88 204.201 13.88C204.401 13.88 204.573 13.824 204.717 13.712C204.869 13.6 204.961 13.44 204.993 13.232H205.221ZM205.737 13.4C205.729 13.488 205.757 13.592 205.821 13.712C205.885 13.824 205.997 13.88 206.157 13.88H206.325V14H205.605L205.677 13.4H205.737ZM205.929 6.644H206.025L206.433 7.796L205.677 14H204.897L205.929 6.644ZM206.025 6.644L209.577 11.96L208.929 14.228L205.737 9.392L206.025 6.644ZM212.709 6.644L213.765 14H211.929L211.341 9.62L212.601 6.644H212.709ZM213.429 13.232H213.657C213.697 13.44 213.789 13.6 213.933 13.712C214.085 13.824 214.253 13.88 214.437 13.88C214.437 13.88 214.465 13.88 214.521 13.88C214.577 13.88 214.605 13.88 214.605 13.88V14H213.429V13.232ZM211.845 13.4H211.917L211.989 14H211.269V13.88H211.437C211.613 13.88 211.729 13.824 211.785 13.712C211.841 13.592 211.861 13.488 211.845 13.4ZM217.44 6.8V14H215.712V6.8H217.44ZM220.248 13.52L220.524 14H217.416V13.52H220.248ZM219.84 10.196V10.676H217.416V10.196H219.84ZM220.38 6.8V7.28H217.416V6.8H220.38ZM221.016 11.792L220.56 14H218.484L218.856 13.52C219.2 13.52 219.504 13.452 219.768 13.316C220.04 13.172 220.272 12.972 220.464 12.716C220.656 12.452 220.804 12.144 220.908 11.792H221.016ZM219.84 10.652V11.708H219.72V11.612C219.72 11.348 219.636 11.128 219.468 10.952C219.308 10.776 219.088 10.684 218.808 10.676V10.652H219.84ZM219.84 9.164V10.22H218.808V10.196C219.088 10.188 219.308 10.096 219.468 9.92C219.636 9.736 219.72 9.512 219.72 9.248V9.164H219.84ZM220.38 7.256V8.528H220.26V8.42C220.26 8.068 220.164 7.792 219.972 7.592C219.788 7.392 219.52 7.288 219.168 7.28V7.256H220.38ZM220.38 6.62V6.908L219.12 6.8C219.352 6.8 219.596 6.78 219.852 6.74C220.108 6.692 220.284 6.652 220.38 6.62ZM215.736 13.244L215.796 14H214.908V13.88C214.908 13.88 214.932 13.88 214.98 13.88C215.028 13.88 215.056 13.88 215.064 13.88C215.24 13.88 215.388 13.82 215.508 13.7C215.636 13.572 215.704 13.42 215.712 13.244H215.736ZM215.736 7.556H215.712C215.704 7.372 215.636 7.22 215.508 7.1C215.388 6.98 215.24 6.92 215.064 6.92C215.056 6.92 215.028 6.92 214.98 6.92C214.932 6.92 214.908 6.92 214.908 6.92V6.8H215.796L215.736 7.556ZM225.773 6.836V14H224.033V6.836H225.773ZM228.389 6.788V7.268H221.429V6.788H228.389ZM228.389 7.232V8.504H228.257V8.396C228.265 8.052 228.169 7.78 227.969 7.58C227.777 7.38 227.509 7.276 227.165 7.268V7.232H228.389ZM228.389 6.608V6.908L227.117 6.788C227.269 6.788 227.433 6.78 227.609 6.764C227.785 6.74 227.945 6.716 228.089 6.692C228.233 6.66 228.333 6.632 228.389 6.608ZM224.057 13.244V14H223.253V13.88C223.253 13.88 223.273 13.88 223.313 13.88C223.361 13.88 223.385 13.88 223.385 13.88C223.561 13.88 223.709 13.82 223.829 13.7C223.957 13.572 224.025 13.42 224.033 13.244H224.057ZM225.737 13.244H225.773C225.773 13.42 225.837 13.572 225.965 13.7C226.093 13.82 226.249 13.88 226.433 13.88C226.433 13.88 226.453 13.88 226.493 13.88C226.541 13.88 226.565 13.88 226.565 13.88V14H225.737V13.244ZM222.653 7.232V7.268C222.301 7.276 222.029 7.38 221.837 7.58C221.653 7.78 221.561 8.052 221.561 8.396V8.504H221.429V7.232H222.653ZM221.429 6.608C221.501 6.624 221.605 6.648 221.741 6.68C221.885 6.712 222.041 6.74 222.209 6.764C222.385 6.78 222.545 6.788 222.689 6.788L221.429 6.908V6.608ZM233.043 6.644C233.683 6.644 234.263 6.732 234.783 6.908C235.303 7.076 235.751 7.324 236.127 7.652C236.503 7.98 236.791 8.376 236.991 8.84C237.199 9.304 237.303 9.828 237.303 10.412C237.303 10.988 237.199 11.508 236.991 11.972C236.791 12.428 236.503 12.82 236.127 13.148C235.751 13.476 235.303 13.728 234.783 13.904C234.263 14.072 233.683 14.156 233.043 14.156C232.411 14.156 231.835 14.072 231.315 13.904C230.795 13.728 230.347 13.476 229.971 13.148C229.595 12.82 229.307 12.428 229.107 11.972C228.907 11.508 228.807 10.988 228.807 10.412C228.807 9.828 228.907 9.304 229.107 8.84C229.307 8.376 229.595 7.98 229.971 7.652C230.347 7.324 230.795 7.076 231.315 6.908C231.835 6.732 232.411 6.644 233.043 6.644ZM233.043 13.688C233.531 13.688 233.955 13.556 234.315 13.292C234.683 13.02 234.963 12.64 235.155 12.152C235.355 11.664 235.455 11.084 235.455 10.412C235.455 9.732 235.355 9.148 235.155 8.66C234.963 8.164 234.683 7.784 234.315 7.52C233.955 7.248 233.531 7.112 233.043 7.112C232.563 7.112 232.143 7.248 231.783 7.52C231.423 7.784 231.143 8.164 230.943 8.66C230.743 9.148 230.643 9.732 230.643 10.412C230.643 11.084 230.743 11.664 230.943 12.152C231.143 12.64 231.423 13.02 231.783 13.292C232.143 13.556 232.563 13.688 233.043 13.688ZM232.851 5.96C232.987 5.728 233.155 5.488 233.355 5.24C233.555 4.992 233.763 4.76 233.979 4.544C234.203 4.328 234.399 4.14 234.567 3.98C234.783 4.1 234.955 4.24 235.083 4.4C235.211 4.56 235.315 4.748 235.395 4.964C235.155 5.116 234.891 5.264 234.603 5.408C234.323 5.544 234.039 5.668 233.751 5.78C233.471 5.892 233.199 5.98 232.935 6.044L232.851 5.96ZM240.514 6.8V14H238.786V6.8H240.514ZM243.31 13.52L243.598 14H240.49V13.52H243.31ZM244.102 11.792L243.634 14H241.558L241.93 13.52C242.274 13.52 242.578 13.452 242.842 13.316C243.114 13.172 243.346 12.972 243.538 12.716C243.73 12.452 243.878 12.144 243.982 11.792H244.102ZM238.81 13.244L238.87 14H237.982V13.88C237.982 13.88 238.006 13.88 238.054 13.88C238.102 13.88 238.13 13.88 238.138 13.88C238.314 13.88 238.462 13.82 238.582 13.7C238.71 13.572 238.778 13.42 238.786 13.244H238.81ZM240.49 7.556V6.8H241.318V6.92C241.31 6.92 241.282 6.92 241.234 6.92C241.194 6.92 241.174 6.92 241.174 6.92C240.998 6.92 240.846 6.98 240.718 7.1C240.59 7.22 240.522 7.372 240.514 7.556H240.49ZM238.81 7.556H238.786C238.778 7.372 238.71 7.22 238.582 7.1C238.454 6.98 238.302 6.92 238.126 6.92C238.118 6.92 238.09 6.92 238.042 6.92C238.002 6.92 237.982 6.92 237.982 6.92V6.8H238.81V7.556ZM248.945 6.644C249.585 6.644 250.165 6.732 250.685 6.908C251.205 7.076 251.653 7.324 252.029 7.652C252.405 7.98 252.693 8.376 252.893 8.84C253.101 9.304 253.205 9.828 253.205 10.412C253.205 10.988 253.101 11.508 252.893 11.972C252.693 12.428 252.405 12.82 252.029 13.148C251.653 13.476 251.205 13.728 250.685 13.904C250.165 14.072 249.585 14.156 248.945 14.156C248.313 14.156 247.737 14.072 247.217 13.904C246.697 13.728 246.249 13.476 245.873 13.148C245.497 12.82 245.209 12.428 245.009 11.972C244.809 11.508 244.709 10.988 244.709 10.412C244.709 9.828 244.809 9.304 245.009 8.84C245.209 8.376 245.497 7.98 245.873 7.652C246.249 7.324 246.697 7.076 247.217 6.908C247.737 6.732 248.313 6.644 248.945 6.644ZM248.945 13.688C249.433 13.688 249.857 13.556 250.217 13.292C250.585 13.02 250.865 12.64 251.057 12.152C251.257 11.664 251.357 11.084 251.357 10.412C251.357 9.732 251.257 9.148 251.057 8.66C250.865 8.164 250.585 7.784 250.217 7.52C249.857 7.248 249.433 7.112 248.945 7.112C248.465 7.112 248.045 7.248 247.685 7.52C247.325 7.784 247.045 8.164 246.845 8.66C246.645 9.148 246.545 9.732 246.545 10.412C246.545 11.084 246.645 11.664 246.845 12.152C247.045 12.64 247.325 13.02 247.685 13.292C248.045 13.556 248.465 13.688 248.945 13.688ZM258.198 6.644C258.566 6.644 258.934 6.668 259.302 6.716C259.678 6.756 260.026 6.82 260.346 6.908C260.674 6.988 260.95 7.084 261.174 7.196V9.104H261.078C260.95 8.592 260.758 8.192 260.502 7.904C260.254 7.616 259.966 7.412 259.638 7.292C259.31 7.172 258.954 7.112 258.57 7.112C258.01 7.112 257.538 7.244 257.154 7.508C256.77 7.772 256.478 8.156 256.278 8.66C256.086 9.156 255.99 9.756 255.99 10.46C255.99 11.124 256.078 11.696 256.254 12.176C256.43 12.656 256.69 13.028 257.034 13.292C257.378 13.556 257.794 13.688 258.282 13.688C258.538 13.688 258.782 13.648 259.014 13.568C259.246 13.48 259.45 13.356 259.626 13.196C259.802 13.028 259.926 12.824 259.998 12.584L260.01 11.144C260.01 10.984 259.962 10.864 259.866 10.784C259.778 10.704 259.65 10.664 259.482 10.664H259.314V10.556H262.398V10.664H262.242C261.89 10.664 261.718 10.824 261.726 11.144V12.74C261.558 12.964 261.298 13.184 260.946 13.4C260.594 13.616 260.178 13.796 259.698 13.94C259.218 14.084 258.694 14.156 258.126 14.156C257.326 14.148 256.63 13.996 256.038 13.7C255.446 13.396 254.986 12.964 254.658 12.404C254.33 11.844 254.166 11.172 254.166 10.388C254.166 9.604 254.33 8.936 254.658 8.384C254.986 7.824 255.45 7.396 256.05 7.1C256.65 6.796 257.366 6.644 258.198 6.644ZM266.351 6.476L269.903 13.94H267.875L265.643 8.672L266.351 6.476ZM264.095 13.208C264.007 13.424 264.019 13.592 264.131 13.712C264.243 13.824 264.367 13.88 264.503 13.88H264.599V14H262.199V13.88C262.199 13.88 262.215 13.88 262.247 13.88C262.279 13.88 262.295 13.88 262.295 13.88C262.455 13.88 262.623 13.832 262.799 13.736C262.975 13.632 263.119 13.456 263.231 13.208H264.095ZM266.351 6.476L266.375 7.916L263.771 13.964H262.883L265.691 7.928C265.707 7.88 265.743 7.796 265.799 7.676C265.855 7.548 265.915 7.408 265.979 7.256C266.043 7.096 266.103 6.948 266.159 6.812C266.215 6.668 266.247 6.556 266.255 6.476H266.351ZM267.395 11.648V12.116H264.335V11.648H267.395ZM267.575 13.208H269.555C269.675 13.456 269.823 13.632 269.999 13.736C270.175 13.832 270.343 13.88 270.503 13.88C270.503 13.88 270.519 13.88 270.551 13.88C270.583 13.88 270.599 13.88 270.599 13.88V14H267.071V13.88H267.167C267.303 13.88 267.427 13.824 267.539 13.712C267.651 13.592 267.663 13.424 267.575 13.208Z" fill="white"/>
<defs>
<linearGradient id="paint0_linear_46_320" x1="187" y1="62" x2="187" y2="14" gradientUnits="userSpaceOnUse">
<stop stop-color="#CC8F00"/>
<stop offset="1" stop-color="#FFB400"/>
</linearGradient>
</defs>
</svg>
