<svg width="311" height="77" viewBox="0 0 311 77" fill="none" xmlns="http://www.w3.org/2000/svg">
<path d="M24.2227 65.4824C23.9857 65.4824 23.8672 65.3639 23.8672 65.127C23.8672 64.9915 23.9349 64.8815 24.0703 64.7969C24.138 64.7292 24.2142 64.6615 24.2988 64.5938C24.4004 64.5091 24.485 64.4245 24.5527 64.3398C24.9759 63.8151 25.3568 63.1888 25.6953 62.4609C26.0339 61.7161 26.3893 60.7598 26.7617 59.5918C27.151 58.4238 27.6081 56.9427 28.1328 55.1484C29.0299 52.1523 30.3164 48.8092 31.9922 45.1191C33.6849 41.429 35.5553 37.8236 37.6035 34.3027C36.3171 35.9108 35.1322 37.3919 34.0488 38.7461C32.9655 40.0833 31.8822 41.4036 30.7988 42.707C29.7155 44.0104 28.5391 45.39 27.2695 46.8457C26.0169 48.2845 24.5612 49.918 22.9023 51.7461C18.9414 56.0625 15.5137 59.3633 12.6191 61.6484C9.72461 63.9167 7.2194 65.0508 5.10352 65.0508C3.37695 65.0508 2.09049 64.7122 1.24414 64.0352C0.414714 63.3581 0 62.554 0 61.623C0 60.8613 0.26237 60.3197 0.787109 59.998C1.31185 59.6595 1.83659 59.4902 2.36133 59.4902C2.64909 59.4902 2.93685 59.5833 3.22461 59.7695C3.51237 59.9557 3.65625 60.252 3.65625 60.6582C3.65625 60.9798 3.51237 61.276 3.22461 61.5469C2.93685 61.8008 2.60677 61.9277 2.23438 61.9277C2.01432 61.9277 1.79427 61.9108 1.57422 61.877C1.37109 61.8431 1.1849 61.7754 1.01562 61.6738V61.8262C1.01562 62.554 1.33724 63.1634 1.98047 63.6543C2.64062 64.1283 3.66471 64.3652 5.05273 64.3652C6.10221 64.3652 7.43099 63.9336 9.03906 63.0703C10.6641 62.1901 12.6361 60.7259 14.9551 58.6777C17.2741 56.6296 19.9993 53.8451 23.1309 50.3242C28.446 44.332 32.5 39.5924 35.293 36.1055C38.1029 32.6185 39.6432 30.6719 39.9141 30.2656C40.2188 29.8932 40.4303 29.707 40.5488 29.707C40.7012 29.707 40.7773 29.7832 40.7773 29.9355C40.7773 30.0371 40.7435 30.1471 40.6758 30.2656L40.3203 30.9258C39.8971 31.6367 39.5671 32.3223 39.3301 32.9824C39.0931 33.6257 38.873 34.3027 38.6699 35.0137C38.416 35.8939 38.1621 36.8079 37.9082 37.7559C37.6712 38.6868 37.3665 39.7617 36.9941 40.9805C36.6217 42.1823 36.1224 43.638 35.4961 45.3477C34.819 47.2096 34.1335 48.8685 33.4395 50.3242C32.7454 51.7799 31.9583 53.2865 31.0781 54.8438C30.2148 56.401 29.1569 58.2799 27.9043 60.4805C28.6999 59.5156 29.7663 58.2376 31.1035 56.6465C32.4408 55.0384 33.9303 53.278 35.5723 51.3652C37.2311 49.4355 38.9492 47.4889 40.7266 45.5254C42.5039 43.5449 44.2305 41.6914 45.9062 39.9648C48.9023 36.8503 51.6022 34.3535 54.0059 32.4746C56.4095 30.5788 58.627 29.1992 60.6582 28.3359C62.7064 27.4727 64.6868 27.0326 66.5996 27.0156C68.377 27.0156 69.7227 27.4134 70.6367 28.209C71.5508 28.9876 72.0163 30.0964 72.0332 31.5352C72.0501 32.5846 71.6777 33.7526 70.916 35.0391C70.1712 36.3086 69.1217 37.5443 67.7676 38.7461C66.4303 39.9479 64.873 40.9805 63.0957 41.8438C62.4694 42.1315 61.9954 42.2754 61.6738 42.2754C61.4876 42.2754 61.3945 42.2161 61.3945 42.0977C61.3945 41.9622 61.5384 41.8268 61.8262 41.6914C63.1973 41.1667 64.543 40.388 65.8633 39.3555C67.1836 38.3229 68.2754 37.1634 69.1387 35.877C70.002 34.5736 70.4336 33.2702 70.4336 31.9668C70.4336 30.6296 70.0697 29.597 69.3418 28.8691C68.6309 28.1243 67.6237 27.752 66.3203 27.752C64.4245 27.752 62.3594 28.2936 60.125 29.377C57.9076 30.4603 55.4108 32.1868 52.6348 34.5566C49.8587 36.9264 46.7018 40.0495 43.1641 43.9258C40.3542 47.0065 37.8066 49.8926 35.5215 52.584C33.2363 55.2585 31.2559 57.6029 29.5801 59.6172C27.9212 61.6315 26.6094 63.1888 25.6445 64.2891C25.2044 64.8138 24.8828 65.1439 24.6797 65.2793C24.4766 65.4147 24.3242 65.4824 24.2227 65.4824ZM12.8984 44.3066C11.5951 44.3066 10.3678 44.0527 9.2168 43.5449C8.06576 43.0371 7.13477 42.2669 6.42383 41.2344C5.72982 40.1849 5.38281 38.873 5.38281 37.2988C5.38281 35.7077 5.86523 34.2773 6.83008 33.0078C7.79492 31.7214 9.13216 30.7057 10.8418 29.9609C12.5684 29.2161 14.5573 28.8438 16.8086 28.8438C18.0443 28.8438 19.2122 28.9368 20.3125 29.123C21.4128 29.2923 22.623 29.6478 23.9434 30.1895C24.8066 30.5449 25.6191 30.9089 26.3809 31.2812C27.1426 31.6367 28.0059 32.0345 28.9707 32.4746C29.5462 32.7116 30.1387 32.9062 30.748 33.0586C31.3574 33.2109 31.9414 33.2871 32.5 33.2871C33.1263 33.2871 33.7695 33.1602 34.4297 32.9062C35.1068 32.6523 35.6823 32.3223 36.1562 31.916C36.444 31.6452 36.6387 31.5098 36.7402 31.5098C36.8757 31.5098 36.9434 31.5775 36.9434 31.7129C36.9434 31.8483 36.8249 32.043 36.5879 32.2969C36.1309 32.737 35.5384 33.1348 34.8105 33.4902C34.0827 33.8288 33.3379 34.0996 32.5762 34.3027C31.8314 34.4889 31.1966 34.582 30.6719 34.582C29.6224 34.582 28.4121 34.3958 27.041 34.0234C25.6699 33.6341 24.4596 33.1263 23.4102 32.5C22.0729 31.7214 20.9473 31.1458 20.0332 30.7734C19.1361 30.401 18.3405 30.1556 17.6465 30.0371C16.9525 29.9017 16.25 29.834 15.5391 29.834C13.8633 29.834 12.3145 30.1641 10.8926 30.8242C9.4707 31.4844 8.32812 32.39 7.46484 33.541C6.61849 34.6921 6.19531 35.9954 6.19531 37.4512C6.19531 39.2454 6.79622 40.735 7.99805 41.9199C9.19987 43.1048 10.7995 43.6973 12.7969 43.6973C13.9648 43.6973 15.1074 43.4518 16.2246 42.9609C17.3418 42.4531 18.2643 41.7422 18.9922 40.8281C19.737 39.9141 20.1094 38.8223 20.1094 37.5527C20.1094 36.8757 19.8809 36.2917 19.4238 35.8008C19.3053 35.9362 19.1615 36.0632 18.9922 36.1816C18.8398 36.2832 18.6536 36.334 18.4336 36.334C18.112 36.334 17.8242 36.2324 17.5703 36.0293C17.3164 35.8092 17.1895 35.5299 17.1895 35.1914C17.1895 34.9036 17.291 34.6413 17.4941 34.4043C17.7142 34.1673 18.0273 34.0488 18.4336 34.0488C19.0599 34.0488 19.627 34.362 20.1348 34.9883C20.6426 35.5977 20.8965 36.4186 20.8965 37.4512C20.8965 38.8223 20.5072 40.0241 19.7285 41.0566C18.9499 42.0723 17.9512 42.8678 16.7324 43.4434C15.5137 44.0189 14.2357 44.3066 12.8984 44.3066ZM40.2949 65.0508C39.2116 65.0508 38.416 64.7546 37.9082 64.1621C37.4173 63.5697 37.1719 62.7572 37.1719 61.7246C37.1719 60.5905 37.4089 59.3802 37.8828 58.0938C38.3737 56.8073 39.1777 55.5293 40.2949 54.2598C42.5801 51.6022 44.7129 49.8333 46.6934 48.9531C48.6908 48.056 50.5612 47.6074 52.3047 47.6074C53.1849 47.6074 53.9297 47.7936 54.5391 48.166C55.1484 48.5384 55.4531 49.0462 55.4531 49.6895C55.4531 50.1803 55.3516 50.6797 55.1484 51.1875C55.6901 50.5443 56.1471 49.9857 56.5195 49.5117C56.9089 49.0208 57.2812 48.5553 57.6367 48.1152C58.0768 48.2507 58.5846 48.3184 59.1602 48.3184C59.3971 48.3184 59.7188 48.3099 60.125 48.293C60.5312 48.276 60.8444 48.2507 61.0645 48.2168L52.5078 58.5254C51.4245 59.8118 50.6458 60.8613 50.1719 61.6738C49.6979 62.4694 49.4609 63.0872 49.4609 63.5273C49.4609 64.069 49.7233 64.3398 50.248 64.3398C51.1621 64.3398 52.11 64.0775 53.0918 63.5527C54.0736 63.0111 55.0384 62.3255 55.9863 61.4961C56.9342 60.6497 57.8229 59.778 58.6523 58.8809C59.4818 57.9668 60.2096 57.1289 60.8359 56.3672C61.4792 55.5885 61.9701 55.013 62.3086 54.6406L62.8164 55.0723C62.444 55.4954 61.9193 56.1048 61.2422 56.9004C60.5651 57.696 59.7865 58.5592 58.9062 59.4902C58.043 60.4212 57.1035 61.3099 56.0879 62.1562C55.0892 63.0026 54.0566 63.6966 52.9902 64.2383C51.9408 64.7799 50.8997 65.0508 49.8672 65.0508C48.1745 65.0508 47.3281 64.526 47.3281 63.4766C47.3281 63.0872 47.3958 62.6979 47.5312 62.3086C47.6836 61.9023 47.9798 61.3861 48.4199 60.7598C48.86 60.1165 49.5202 59.2617 50.4004 58.1953L50.1465 58.0938C48.0814 60.6328 46.1686 62.4271 44.4082 63.4766C42.6647 64.526 41.2936 65.0508 40.2949 65.0508ZM40.3965 64.2891C41.4798 64.2891 42.9102 63.6628 44.6875 62.4102C46.4648 61.1406 48.5977 59.0332 51.0859 56.0879C51.4922 55.597 51.8646 55.14 52.2031 54.7168C52.5586 54.2936 52.8971 53.8958 53.2188 53.5234C53.6081 52.931 53.9551 52.3132 54.2598 51.6699C54.5814 51.0267 54.7422 50.4427 54.7422 49.918C54.7422 49.3932 54.556 49.0124 54.1836 48.7754C53.8112 48.5215 53.4049 48.3945 52.9648 48.3945C52.1354 48.3945 50.7897 48.9954 48.9277 50.1973C47.0827 51.3822 45.0514 53.2865 42.834 55.9102C41.5645 57.4336 40.6504 58.7878 40.0918 59.9727C39.5332 61.1576 39.2539 62.1562 39.2539 62.9688C39.2539 63.849 39.6348 64.2891 40.3965 64.2891ZM60.4805 65.0508C59.5495 65.0508 58.8555 64.8646 58.3984 64.4922C57.9245 64.1198 57.6875 63.6458 57.6875 63.0703C57.6875 62.6133 57.7467 62.1647 57.8652 61.7246C57.9837 61.2676 58.2376 60.6921 58.627 59.998C59.0163 59.304 59.6087 58.373 60.4043 57.2051C61.1999 56.0202 62.2747 54.4714 63.6289 52.5586L70.1797 43.3418H68.1738C67.666 43.3418 67.4121 43.2318 67.4121 43.0117C67.4121 42.7409 67.7337 42.6055 68.377 42.6055H70.6875L75.3848 36.0039C75.6048 36.0378 75.8926 36.0716 76.248 36.1055C76.6204 36.1224 77.1452 36.1224 77.8223 36.1055C78.1608 36.1055 78.5247 36.0716 78.9141 36.0039L74.0137 42.6055H80.5645C81.0384 42.6055 81.2754 42.724 81.2754 42.9609C81.2754 43.2148 81.0638 43.3418 80.6406 43.3418H73.4551L66.752 52.3809C65.1608 54.5137 63.8828 56.2656 62.918 57.6367C61.9531 59.0078 61.2168 60.0911 60.709 60.8867C60.2181 61.6823 59.8796 62.2747 59.6934 62.6641C59.5241 63.0534 59.4395 63.3411 59.4395 63.5273C59.4395 64.0352 59.8626 64.306 60.709 64.3398C61.877 64.3229 63.0788 63.9421 64.3145 63.1973C65.5671 62.4355 66.7689 61.513 67.9199 60.4297C69.071 59.3294 70.1035 58.2546 71.0176 57.2051C71.9316 56.1387 72.6426 55.3008 73.1504 54.6914L73.709 55.123C73.2181 55.6986 72.4987 56.528 71.5508 57.6113C70.6029 58.6947 69.5111 59.8118 68.2754 60.9629C67.0566 62.097 65.7786 63.0618 64.4414 63.8574C63.1042 64.653 61.7839 65.0508 60.4805 65.0508ZM83.5352 65.0508C82.7565 65.0508 81.9948 64.873 81.25 64.5176C80.5221 64.1621 80.1582 63.6882 80.1582 63.0957C80.1582 62.6387 80.2598 62.1055 80.4629 61.4961C80.6829 60.8698 81.1738 60.015 81.9355 58.9316C82.6973 57.8483 83.9076 56.3757 85.5664 54.5137C86.9036 53.0072 87.8262 51.8392 88.334 51.0098C88.8418 50.1803 89.0957 49.5625 89.0957 49.1562C89.0957 48.9193 89.0111 48.7077 88.8418 48.5215C88.6895 48.3353 88.3763 48.2422 87.9023 48.2422C87.513 48.2422 86.9798 48.3522 86.3027 48.5723C85.6426 48.7923 84.9147 49.1647 84.1191 49.6895C82.7819 50.6035 81.123 52.0169 79.1426 53.9297C77.1621 55.8255 74.9277 58.3223 72.4395 61.4199L70.1035 64.5176C69.8327 64.4668 69.5788 64.4329 69.3418 64.416C69.1048 64.3991 68.8678 64.3906 68.6309 64.3906C68.0215 64.3906 67.5137 64.4245 67.1074 64.4922C66.6842 64.543 66.3796 64.5938 66.1934 64.6445L94.3008 24.502C94.5208 24.5189 94.8086 24.5443 95.1641 24.5781C95.5365 24.612 96.0612 24.6204 96.7383 24.6035C96.8737 24.6035 97.0345 24.5951 97.2207 24.5781C97.4069 24.5443 97.61 24.5189 97.8301 24.502L72.6426 59.4648L72.7695 59.7441C75.3594 56.765 77.5599 54.429 79.3711 52.7363C81.1823 51.0267 82.6888 49.7656 83.8906 48.9531C84.737 48.4115 85.5156 48.056 86.2266 47.8867C86.9544 47.7005 87.5892 47.6074 88.1309 47.6074C89.2311 47.6074 90.0098 47.8783 90.4668 48.4199C90.9408 48.9447 91.1608 49.5286 91.127 50.1719C91.0931 50.849 90.8646 51.6615 90.4414 52.6094C90.0182 53.5404 89.2819 54.7083 88.2324 56.1133C87.1999 57.5013 85.7357 59.2194 83.8398 61.2676C82.9935 62.1816 82.4772 62.7741 82.291 63.0449C82.1217 63.2988 82.0371 63.5358 82.0371 63.7559C82.0371 63.9251 82.2233 64.069 82.5957 64.1875C82.9681 64.2891 83.3828 64.3398 83.8398 64.3398C84.9062 64.3398 85.9811 64.0436 87.0645 63.4512C88.1647 62.8587 89.2227 62.1139 90.2383 61.2168C91.2539 60.3197 92.1764 59.4056 93.0059 58.4746C93.8353 57.5436 94.5293 56.7311 95.0879 56.0371C95.6634 55.3262 96.0358 54.8776 96.2051 54.6914L96.7637 55.123C96.5436 55.3431 96.1374 55.8255 95.5449 56.5703C94.9694 57.2982 94.2415 58.1445 93.3613 59.1094C92.4811 60.0573 91.5078 60.9883 90.4414 61.9023C89.375 62.7995 88.2493 63.5527 87.0645 64.1621C85.8965 64.7546 84.7201 65.0508 83.5352 65.0508ZM96.002 65.0508C94.9186 65.0508 94.123 64.7546 93.6152 64.1621C93.1243 63.5697 92.8789 62.7572 92.8789 61.7246C92.8789 60.5905 93.1159 59.3802 93.5898 58.0938C94.0807 56.8073 94.8848 55.5293 96.002 54.2598C98.2871 51.6022 100.42 49.8333 102.4 48.9531C104.398 48.056 106.268 47.6074 108.012 47.6074C108.892 47.6074 109.637 47.7936 110.246 48.166C110.855 48.5384 111.16 49.0462 111.16 49.6895C111.16 50.1803 111.059 50.6797 110.855 51.1875C111.397 50.5443 111.854 49.9857 112.227 49.5117C112.616 49.0208 112.988 48.5553 113.344 48.1152C113.784 48.2507 114.292 48.3184 114.867 48.3184C115.104 48.3184 115.426 48.3099 115.832 48.293C116.238 48.276 116.551 48.2507 116.771 48.2168L108.215 58.5254C107.132 59.8118 106.353 60.8613 105.879 61.6738C105.405 62.4694 105.168 63.0872 105.168 63.5273C105.168 64.069 105.43 64.3398 105.955 64.3398C106.869 64.3398 107.817 64.0775 108.799 63.5527C109.781 63.0111 110.745 62.3255 111.693 61.4961C112.641 60.6497 113.53 59.778 114.359 58.8809C115.189 57.9668 115.917 57.1289 116.543 56.3672C117.186 55.5885 117.677 55.013 118.016 54.6406L118.523 55.0723C118.151 55.4954 117.626 56.1048 116.949 56.9004C116.272 57.696 115.493 58.5592 114.613 59.4902C113.75 60.4212 112.811 61.3099 111.795 62.1562C110.796 63.0026 109.764 63.6966 108.697 64.2383C107.648 64.7799 106.607 65.0508 105.574 65.0508C103.882 65.0508 103.035 64.526 103.035 63.4766C103.035 63.0872 103.103 62.6979 103.238 62.3086C103.391 61.9023 103.687 61.3861 104.127 60.7598C104.567 60.1165 105.227 59.2617 106.107 58.1953L105.854 58.0938C103.788 60.6328 101.876 62.4271 100.115 63.4766C98.3717 64.526 97.0007 65.0508 96.002 65.0508ZM96.1035 64.2891C97.1868 64.2891 98.6172 63.6628 100.395 62.4102C102.172 61.1406 104.305 59.0332 106.793 56.0879C107.199 55.597 107.572 55.14 107.91 54.7168C108.266 54.2936 108.604 53.8958 108.926 53.5234C109.315 52.931 109.662 52.3132 109.967 51.6699C110.288 51.0267 110.449 50.4427 110.449 49.918C110.449 49.3932 110.263 49.0124 109.891 48.7754C109.518 48.5215 109.112 48.3945 108.672 48.3945C107.842 48.3945 106.497 48.9954 104.635 50.1973C102.79 51.3822 100.758 53.2865 98.541 55.9102C97.2715 57.4336 96.3574 58.7878 95.7988 59.9727C95.2402 61.1576 94.9609 62.1562 94.9609 62.9688C94.9609 63.849 95.3418 64.2891 96.1035 64.2891ZM111.135 44.4844C110.932 44.4844 110.83 44.3997 110.83 44.2305C110.83 44.1289 110.881 44.0527 110.982 44.002C111.084 43.9342 111.245 43.8242 111.465 43.6719C111.956 43.3841 112.506 42.9948 113.115 42.5039C113.725 41.9961 114.232 41.4206 114.639 40.7773C114.876 40.3711 115.07 39.8971 115.223 39.3555C115.375 38.8138 115.519 38.069 115.654 37.1211C115.807 35.9193 116.255 35.3184 117 35.3184C117.728 35.3184 118.092 35.7839 118.092 36.7148C118.092 37.3411 117.838 38.0944 117.33 38.9746C116.839 39.8379 116.162 40.7096 115.299 41.5898C114.452 42.4701 113.479 43.2402 112.379 43.9004C111.753 44.2897 111.338 44.4844 111.135 44.4844ZM116.137 65.0508C115.426 65.0508 114.842 64.8561 114.385 64.4668C113.911 64.0605 113.674 63.5697 113.674 62.9941C113.674 62.5371 113.733 62.097 113.852 61.6738C113.953 61.2337 114.199 60.6751 114.588 59.998C114.96 59.304 115.536 58.373 116.314 57.2051C117.093 56.0371 118.151 54.4883 119.488 52.5586L139.115 24.502C139.352 24.5189 139.648 24.5443 140.004 24.5781C140.376 24.612 140.901 24.6204 141.578 24.6035C141.714 24.6035 141.866 24.5951 142.035 24.5781C142.221 24.5443 142.424 24.5189 142.645 24.502L121.773 53.4727C120.25 55.6055 119.057 57.2982 118.193 58.5508C117.33 59.7865 116.695 60.7344 116.289 61.3945C115.883 62.0378 115.629 62.5033 115.527 62.791C115.426 63.0618 115.375 63.2988 115.375 63.502C115.375 64.0605 115.773 64.3398 116.568 64.3398C117.567 64.3398 118.617 64.0436 119.717 63.4512C120.834 62.8587 121.934 62.1224 123.018 61.2422C124.101 60.3451 125.1 59.431 126.014 58.5C126.928 57.569 127.698 56.748 128.324 56.0371C128.967 55.3262 129.391 54.8776 129.594 54.6914L130.102 55.123C129.882 55.3431 129.441 55.8171 128.781 56.5449C128.121 57.2728 127.309 58.1191 126.344 59.084C125.379 60.0319 124.321 60.9629 123.17 61.877C122.036 62.791 120.859 63.5527 119.641 64.1621C118.439 64.7546 117.271 65.0508 116.137 65.0508ZM141.096 42.7578C140.622 42.7578 140.241 42.6139 139.953 42.3262C139.682 42.0215 139.547 41.6406 139.547 41.1836C139.547 40.5911 139.792 40.0495 140.283 39.5586C140.791 39.0508 141.392 38.7969 142.086 38.7969C142.56 38.7969 142.932 38.9577 143.203 39.2793C143.491 39.584 143.635 39.9564 143.635 40.3965C143.635 41.0228 143.364 41.5729 142.822 42.0469C142.298 42.5208 141.722 42.7578 141.096 42.7578ZM128.121 65.0508C127.089 65.0508 126.259 64.8646 125.633 64.4922C124.99 64.1029 124.668 63.5866 124.668 62.9434C124.668 62.4355 124.795 61.8516 125.049 61.1914C125.303 60.5143 125.794 59.6341 126.521 58.5508C127.232 57.4674 128.273 56.0625 129.645 54.3359C131.033 52.5924 132.852 50.4089 135.104 47.7852C135.256 47.8021 135.62 47.819 136.195 47.8359C136.771 47.8529 137.219 47.8613 137.541 47.8613C137.829 47.8613 138.04 47.8613 138.176 47.8613C138.328 47.8444 138.472 47.8275 138.607 47.8105C136.136 50.722 134.113 53.1172 132.539 54.9961C130.982 56.875 129.78 58.373 128.934 59.4902C128.087 60.6074 127.503 61.4622 127.182 62.0547C126.86 62.6471 126.699 63.1211 126.699 63.4766C126.699 63.9167 126.936 64.1706 127.41 64.2383C127.884 64.306 128.265 64.3398 128.553 64.3398C129.467 64.3398 130.465 64.0352 131.549 63.4258C132.632 62.7995 133.707 62.0293 134.773 61.1152C135.857 60.1842 136.855 59.2448 137.77 58.2969C138.701 57.349 139.462 56.5365 140.055 55.8594C140.647 55.1654 140.994 54.7676 141.096 54.666L141.604 55.123C141.417 55.3262 141.011 55.7917 140.385 56.5195C139.758 57.2474 138.98 58.0938 138.049 59.0586C137.118 60.0065 136.094 60.9375 134.977 61.8516C133.876 62.7656 132.734 63.5273 131.549 64.1367C130.381 64.7461 129.238 65.0508 128.121 65.0508ZM140.842 65.0508C139.758 65.0508 138.963 64.7546 138.455 64.1621C137.964 63.5697 137.719 62.7572 137.719 61.7246C137.719 60.5905 137.956 59.3802 138.43 58.0938C138.921 56.8073 139.725 55.5293 140.842 54.2598C143.127 51.6022 145.26 49.8333 147.24 48.9531C149.238 48.056 151.108 47.6074 152.852 47.6074C153.732 47.6074 154.477 47.7936 155.086 48.166C155.695 48.5384 156 49.0462 156 49.6895C156 50.1803 155.898 50.6797 155.695 51.1875C156.237 50.5443 156.694 49.9857 157.066 49.5117C157.456 49.0208 157.828 48.5553 158.184 48.1152C158.624 48.2507 159.132 48.3184 159.707 48.3184C159.944 48.3184 160.266 48.3099 160.672 48.293C161.078 48.276 161.391 48.2507 161.611 48.2168L153.055 58.5254C151.971 59.8118 151.193 60.8613 150.719 61.6738C150.245 62.4694 150.008 63.0872 150.008 63.5273C150.008 64.069 150.27 64.3398 150.795 64.3398C151.709 64.3398 152.657 64.0775 153.639 63.5527C154.62 63.0111 155.585 62.3255 156.533 61.4961C157.481 60.6497 158.37 59.778 159.199 58.8809C160.029 57.9668 160.757 57.1289 161.383 56.3672C162.026 55.5885 162.517 55.013 162.855 54.6406L163.363 55.0723C162.991 55.4954 162.466 56.1048 161.789 56.9004C161.112 57.696 160.333 58.5592 159.453 59.4902C158.59 60.4212 157.65 61.3099 156.635 62.1562C155.636 63.0026 154.604 63.6966 153.537 64.2383C152.488 64.7799 151.447 65.0508 150.414 65.0508C148.721 65.0508 147.875 64.526 147.875 63.4766C147.875 63.0872 147.943 62.6979 148.078 62.3086C148.23 61.9023 148.527 61.3861 148.967 60.7598C149.407 60.1165 150.067 59.2617 150.947 58.1953L150.693 58.0938C148.628 60.6328 146.715 62.4271 144.955 63.4766C143.212 64.526 141.84 65.0508 140.842 65.0508ZM140.943 64.2891C142.027 64.2891 143.457 63.6628 145.234 62.4102C147.012 61.1406 149.145 59.0332 151.633 56.0879C152.039 55.597 152.411 55.14 152.75 54.7168C153.105 54.2936 153.444 53.8958 153.766 53.5234C154.155 52.931 154.502 52.3132 154.807 51.6699C155.128 51.0267 155.289 50.4427 155.289 49.918C155.289 49.3932 155.103 49.0124 154.73 48.7754C154.358 48.5215 153.952 48.3945 153.512 48.3945C152.682 48.3945 151.337 48.9954 149.475 50.1973C147.63 51.3822 145.598 53.2865 143.381 55.9102C142.111 57.4336 141.197 58.7878 140.639 59.9727C140.08 61.1576 139.801 62.1562 139.801 62.9688C139.801 63.849 140.182 64.2891 140.943 64.2891ZM206.73 65.0508C205.698 65.0508 204.928 64.8223 204.42 64.3652C203.912 63.8913 203.658 63.3158 203.658 62.6387C203.658 62.1478 203.878 61.3691 204.318 60.3027C204.758 59.2363 205.673 57.6536 207.061 55.5547C208.686 53.1341 210.514 50.6966 212.545 48.2422C214.576 45.7708 216.65 43.3757 218.766 41.0566C220.898 38.7376 222.947 36.571 224.91 34.5566C226.891 32.5423 228.643 30.7819 230.166 29.2754C229.404 29.8171 228.558 30.4772 227.627 31.2559C226.696 32.0345 225.553 33.0417 224.199 34.2773C222.845 35.4961 221.178 37.0365 219.197 38.8984C217.217 40.7604 214.805 43.054 211.961 45.7793C210.539 47.1335 208.474 49.207 205.766 52C203.074 54.793 199.909 58.3138 196.27 62.5625C195.389 63.5951 194.78 64.2298 194.441 64.4668C194.12 64.7038 193.866 64.8223 193.68 64.8223C193.561 64.8223 193.434 64.7376 193.299 64.5684C193.18 64.3991 193.121 64.1283 193.121 63.7559C193.121 62.334 193.612 60.472 194.594 58.1699C195.576 55.8509 196.964 53.2357 198.758 50.3242C200.569 47.3958 202.71 44.2982 205.182 41.0312C207.653 37.7643 210.37 34.4551 213.332 31.1035C212.384 31.9668 210.649 33.7018 208.127 36.3086C205.622 38.9154 202.143 42.6647 197.691 47.5566C193.832 51.7884 190.362 55.2077 187.281 57.8145C184.201 60.4043 181.475 62.3001 179.105 63.502C177.074 64.5176 175.28 65.0254 173.723 65.0254C172.132 65.0254 170.938 64.7207 170.143 64.1113C169.347 63.502 168.949 62.7233 168.949 61.7754C168.949 60.9967 169.212 60.4212 169.736 60.0488C170.261 59.6595 170.786 59.4648 171.311 59.4648C171.581 59.4648 171.861 59.5579 172.148 59.7441C172.453 59.9303 172.605 60.2266 172.605 60.6328C172.605 60.9544 172.462 61.2507 172.174 61.5215C171.886 61.7754 171.548 61.9023 171.158 61.9023C170.938 61.9023 170.718 61.8854 170.498 61.8516C170.295 61.8177 170.109 61.7415 169.939 61.623C169.939 61.6908 169.931 61.75 169.914 61.8008C169.914 61.8516 169.914 61.8939 169.914 61.9277C169.914 62.6556 170.236 63.2396 170.879 63.6797C171.522 64.1198 172.462 64.3398 173.697 64.3398C174.95 64.3398 176.389 63.9674 178.014 63.2227C179.656 62.4779 181.585 61.2422 183.803 59.5156C186.037 57.7721 188.661 55.4277 191.674 52.4824C194.687 49.5371 198.199 45.8724 202.211 41.4883C205.579 37.8151 208.339 34.9544 210.488 32.9062C212.655 30.8411 214.28 29.3939 215.363 28.5645C216.464 27.735 217.09 27.3203 217.242 27.3203C217.361 27.3203 217.505 27.3457 217.674 27.3965C217.843 27.4303 217.928 27.4896 217.928 27.5742C217.928 27.6758 217.801 27.8366 217.547 28.0566C217.378 28.209 217.166 28.3952 216.912 28.6152C216.675 28.8353 216.379 29.123 216.023 29.4785C215.583 29.9525 214.906 30.8327 213.992 32.1191C213.095 33.3887 212.046 34.929 210.844 36.7402C209.659 38.5345 208.389 40.4811 207.035 42.5801C205.698 44.679 204.369 46.7949 203.049 48.9277C201.729 51.0605 200.484 53.0833 199.316 54.9961C198.165 56.9089 197.167 58.6016 196.32 60.0742C195.491 61.5299 194.898 62.6217 194.543 63.3496C196.388 61.2168 198.055 59.304 199.545 57.6113C201.051 55.9186 202.49 54.3359 203.861 52.8633C205.249 51.3737 206.663 49.8926 208.102 48.4199C209.557 46.9473 211.148 45.3815 212.875 43.7227C214.602 42.0469 216.565 40.168 218.766 38.0859C221.694 35.3607 224.132 33.2109 226.078 31.6367C228.042 30.0456 229.607 28.9199 230.775 28.2598C231.943 27.5827 232.79 27.2441 233.314 27.2441C233.484 27.2441 233.568 27.3118 233.568 27.4473C233.568 27.5658 233.348 27.7773 232.908 28.082C232.468 28.3867 231.994 28.7591 231.486 29.1992C229.811 30.6719 227.991 32.5592 226.027 34.8613C224.081 37.1465 222.083 39.6517 220.035 42.377C217.987 45.1022 215.964 47.8698 213.967 50.6797C211.969 53.4896 210.09 56.1471 208.33 58.6523C207.535 59.8203 206.942 60.709 206.553 61.3184C206.18 61.9108 205.943 62.3424 205.842 62.6133C205.74 62.8672 205.689 63.0957 205.689 63.2988C205.689 64.0098 206.18 64.3652 207.162 64.3652C207.653 64.3652 208.313 64.2467 209.143 64.0098C209.989 63.7559 210.869 63.4004 211.783 62.9434C212.697 62.4694 213.493 61.9023 214.17 61.2422C214.255 61.276 214.297 61.3861 214.297 61.5723C214.297 61.8262 214.255 62.0208 214.17 62.1562C213.442 62.7656 212.604 63.2904 211.656 63.7305C210.708 64.1536 209.794 64.4837 208.914 64.7207C208.034 64.9408 207.306 65.0508 206.73 65.0508ZM221.152 65.0508C219.73 65.0508 218.681 64.7292 218.004 64.0859C217.327 63.4258 216.946 62.6217 216.861 61.6738C216.811 60.5228 217.048 59.2871 217.572 57.9668C218.114 56.6465 218.698 55.5378 219.324 54.6406C220.154 53.4727 221.161 52.3555 222.346 51.2891C223.531 50.2057 224.826 49.3255 226.23 48.6484C227.652 47.9544 229.108 47.6074 230.598 47.6074C231.495 47.6074 232.265 47.8444 232.908 48.3184C233.568 48.7754 233.932 49.5117 234 50.5273C234.085 51.9661 233.805 53.4811 233.162 55.0723C232.519 56.6465 231.647 58.1107 230.547 59.4648C230.665 59.9557 231.046 60.2012 231.689 60.2012C232.316 60.2012 233.001 59.9557 233.746 59.4648C234.491 58.957 235.21 58.3646 235.904 57.6875C236.615 57.0104 237.225 56.3841 237.732 55.8086C238.24 55.2331 238.579 54.8607 238.748 54.6914L239.307 55.123C238.985 55.4277 238.528 55.9017 237.936 56.5449C237.343 57.1712 236.683 57.8229 235.955 58.5C235.244 59.1602 234.508 59.7272 233.746 60.2012C233.001 60.6751 232.299 60.9121 231.639 60.9121C230.826 60.9121 230.276 60.6582 229.988 60.1504C228.736 61.5723 227.322 62.7487 225.748 63.6797C224.191 64.5938 222.659 65.0508 221.152 65.0508ZM221.812 64.2891C222.405 64.2891 223.09 64.1198 223.869 63.7812C224.648 63.4427 225.426 62.9941 226.205 62.4355C227.508 61.5046 228.685 60.4128 229.734 59.1602V59.0586C229.734 58.0091 230.005 57.1797 230.547 56.5703C231.105 55.944 231.647 55.5462 232.172 55.377C233.001 53.6504 233.374 52.1016 233.289 50.7305C233.238 49.901 233.018 49.3255 232.629 49.0039C232.257 48.6823 231.842 48.5215 231.385 48.5215C230.403 48.5215 229.193 49.1055 227.754 50.2734C226.332 51.4245 224.741 53.0918 222.98 55.2754C221.728 56.8496 220.848 58.1784 220.34 59.2617C219.849 60.3451 219.637 61.2845 219.705 62.0801C219.705 62.5371 219.857 63.0195 220.162 63.5273C220.484 64.0352 221.034 64.2891 221.812 64.2891ZM242.836 65.0508C241.888 65.0508 241.118 64.8138 240.525 64.3398C239.933 63.849 239.637 63.2142 239.637 62.4355C239.637 61.0814 240.627 59.4479 242.607 57.5352C244.588 55.6224 247.271 53.5319 250.656 51.2637C248.93 50.9759 247.44 50.6882 246.188 50.4004C244.952 50.1126 243.962 49.7995 243.217 49.4609C242.878 50.138 242.387 50.9674 241.744 51.9492C241.101 52.931 240.28 53.9889 239.281 55.123C238.604 55.9186 238.096 56.4772 237.758 56.7988C237.419 57.1204 237.182 57.3151 237.047 57.3828C236.928 57.4336 236.861 57.4759 236.844 57.5098C236.793 57.5267 236.759 57.4759 236.742 57.3574C236.742 57.2389 236.751 57.1458 236.768 57.0781C236.768 57.0104 236.895 56.8496 237.148 56.5957C237.402 56.3418 237.936 55.707 238.748 54.6914C239.594 53.625 240.348 52.6094 241.008 51.6445C241.668 50.6797 242.176 49.8333 242.531 49.1055C241.922 48.7161 241.566 48.2845 241.465 47.8105C241.329 46.998 241.49 46.2617 241.947 45.6016C242.404 44.9414 242.997 44.6113 243.725 44.6113C244.622 44.6113 245.07 45.0007 245.07 45.7793C245.07 46.1686 244.994 46.4987 244.842 46.7695C244.689 47.0404 244.537 47.3027 244.385 47.5566C244.08 47.9121 243.928 48.3607 243.928 48.9023C243.928 49.0716 244.215 49.2578 244.791 49.4609C245.383 49.6471 246.103 49.8333 246.949 50.0195C247.812 50.1888 248.659 50.3411 249.488 50.4766C250.318 50.5951 250.969 50.6712 251.443 50.7051C251.765 50.722 251.96 50.7812 252.027 50.8828C252.112 50.9674 252.154 51.0352 252.154 51.0859C252.154 51.2552 251.909 51.5345 251.418 51.9238C250.487 52.6348 249.531 53.498 248.549 54.5137C247.567 55.5124 246.653 56.5534 245.807 57.6367C244.96 58.7031 244.275 59.7103 243.75 60.6582C243.225 61.6061 242.963 62.3848 242.963 62.9941C242.963 63.7897 243.285 64.1875 243.928 64.1875C244.757 64.1875 245.663 63.9082 246.645 63.3496C247.626 62.791 248.617 62.0885 249.615 61.2422C250.631 60.3958 251.579 59.5241 252.459 58.627C253.356 57.7129 254.126 56.9004 254.77 56.1895C255.413 55.4616 255.861 54.9622 256.115 54.6914L256.623 55.123C256.251 55.4785 255.717 56.0456 255.023 56.8242C254.346 57.5859 253.551 58.4408 252.637 59.3887C251.723 60.3197 250.724 61.2168 249.641 62.0801C248.574 62.9434 247.465 63.6543 246.314 64.2129C245.163 64.7715 244.004 65.0508 242.836 65.0508ZM255.861 65.0508C254.778 65.0508 253.982 64.7546 253.475 64.1621C252.984 63.5697 252.738 62.7572 252.738 61.7246C252.738 60.5905 252.975 59.3802 253.449 58.0938C253.94 56.8073 254.744 55.5293 255.861 54.2598C258.146 51.6022 260.279 49.8333 262.26 48.9531C264.257 48.056 266.128 47.6074 267.871 47.6074C268.751 47.6074 269.496 47.7936 270.105 48.166C270.715 48.5384 271.02 49.0462 271.02 49.6895C271.02 50.1803 270.918 50.6797 270.715 51.1875C271.257 50.5443 271.714 49.9857 272.086 49.5117C272.475 49.0208 272.848 48.5553 273.203 48.1152C273.643 48.2507 274.151 48.3184 274.727 48.3184C274.964 48.3184 275.285 48.3099 275.691 48.293C276.098 48.276 276.411 48.2507 276.631 48.2168L268.074 58.5254C266.991 59.8118 266.212 60.8613 265.738 61.6738C265.264 62.4694 265.027 63.0872 265.027 63.5273C265.027 64.069 265.29 64.3398 265.814 64.3398C266.729 64.3398 267.676 64.0775 268.658 63.5527C269.64 63.0111 270.605 62.3255 271.553 61.4961C272.501 60.6497 273.389 59.778 274.219 58.8809C275.048 57.9668 275.776 57.1289 276.402 56.3672C277.046 55.5885 277.536 55.013 277.875 54.6406L278.383 55.0723C278.01 55.4954 277.486 56.1048 276.809 56.9004C276.132 57.696 275.353 58.5592 274.473 59.4902C273.609 60.4212 272.67 61.3099 271.654 62.1562C270.656 63.0026 269.623 63.6966 268.557 64.2383C267.507 64.7799 266.466 65.0508 265.434 65.0508C263.741 65.0508 262.895 64.526 262.895 63.4766C262.895 63.0872 262.962 62.6979 263.098 62.3086C263.25 61.9023 263.546 61.3861 263.986 60.7598C264.426 60.1165 265.087 59.2617 265.967 58.1953L265.713 58.0938C263.648 60.6328 261.735 62.4271 259.975 63.4766C258.231 64.526 256.86 65.0508 255.861 65.0508ZM255.963 64.2891C257.046 64.2891 258.477 63.6628 260.254 62.4102C262.031 61.1406 264.164 59.0332 266.652 56.0879C267.059 55.597 267.431 55.14 267.77 54.7168C268.125 54.2936 268.464 53.8958 268.785 53.5234C269.174 52.931 269.521 52.3132 269.826 51.6699C270.148 51.0267 270.309 50.4427 270.309 49.918C270.309 49.3932 270.122 49.0124 269.75 48.7754C269.378 48.5215 268.971 48.3945 268.531 48.3945C267.702 48.3945 266.356 48.9954 264.494 50.1973C262.649 51.3822 260.618 53.2865 258.4 55.9102C257.131 57.4336 256.217 58.7878 255.658 59.9727C255.1 61.1576 254.82 62.1562 254.82 62.9688C254.82 63.849 255.201 64.2891 255.963 64.2891ZM279.678 65.1523C278.019 65.1523 276.834 64.7207 276.123 63.8574C275.412 62.9941 275.04 61.9362 275.006 60.6836C274.989 59.7695 275.175 58.7539 275.564 57.6367C275.954 56.5195 276.36 55.6647 276.783 55.0723C278.036 53.3288 279.39 51.9069 280.846 50.8066C282.301 49.7064 283.723 48.9023 285.111 48.3945C286.516 47.8698 287.752 47.6074 288.818 47.6074C289.851 47.6074 290.57 47.7767 290.977 48.1152C291.4 48.4538 291.62 48.8431 291.637 49.2832C291.688 49.9434 291.332 50.7135 290.57 51.5938C289.826 52.457 288.514 53.3965 286.635 54.4121C284.756 55.4277 282.132 56.4941 278.764 57.6113C278.171 58.5592 277.773 59.3802 277.57 60.0742C277.367 60.7513 277.266 61.3607 277.266 61.9023C277.266 62.6979 277.528 63.3158 278.053 63.7559C278.594 64.196 279.229 64.416 279.957 64.416C281.548 64.416 283.038 64.1198 284.426 63.5273C285.831 62.918 287.109 62.1562 288.26 61.2422C289.428 60.3281 290.452 59.4056 291.332 58.4746C292.212 57.5267 292.932 56.7057 293.49 56.0117C294.049 55.3008 294.421 54.8607 294.607 54.6914L295.141 55.123C294.887 55.3431 294.455 55.8255 293.846 56.5703C293.253 57.3151 292.492 58.1699 291.561 59.1348C290.646 60.0996 289.589 61.0391 288.387 61.9531C287.185 62.8672 285.848 63.6289 284.375 64.2383C282.919 64.8477 281.354 65.1523 279.678 65.1523ZM279.348 56.7227C282.632 55.5716 285.221 54.3867 287.117 53.168C289.013 51.9323 289.961 50.7559 289.961 49.6387C289.961 48.6908 289.521 48.2168 288.641 48.2168C287.507 48.2168 286.279 48.8262 284.959 50.0449C283.639 51.2637 282.098 53.0326 280.338 55.3516C279.965 55.8255 279.635 56.2826 279.348 56.7227ZM293.211 65.584C292.686 65.584 292.009 65.5163 291.18 65.3809C290.35 65.2454 289.614 64.9577 288.971 64.5176C288.311 64.0775 287.98 63.3919 287.98 62.4609C287.98 61.6146 288.243 60.9206 288.768 60.3789C289.275 59.8203 289.842 59.4056 290.469 59.1348C291.095 58.8639 291.561 58.7285 291.865 58.7285C292.559 58.7285 292.906 59.0501 292.906 59.6934C292.889 59.9642 292.695 60.2181 292.322 60.4551C291.967 60.6751 291.569 60.7852 291.129 60.7852C290.926 60.7852 290.731 60.7174 290.545 60.582C290.342 60.4297 290.181 60.3197 290.062 60.252C289.876 60.4382 289.597 60.7174 289.225 61.0898C288.835 61.4453 288.641 61.9108 288.641 62.4863C288.641 63.1296 288.903 63.612 289.428 63.9336C289.936 64.2383 290.511 64.4414 291.154 64.543C291.798 64.6276 292.288 64.6699 292.627 64.6699C293.338 64.6699 294.227 64.3906 295.293 63.832C296.359 63.2565 297.35 62.3001 298.264 60.9629C299.195 59.6257 299.796 57.806 300.066 55.5039C300.151 54.6914 300.227 53.5658 300.295 52.127C300.38 50.6882 300.65 49.3086 301.107 47.9883C301.124 47.9375 301.133 47.8613 301.133 47.7598C300.49 48.5553 299.796 49.4102 299.051 50.3242C298.306 51.2383 297.587 52.1185 296.893 52.9648C296.215 53.8112 295.632 54.5306 295.141 55.123C294.802 55.5293 294.557 55.7917 294.404 55.9102C294.252 56.0286 294.184 56.0879 294.201 56.0879C294.184 56.0879 294.117 56.0964 293.998 56.1133C293.896 56.1133 293.812 56.054 293.744 55.9355C293.71 55.8509 293.786 55.6901 293.973 55.4531C294.176 55.2161 294.387 54.9622 294.607 54.6914C294.997 54.2513 295.598 53.5488 296.41 52.584C297.223 51.6191 298.077 50.5866 298.975 49.4863C299.889 48.3861 300.676 47.4128 301.336 46.5664C301.438 46.0586 301.59 45.6016 301.793 45.1953C301.996 44.7891 302.284 44.5859 302.656 44.5859C303.333 44.5859 303.672 44.8652 303.672 45.4238C303.655 45.7454 303.266 46.3464 302.504 47.2266C302.047 47.7682 301.801 48.1237 301.768 48.293C301.734 48.4453 301.717 48.6484 301.717 48.9023C301.7 49.5117 301.759 50.2734 301.895 51.1875C302.047 52.0846 302.208 53.0326 302.377 54.0312C302.546 55.013 302.656 55.9525 302.707 56.8496C302.758 58.1868 302.605 59.3464 302.25 60.3281C302.521 60.362 302.749 60.3789 302.936 60.3789C303.477 60.3789 304.095 60.1335 304.789 59.6426C305.5 59.1517 306.202 58.5677 306.896 57.8906C307.59 57.2135 308.191 56.5703 308.699 55.9609C309.224 55.3516 309.571 54.9284 309.74 54.6914L310.299 55.123C310.011 55.4277 309.588 55.9017 309.029 56.5449C308.471 57.1712 307.836 57.8314 307.125 58.5254C306.414 59.2025 305.686 59.7865 304.941 60.2773C304.214 60.7513 303.52 60.9883 302.859 60.9883C302.707 60.9883 302.563 60.9883 302.428 60.9883C302.292 60.9714 302.157 60.9544 302.021 60.9375C301.226 62.6979 300.049 63.9167 298.492 64.5938C296.935 65.2539 295.174 65.584 293.211 65.584Z" fill="url(#paint0_linear_59_9)"/>
<path d="M45.304 3.8V15H42.904V3.8H45.304ZM49.528 14.312L49.912 15H45.256V14.312H49.528ZM48.936 9.144V9.816H45.256V9.144H48.936ZM49.72 3.8V4.488H45.256V3.8H49.72ZM50.696 11.72L49.96 15H46.824L47.4 14.312C47.9333 14.312 48.4027 14.2107 48.808 14.008C49.2133 13.7947 49.56 13.496 49.848 13.112C50.136 12.7173 50.3653 12.2533 50.536 11.72H50.696ZM48.936 9.784V11.32H48.776V11.192C48.776 10.7973 48.648 10.472 48.392 10.216C48.136 9.96 47.8107 9.82667 47.416 9.816V9.784H48.936ZM48.936 7.64V9.176H47.416V9.144C47.8107 9.13333 48.136 9 48.392 8.744C48.648 8.47733 48.776 8.14667 48.776 7.752V7.64H48.936ZM49.72 4.44V6.312H49.56V6.12C49.56 5.62933 49.4107 5.23467 49.112 4.936C48.824 4.63733 48.4293 4.48267 47.928 4.472V4.44H49.72ZM49.72 3.512V3.976L47.768 3.8C48.0027 3.8 48.248 3.784 48.504 3.752C48.7707 3.72 49.016 3.68267 49.24 3.64C49.464 3.59733 49.624 3.55467 49.72 3.512ZM42.952 13.832V15H41.672V14.84C41.672 14.84 41.704 14.84 41.768 14.84C41.8427 14.84 41.88 14.84 41.88 14.84C42.1573 14.84 42.392 14.744 42.584 14.552C42.7867 14.3493 42.8933 14.1093 42.904 13.832H42.952ZM42.952 4.968H42.904C42.8933 4.69067 42.7867 4.456 42.584 4.264C42.392 4.06133 42.1573 3.96 41.88 3.96C41.88 3.96 41.8427 3.96 41.768 3.96C41.704 3.96 41.672 3.96 41.672 3.96V3.8H42.952V4.968ZM55.2374 5.192C55.4507 5.192 55.7067 5.20267 56.0054 5.224C56.3147 5.24533 56.6187 5.272 56.9174 5.304C57.216 5.32533 57.4774 5.35733 57.7014 5.4C57.936 5.432 58.096 5.464 58.1814 5.496L57.9734 7.448H57.8294C57.8294 6.95733 57.6587 6.568 57.3174 6.28C56.976 5.992 56.4854 5.848 55.8454 5.848C55.3334 5.848 54.9174 5.96 54.5974 6.184C54.288 6.408 54.1227 6.70667 54.1014 7.08C54.08 7.272 54.112 7.448 54.1974 7.608C54.2934 7.75733 54.4214 7.89067 54.5814 8.008C54.752 8.12533 54.9387 8.24267 55.1414 8.36L57.6534 9.912C58.08 10.1253 58.416 10.4347 58.6614 10.84C58.9067 11.2453 59.0134 11.736 58.9814 12.312C58.9494 12.9093 58.7734 13.4267 58.4534 13.864C58.144 14.3013 57.712 14.6373 57.1574 14.872C56.6134 15.096 55.968 15.208 55.2214 15.208C54.7627 15.208 54.336 15.1707 53.9414 15.096C53.5467 15.0213 53.2054 14.92 52.9174 14.792C52.64 14.664 52.4267 14.52 52.2774 14.36C52.192 14.1467 52.1547 13.8907 52.1654 13.592C52.176 13.2827 52.224 12.9787 52.3094 12.68C52.3947 12.3707 52.5014 12.1147 52.6294 11.912H52.7574C52.7254 12.392 52.8107 12.8347 53.0134 13.24C53.2267 13.6453 53.536 13.9707 53.9414 14.216C54.3467 14.4507 54.832 14.568 55.3974 14.568C56.016 14.568 56.48 14.424 56.7894 14.136C57.0987 13.848 57.2534 13.512 57.2534 13.128C57.2534 12.84 57.1574 12.584 56.9654 12.36C56.784 12.1253 56.48 11.896 56.0534 11.672L53.7814 10.232C53.248 9.95467 52.8587 9.58667 52.6134 9.128C52.3787 8.66933 52.2934 8.168 52.3574 7.624C52.4107 7.112 52.56 6.67467 52.8054 6.312C53.0614 5.94933 53.3974 5.672 53.8134 5.48C54.2294 5.288 54.704 5.192 55.2374 5.192ZM58.1814 5.336L58.1654 5.624H56.4534V5.336H58.1814ZM65.7482 5.448V15H63.4282V5.448H65.7482ZM69.2362 5.384V6.024H59.9562V5.384H69.2362ZM69.2362 5.976V7.672H69.0603V7.528C69.0709 7.06933 68.9429 6.70667 68.6762 6.44C68.4202 6.17333 68.0629 6.03467 67.6042 6.024V5.976H69.2362ZM69.2362 5.144V5.544L67.5402 5.384C67.7429 5.384 67.9616 5.37333 68.1962 5.352C68.4309 5.32 68.6442 5.288 68.8362 5.256C69.0282 5.21333 69.1616 5.176 69.2362 5.144ZM63.4602 13.992V15H62.3882V14.84C62.3882 14.84 62.4149 14.84 62.4682 14.84C62.5322 14.84 62.5642 14.84 62.5642 14.84C62.7989 14.84 62.9962 14.76 63.1562 14.6C63.3269 14.4293 63.4176 14.2267 63.4282 13.992H63.4602ZM65.7002 13.992H65.7482C65.7482 14.2267 65.8336 14.4293 66.0042 14.6C66.1749 14.76 66.3829 14.84 66.6282 14.84C66.6282 14.84 66.6549 14.84 66.7082 14.84C66.7722 14.84 66.8042 14.84 66.8042 14.84V15H65.7002V13.992ZM61.5882 5.976V6.024C61.1189 6.03467 60.7562 6.17333 60.5002 6.44C60.2549 6.70667 60.1322 7.06933 60.1322 7.528V7.672H59.9562V5.976H61.5882ZM59.9562 5.144C60.0522 5.16533 60.1909 5.19733 60.3722 5.24C60.5642 5.28267 60.7722 5.32 60.9962 5.352C61.2309 5.37333 61.4442 5.384 61.6362 5.384L59.9562 5.544V5.144ZM73.755 5.4V15H71.451V5.4H73.755ZM77.499 14.36L77.867 15H73.723V14.36H77.499ZM76.955 9.928V10.568H73.723V9.928H76.955ZM77.675 5.4V6.04H73.723V5.4H77.675ZM78.523 12.056L77.915 15H75.147L75.643 14.36C76.1017 14.36 76.507 14.2693 76.859 14.088C77.2217 13.896 77.531 13.6293 77.787 13.288C78.043 12.936 78.2403 12.5253 78.379 12.056H78.523ZM76.955 10.536V11.944H76.795V11.816C76.795 11.464 76.683 11.1707 76.459 10.936C76.2457 10.7013 75.9523 10.5787 75.579 10.568V10.536H76.955ZM76.955 8.552V9.96H75.579V9.928C75.9523 9.91733 76.2457 9.79467 76.459 9.56C76.683 9.31467 76.795 9.016 76.795 8.664V8.552H76.955ZM77.675 6.008V7.704H77.515V7.56C77.515 7.09067 77.387 6.72267 77.131 6.456C76.8857 6.18933 76.5283 6.05067 76.059 6.04V6.008H77.675ZM77.675 5.16V5.544L75.995 5.4C76.3043 5.4 76.6297 5.37333 76.971 5.32C77.3123 5.256 77.547 5.20267 77.675 5.16ZM71.483 13.992L71.563 15H70.379V14.84C70.379 14.84 70.411 14.84 70.475 14.84C70.539 14.84 70.5763 14.84 70.587 14.84C70.8217 14.84 71.019 14.76 71.179 14.6C71.3497 14.4293 71.4403 14.2267 71.451 13.992H71.483ZM71.483 6.408H71.451C71.4403 6.16267 71.3497 5.96 71.179 5.8C71.019 5.64 70.8217 5.56 70.587 5.56C70.5763 5.56 70.539 5.56 70.475 5.56C70.411 5.56 70.379 5.56 70.379 5.56V5.4H71.563L71.483 6.408ZM85.1851 5.448V15H82.8651V5.448H85.1851ZM88.6731 5.384V6.024H79.3931V5.384H88.6731ZM88.6731 5.976V7.672H88.4971V7.528C88.5078 7.06933 88.3798 6.70667 88.1131 6.44C87.8571 6.17333 87.4998 6.03467 87.0411 6.024V5.976H88.6731ZM88.6731 5.144V5.544L86.9771 5.384C87.1798 5.384 87.3985 5.37333 87.6331 5.352C87.8678 5.32 88.0811 5.288 88.2731 5.256C88.4651 5.21333 88.5985 5.176 88.6731 5.144ZM82.8971 13.992V15H81.8251V14.84C81.8251 14.84 81.8518 14.84 81.9051 14.84C81.9691 14.84 82.0011 14.84 82.0011 14.84C82.2358 14.84 82.4331 14.76 82.5931 14.6C82.7638 14.4293 82.8545 14.2267 82.8651 13.992H82.8971ZM85.1371 13.992H85.1851C85.1851 14.2267 85.2705 14.4293 85.4411 14.6C85.6118 14.76 85.8198 14.84 86.0651 14.84C86.0651 14.84 86.0918 14.84 86.1451 14.84C86.2091 14.84 86.2411 14.84 86.2411 14.84V15H85.1371V13.992ZM81.0251 5.976V6.024C80.5558 6.03467 80.1931 6.17333 79.9371 6.44C79.6918 6.70667 79.5691 7.06933 79.5691 7.528V7.672H79.3931V5.976H81.0251ZM79.3931 5.144C79.4891 5.16533 79.6278 5.19733 79.8091 5.24C80.0011 5.28267 80.2091 5.32 80.4331 5.352C80.6678 5.37333 80.8811 5.384 81.0731 5.384L79.3931 5.544V5.144ZM93.2399 5.4V15H90.9359V5.4H93.2399ZM90.9839 13.992V15H89.8159V14.84C89.8159 14.84 89.8479 14.84 89.9119 14.84C89.9759 14.84 90.0132 14.84 90.0239 14.84C90.2692 14.84 90.4825 14.76 90.6639 14.6C90.8452 14.4293 90.9359 14.2267 90.9359 13.992H90.9839ZM93.2079 13.992H93.2399C93.2505 14.2267 93.3412 14.4293 93.5119 14.6C93.6932 14.76 93.9119 14.84 94.1679 14.84C94.1679 14.84 94.1945 14.84 94.2479 14.84C94.3119 14.84 94.3492 14.84 94.3599 14.84V15H93.2079V13.992ZM93.2079 6.408V5.4H94.3599L94.3439 5.56C94.3439 5.56 94.3172 5.56 94.2639 5.56C94.2105 5.56 94.1785 5.56 94.1679 5.56C93.9119 5.56 93.6932 5.64 93.5119 5.8C93.3412 5.96 93.2505 6.16267 93.2399 6.408H93.2079ZM90.9839 6.408H90.9359C90.9359 6.16267 90.8452 5.96 90.6639 5.8C90.4825 5.64 90.2639 5.56 90.0079 5.56C90.0079 5.56 89.9759 5.56 89.9119 5.56C89.8479 5.56 89.8159 5.56 89.8159 5.56V5.4H90.9839V6.408ZM105.22 10.984L105.396 13.4C105.194 13.7413 104.911 14.0507 104.548 14.328C104.186 14.5947 103.743 14.808 103.22 14.968C102.698 15.128 102.09 15.208 101.396 15.208C100.202 15.1973 99.1722 14.9947 98.3082 14.6C97.4442 14.2053 96.7776 13.64 96.3082 12.904C95.8496 12.1573 95.6202 11.2507 95.6202 10.184C95.6202 9.13867 95.8496 8.248 96.3082 7.512C96.7669 6.76533 97.4282 6.19467 98.2922 5.8C99.1562 5.39467 100.191 5.192 101.396 5.192C102.122 5.192 102.794 5.26133 103.412 5.4C104.042 5.53867 104.564 5.71467 104.98 5.928L104.996 8.472H104.868C104.602 7.49067 104.18 6.80267 103.604 6.408C103.028 6.01333 102.346 5.816 101.556 5.816C100.778 5.816 100.127 5.99733 99.6042 6.36C99.0922 6.72267 98.7029 7.22933 98.4362 7.88C98.1802 8.53067 98.0522 9.29333 98.0522 10.168C98.0522 11.0533 98.1802 11.8213 98.4362 12.472C98.7029 13.1227 99.0869 13.6293 99.5882 13.992C100.09 14.3547 100.692 14.5467 101.396 14.568C102.154 14.568 102.778 14.4507 103.268 14.216C103.77 13.9813 104.164 13.6027 104.452 13.08C104.751 12.5573 104.964 11.8587 105.092 10.984H105.22ZM110.286 5.4V15H107.982V5.4H110.286ZM108.03 13.992V15H106.862V14.84C106.862 14.84 106.894 14.84 106.958 14.84C107.022 14.84 107.059 14.84 107.07 14.84C107.315 14.84 107.529 14.76 107.71 14.6C107.891 14.4293 107.982 14.2267 107.982 13.992H108.03ZM110.254 13.992H110.286C110.297 14.2267 110.387 14.4293 110.558 14.6C110.739 14.76 110.958 14.84 111.214 14.84C111.214 14.84 111.241 14.84 111.294 14.84C111.358 14.84 111.395 14.84 111.406 14.84V15H110.254V13.992ZM110.254 6.408V5.4H111.406L111.39 5.56C111.39 5.56 111.363 5.56 111.31 5.56C111.257 5.56 111.225 5.56 111.214 5.56C110.958 5.56 110.739 5.64 110.558 5.8C110.387 5.96 110.297 6.16267 110.286 6.408H110.254ZM108.03 6.408H107.982C107.982 6.16267 107.891 5.96 107.71 5.8C107.529 5.64 107.31 5.56 107.054 5.56C107.054 5.56 107.022 5.56 106.958 5.56C106.894 5.56 106.862 5.56 106.862 5.56V5.4H108.03V6.408ZM116.071 5.192C116.284 5.192 116.54 5.20267 116.839 5.224C117.148 5.24533 117.452 5.272 117.751 5.304C118.05 5.32533 118.311 5.35733 118.535 5.4C118.77 5.432 118.93 5.464 119.015 5.496L118.807 7.448H118.663C118.663 6.95733 118.492 6.568 118.151 6.28C117.81 5.992 117.319 5.848 116.679 5.848C116.167 5.848 115.751 5.96 115.431 6.184C115.122 6.408 114.956 6.70667 114.935 7.08C114.914 7.272 114.946 7.448 115.031 7.608C115.127 7.75733 115.255 7.89067 115.415 8.008C115.586 8.12533 115.772 8.24267 115.975 8.36L118.487 9.912C118.914 10.1253 119.25 10.4347 119.495 10.84C119.74 11.2453 119.847 11.736 119.815 12.312C119.783 12.9093 119.607 13.4267 119.287 13.864C118.978 14.3013 118.546 14.6373 117.991 14.872C117.447 15.096 116.802 15.208 116.055 15.208C115.596 15.208 115.17 15.1707 114.775 15.096C114.38 15.0213 114.039 14.92 113.751 14.792C113.474 14.664 113.26 14.52 113.111 14.36C113.026 14.1467 112.988 13.8907 112.999 13.592C113.01 13.2827 113.058 12.9787 113.143 12.68C113.228 12.3707 113.335 12.1147 113.463 11.912H113.591C113.559 12.392 113.644 12.8347 113.847 13.24C114.06 13.6453 114.37 13.9707 114.775 14.216C115.18 14.4507 115.666 14.568 116.231 14.568C116.85 14.568 117.314 14.424 117.623 14.136C117.932 13.848 118.087 13.512 118.087 13.128C118.087 12.84 117.991 12.584 117.799 12.36C117.618 12.1253 117.314 11.896 116.887 11.672L114.615 10.232C114.082 9.95467 113.692 9.58667 113.447 9.128C113.212 8.66933 113.127 8.168 113.191 7.624C113.244 7.112 113.394 6.67467 113.639 6.312C113.895 5.94933 114.231 5.672 114.647 5.48C115.063 5.288 115.538 5.192 116.071 5.192ZM119.015 5.336L118.999 5.624H117.287V5.336H119.015ZM126.582 5.448V15H124.262V5.448H126.582ZM130.07 5.384V6.024H120.79V5.384H130.07ZM130.07 5.976V7.672H129.894V7.528C129.905 7.06933 129.777 6.70667 129.51 6.44C129.254 6.17333 128.897 6.03467 128.438 6.024V5.976H130.07ZM130.07 5.144V5.544L128.374 5.384C128.577 5.384 128.795 5.37333 129.03 5.352C129.265 5.32 129.478 5.288 129.67 5.256C129.862 5.21333 129.995 5.176 130.07 5.144ZM124.294 13.992V15H123.222V14.84C123.222 14.84 123.249 14.84 123.302 14.84C123.366 14.84 123.398 14.84 123.398 14.84C123.633 14.84 123.83 14.76 123.99 14.6C124.161 14.4293 124.251 14.2267 124.262 13.992H124.294ZM126.534 13.992H126.582C126.582 14.2267 126.667 14.4293 126.838 14.6C127.009 14.76 127.217 14.84 127.462 14.84C127.462 14.84 127.489 14.84 127.542 14.84C127.606 14.84 127.638 14.84 127.638 14.84V15H126.534V13.992ZM122.422 5.976V6.024C121.953 6.03467 121.59 6.17333 121.334 6.44C121.089 6.70667 120.966 7.06933 120.966 7.528V7.672H120.79V5.976H122.422ZM120.79 5.144C120.886 5.16533 121.025 5.19733 121.206 5.24C121.398 5.28267 121.606 5.32 121.83 5.352C122.065 5.37333 122.278 5.384 122.47 5.384L120.79 5.544V5.144ZM134.648 4.968L139.384 14.92H136.68L133.704 7.896L134.648 4.968ZM131.64 13.944C131.522 14.232 131.538 14.456 131.688 14.616C131.837 14.7653 132.002 14.84 132.184 14.84H132.312V15H129.112V14.84C129.112 14.84 129.133 14.84 129.176 14.84C129.218 14.84 129.24 14.84 129.24 14.84C129.453 14.84 129.677 14.776 129.912 14.648C130.146 14.5093 130.338 14.2747 130.488 13.944H131.64ZM134.648 4.968L134.68 6.888L131.208 14.952H130.024L133.768 6.904C133.789 6.84 133.837 6.728 133.912 6.568C133.986 6.39733 134.066 6.21067 134.152 6.008C134.237 5.79467 134.317 5.59733 134.392 5.416C134.466 5.224 134.509 5.07467 134.52 4.968H134.648ZM136.04 11.864V12.488H131.96V11.864H136.04ZM136.28 13.944H138.92C139.08 14.2747 139.277 14.5093 139.512 14.648C139.746 14.776 139.97 14.84 140.184 14.84C140.184 14.84 140.205 14.84 140.248 14.84C140.29 14.84 140.312 14.84 140.312 14.84V15H135.608V14.84H135.736C135.917 14.84 136.082 14.7653 136.232 14.616C136.381 14.456 136.397 14.232 136.28 13.944ZM148.401 5.4V15H146.097V5.4H148.401ZM152.145 14.36L152.513 15H148.369V14.36H152.145ZM151.601 9.928V10.568H148.369V9.928H151.601ZM152.321 5.4V6.04H148.369V5.4H152.321ZM153.169 12.056L152.561 15H149.793L150.289 14.36C150.747 14.36 151.153 14.2693 151.505 14.088C151.867 13.896 152.177 13.6293 152.433 13.288C152.689 12.936 152.886 12.5253 153.025 12.056H153.169ZM151.601 10.536V11.944H151.441V11.816C151.441 11.464 151.329 11.1707 151.105 10.936C150.891 10.7013 150.598 10.5787 150.225 10.568V10.536H151.601ZM151.601 8.552V9.96H150.225V9.928C150.598 9.91733 150.891 9.79467 151.105 9.56C151.329 9.31467 151.441 9.016 151.441 8.664V8.552H151.601ZM152.321 6.008V7.704H152.161V7.56C152.161 7.09067 152.033 6.72267 151.777 6.456C151.531 6.18933 151.174 6.05067 150.705 6.04V6.008H152.321ZM152.321 5.16V5.544L150.641 5.4C150.95 5.4 151.275 5.37333 151.617 5.32C151.958 5.256 152.193 5.20267 152.321 5.16ZM146.129 13.992L146.209 15H145.025V14.84C145.025 14.84 145.057 14.84 145.121 14.84C145.185 14.84 145.222 14.84 145.233 14.84C145.467 14.84 145.665 14.76 145.825 14.6C145.995 14.4293 146.086 14.2267 146.097 13.992H146.129ZM146.129 6.408H146.097C146.086 6.16267 145.995 5.96 145.825 5.8C145.665 5.64 145.467 5.56 145.233 5.56C145.222 5.56 145.185 5.56 145.121 5.56C145.057 5.56 145.025 5.56 145.025 5.56V5.4H146.209L146.129 6.408ZM168.296 10.984L168.472 13.4C168.269 13.7413 167.987 14.0507 167.624 14.328C167.261 14.5947 166.819 14.808 166.296 14.968C165.773 15.128 165.165 15.208 164.472 15.208C163.277 15.1973 162.248 14.9947 161.384 14.6C160.52 14.2053 159.853 13.64 159.384 12.904C158.925 12.1573 158.696 11.2507 158.696 10.184C158.696 9.13867 158.925 8.248 159.384 7.512C159.843 6.76533 160.504 6.19467 161.368 5.8C162.232 5.39467 163.267 5.192 164.472 5.192C165.197 5.192 165.869 5.26133 166.488 5.4C167.117 5.53867 167.64 5.71467 168.056 5.928L168.072 8.472H167.944C167.677 7.49067 167.256 6.80267 166.68 6.408C166.104 6.01333 165.421 5.816 164.632 5.816C163.853 5.816 163.203 5.99733 162.68 6.36C162.168 6.72267 161.779 7.22933 161.512 7.88C161.256 8.53067 161.128 9.29333 161.128 10.168C161.128 11.0533 161.256 11.8213 161.512 12.472C161.779 13.1227 162.163 13.6293 162.664 13.992C163.165 14.3547 163.768 14.5467 164.472 14.568C165.229 14.568 165.853 14.4507 166.344 14.216C166.845 13.9813 167.24 13.6027 167.528 13.08C167.827 12.5573 168.04 11.8587 168.168 10.984H168.296ZM175.852 5.192C176.705 5.192 177.478 5.30933 178.172 5.544C178.865 5.768 179.462 6.09867 179.964 6.536C180.465 6.97333 180.849 7.50133 181.116 8.12C181.393 8.73867 181.532 9.43733 181.532 10.216C181.532 10.984 181.393 11.6773 181.116 12.296C180.849 12.904 180.465 13.4267 179.964 13.864C179.462 14.3013 178.865 14.6373 178.172 14.872C177.478 15.096 176.705 15.208 175.852 15.208C175.009 15.208 174.241 15.096 173.548 14.872C172.854 14.6373 172.257 14.3013 171.756 13.864C171.254 13.4267 170.87 12.904 170.604 12.296C170.337 11.6773 170.204 10.984 170.204 10.216C170.204 9.43733 170.337 8.73867 170.604 8.12C170.87 7.50133 171.254 6.97333 171.756 6.536C172.257 6.09867 172.854 5.768 173.548 5.544C174.241 5.30933 175.009 5.192 175.852 5.192ZM175.852 14.584C176.502 14.584 177.068 14.408 177.548 14.056C178.038 13.6933 178.412 13.1867 178.668 12.536C178.934 11.8853 179.068 11.112 179.068 10.216C179.068 9.30933 178.934 8.53067 178.668 7.88C178.412 7.21867 178.038 6.712 177.548 6.36C177.068 5.99733 176.502 5.816 175.852 5.816C175.212 5.816 174.652 5.99733 174.172 6.36C173.692 6.712 173.318 7.21867 173.052 7.88C172.785 8.53067 172.652 9.30933 172.652 10.216C172.652 11.112 172.785 11.8853 173.052 12.536C173.318 13.1867 173.692 13.6933 174.172 14.056C174.652 14.408 175.212 14.584 175.852 14.584ZM193.587 5.192L193.715 6.84L189.411 13.672C189.411 13.672 189.363 13.7627 189.267 13.944C189.171 14.1147 189.075 14.3227 188.979 14.568C188.894 14.8133 188.846 15.0587 188.835 15.304H188.691L188.067 13.992L193.587 5.192ZM183.747 13.976V15H182.179V14.84C182.179 14.84 182.217 14.84 182.291 14.84C182.355 14.84 182.387 14.84 182.387 14.84C182.654 14.84 182.883 14.7653 183.075 14.616C183.278 14.4667 183.401 14.2533 183.443 13.976H183.747ZM184.435 14.2C184.425 14.3173 184.462 14.456 184.547 14.616C184.633 14.7653 184.782 14.84 184.995 14.84H185.219V15H184.259L184.355 14.2H184.435ZM184.691 5.192H184.819L185.363 6.728L184.355 15H183.315L184.691 5.192ZM184.819 5.192L189.555 12.28L188.691 15.304L184.435 8.856L184.819 5.192ZM193.731 5.192L195.139 15H192.691L191.907 9.16L193.587 5.192H193.731ZM194.691 13.976H194.995C195.049 14.2533 195.171 14.4667 195.363 14.616C195.566 14.7653 195.79 14.84 196.035 14.84C196.035 14.84 196.073 14.84 196.147 14.84C196.222 14.84 196.259 14.84 196.259 14.84V15H194.691V13.976ZM192.579 14.2H192.675L192.771 15H191.811V14.84H192.035C192.27 14.84 192.425 14.7653 192.499 14.616C192.574 14.456 192.601 14.3173 192.579 14.2ZM200.36 5.4V15H198.056V5.4H200.36ZM204.104 14.36L204.472 15H200.328V14.36H204.104ZM203.56 9.928V10.568H200.328V9.928H203.56ZM204.28 5.4V6.04H200.328V5.4H204.28ZM205.128 12.056L204.52 15H201.752L202.248 14.36C202.707 14.36 203.112 14.2693 203.464 14.088C203.827 13.896 204.136 13.6293 204.392 13.288C204.648 12.936 204.845 12.5253 204.984 12.056H205.128ZM203.56 10.536V11.944H203.4V11.816C203.4 11.464 203.288 11.1707 203.064 10.936C202.851 10.7013 202.557 10.5787 202.184 10.568V10.536H203.56ZM203.56 8.552V9.96H202.184V9.928C202.557 9.91733 202.851 9.79467 203.064 9.56C203.288 9.31467 203.4 9.016 203.4 8.664V8.552H203.56ZM204.28 6.008V7.704H204.12V7.56C204.12 7.09067 203.992 6.72267 203.736 6.456C203.491 6.18933 203.133 6.05067 202.664 6.04V6.008H204.28ZM204.28 5.16V5.544L202.6 5.4C202.909 5.4 203.235 5.37333 203.576 5.32C203.917 5.256 204.152 5.20267 204.28 5.16ZM198.088 13.992L198.168 15H196.984V14.84C196.984 14.84 197.016 14.84 197.08 14.84C197.144 14.84 197.181 14.84 197.192 14.84C197.427 14.84 197.624 14.76 197.784 14.6C197.955 14.4293 198.045 14.2267 198.056 13.992H198.088ZM198.088 6.408H198.056C198.045 6.16267 197.955 5.96 197.784 5.8C197.624 5.64 197.427 5.56 197.192 5.56C197.181 5.56 197.144 5.56 197.08 5.56C197.016 5.56 196.984 5.56 196.984 5.56V5.4H198.168L198.088 6.408ZM211.79 5.448V15H209.47V5.448H211.79ZM215.278 5.384V6.024H205.998V5.384H215.278ZM215.278 5.976V7.672H215.102V7.528C215.113 7.06933 214.985 6.70667 214.718 6.44C214.462 6.17333 214.105 6.03467 213.646 6.024V5.976H215.278ZM215.278 5.144V5.544L213.582 5.384C213.785 5.384 214.003 5.37333 214.238 5.352C214.473 5.32 214.686 5.288 214.878 5.256C215.07 5.21333 215.203 5.176 215.278 5.144ZM209.502 13.992V15H208.43V14.84C208.43 14.84 208.457 14.84 208.51 14.84C208.574 14.84 208.606 14.84 208.606 14.84C208.841 14.84 209.038 14.76 209.198 14.6C209.369 14.4293 209.459 14.2267 209.47 13.992H209.502ZM211.742 13.992H211.79C211.79 14.2267 211.875 14.4293 212.046 14.6C212.217 14.76 212.425 14.84 212.67 14.84C212.67 14.84 212.697 14.84 212.75 14.84C212.814 14.84 212.846 14.84 212.846 14.84V15H211.742V13.992ZM207.63 5.976V6.024C207.161 6.03467 206.798 6.17333 206.542 6.44C206.297 6.70667 206.174 7.06933 206.174 7.528V7.672H205.998V5.976H207.63ZM205.998 5.144C206.094 5.16533 206.233 5.19733 206.414 5.24C206.606 5.28267 206.814 5.32 207.038 5.352C207.273 5.37333 207.486 5.384 207.678 5.384L205.998 5.544V5.144ZM221.804 5.192C222.657 5.192 223.43 5.30933 224.124 5.544C224.817 5.768 225.414 6.09867 225.916 6.536C226.417 6.97333 226.801 7.50133 227.068 8.12C227.345 8.73867 227.484 9.43733 227.484 10.216C227.484 10.984 227.345 11.6773 227.068 12.296C226.801 12.904 226.417 13.4267 225.916 13.864C225.414 14.3013 224.817 14.6373 224.124 14.872C223.43 15.096 222.657 15.208 221.804 15.208C220.961 15.208 220.193 15.096 219.5 14.872C218.806 14.6373 218.209 14.3013 217.708 13.864C217.206 13.4267 216.822 12.904 216.556 12.296C216.289 11.6773 216.156 10.984 216.156 10.216C216.156 9.43733 216.289 8.73867 216.556 8.12C216.822 7.50133 217.206 6.97333 217.708 6.536C218.209 6.09867 218.806 5.768 219.5 5.544C220.193 5.30933 220.961 5.192 221.804 5.192ZM221.804 14.584C222.454 14.584 223.02 14.408 223.5 14.056C223.99 13.6933 224.364 13.1867 224.62 12.536C224.886 11.8853 225.02 11.112 225.02 10.216C225.02 9.30933 224.886 8.53067 224.62 7.88C224.364 7.21867 223.99 6.712 223.5 6.36C223.02 5.99733 222.454 5.816 221.804 5.816C221.164 5.816 220.604 5.99733 220.124 6.36C219.644 6.712 219.27 7.21867 219.004 7.88C218.737 8.53067 218.604 9.30933 218.604 10.216C218.604 11.112 218.737 11.8853 219.004 12.536C219.27 13.1867 219.644 13.6933 220.124 14.056C220.604 14.408 221.164 14.584 221.804 14.584ZM221.548 4.28C221.729 3.97067 221.953 3.65067 222.22 3.32C222.486 2.98933 222.764 2.68 223.052 2.392C223.35 2.104 223.612 1.85333 223.836 1.64C224.124 1.8 224.353 1.98667 224.524 2.2C224.694 2.41333 224.833 2.664 224.94 2.952C224.62 3.15467 224.268 3.352 223.884 3.544C223.51 3.72533 223.132 3.89067 222.748 4.04C222.374 4.18933 222.012 4.30667 221.66 4.392L221.548 4.28ZM232.086 5.4V15H229.782V5.4H232.086ZM235.814 14.36L236.198 15H232.054V14.36H235.814ZM236.87 12.056L236.246 15H233.478L233.974 14.36C234.432 14.36 234.838 14.2693 235.19 14.088C235.552 13.896 235.862 13.6293 236.118 13.288C236.374 12.936 236.571 12.5253 236.71 12.056H236.87ZM229.814 13.992L229.894 15H228.71V14.84C228.71 14.84 228.742 14.84 228.806 14.84C228.87 14.84 228.907 14.84 228.918 14.84C229.152 14.84 229.35 14.76 229.51 14.6C229.68 14.4293 229.771 14.2267 229.782 13.992H229.814ZM232.054 6.408V5.4H233.158V5.56C233.147 5.56 233.11 5.56 233.046 5.56C232.992 5.56 232.966 5.56 232.966 5.56C232.731 5.56 232.528 5.64 232.358 5.8C232.187 5.96 232.096 6.16267 232.086 6.408H232.054ZM229.814 6.408H229.782C229.771 6.16267 229.68 5.96 229.51 5.8C229.339 5.64 229.136 5.56 228.902 5.56C228.891 5.56 228.854 5.56 228.79 5.56C228.736 5.56 228.71 5.56 228.71 5.56V5.4H229.814V6.408ZM243.647 5.192C244.5 5.192 245.273 5.30933 245.967 5.544C246.66 5.768 247.257 6.09867 247.759 6.536C248.26 6.97333 248.644 7.50133 248.911 8.12C249.188 8.73867 249.327 9.43733 249.327 10.216C249.327 10.984 249.188 11.6773 248.911 12.296C248.644 12.904 248.26 13.4267 247.759 13.864C247.257 14.3013 246.66 14.6373 245.967 14.872C245.273 15.096 244.5 15.208 243.647 15.208C242.804 15.208 242.036 15.096 241.343 14.872C240.649 14.6373 240.052 14.3013 239.551 13.864C239.049 13.4267 238.665 12.904 238.399 12.296C238.132 11.6773 237.999 10.984 237.999 10.216C237.999 9.43733 238.132 8.73867 238.399 8.12C238.665 7.50133 239.049 6.97333 239.551 6.536C240.052 6.09867 240.649 5.768 241.343 5.544C242.036 5.30933 242.804 5.192 243.647 5.192ZM243.647 14.584C244.297 14.584 244.863 14.408 245.343 14.056C245.833 13.6933 246.207 13.1867 246.463 12.536C246.729 11.8853 246.863 11.112 246.863 10.216C246.863 9.30933 246.729 8.53067 246.463 7.88C246.207 7.21867 245.833 6.712 245.343 6.36C244.863 5.99733 244.297 5.816 243.647 5.816C243.007 5.816 242.447 5.99733 241.967 6.36C241.487 6.712 241.113 7.21867 240.847 7.88C240.58 8.53067 240.447 9.30933 240.447 10.216C240.447 11.112 240.58 11.8853 240.847 12.536C241.113 13.1867 241.487 13.6933 241.967 14.056C242.447 14.408 243.007 14.584 243.647 14.584ZM256.304 5.192C256.794 5.192 257.285 5.224 257.776 5.288C258.277 5.34133 258.741 5.42667 259.168 5.544C259.605 5.65067 259.973 5.77867 260.272 5.928V8.472H260.144C259.973 7.78933 259.717 7.256 259.376 6.872C259.045 6.488 258.661 6.216 258.224 6.056C257.786 5.896 257.312 5.816 256.8 5.816C256.053 5.816 255.424 5.992 254.912 6.344C254.4 6.696 254.01 7.208 253.744 7.88C253.488 8.54133 253.36 9.34133 253.36 10.28C253.36 11.1653 253.477 11.928 253.712 12.568C253.946 13.208 254.293 13.704 254.752 14.056C255.21 14.408 255.765 14.584 256.416 14.584C256.757 14.584 257.082 14.5307 257.392 14.424C257.701 14.3067 257.973 14.1413 258.208 13.928C258.442 13.704 258.608 13.432 258.704 13.112L258.72 11.192C258.72 10.9787 258.656 10.8187 258.528 10.712C258.41 10.6053 258.24 10.552 258.016 10.552H257.792V10.408H261.904V10.552H261.696C261.226 10.552 260.997 10.7653 261.008 11.192V13.32C260.784 13.6187 260.437 13.912 259.968 14.2C259.498 14.488 258.944 14.728 258.304 14.92C257.664 15.112 256.965 15.208 256.208 15.208C255.141 15.1973 254.213 14.9947 253.424 14.6C252.634 14.1947 252.021 13.6187 251.584 12.872C251.146 12.1253 250.928 11.2293 250.928 10.184C250.928 9.13867 251.146 8.248 251.584 7.512C252.021 6.76533 252.64 6.19467 253.44 5.8C254.24 5.39467 255.194 5.192 256.304 5.192ZM267.495 4.968L272.231 14.92H269.527L266.551 7.896L267.495 4.968ZM264.487 13.944C264.37 14.232 264.386 14.456 264.535 14.616C264.685 14.7653 264.85 14.84 265.031 14.84H265.159V15H261.959V14.84C261.959 14.84 261.981 14.84 262.023 14.84C262.066 14.84 262.087 14.84 262.087 14.84C262.301 14.84 262.525 14.776 262.759 14.648C262.994 14.5093 263.186 14.2747 263.335 13.944H264.487ZM267.495 4.968L267.527 6.888L264.055 14.952H262.871L266.615 6.904C266.637 6.84 266.685 6.728 266.759 6.568C266.834 6.39733 266.914 6.21067 266.999 6.008C267.085 5.79467 267.165 5.59733 267.239 5.416C267.314 5.224 267.357 5.07467 267.367 4.968H267.495ZM268.887 11.864V12.488H264.807V11.864H268.887ZM269.127 13.944H271.767C271.927 14.2747 272.125 14.5093 272.359 14.648C272.594 14.776 272.818 14.84 273.031 14.84C273.031 14.84 273.053 14.84 273.095 14.84C273.138 14.84 273.159 14.84 273.159 14.84V15H268.455V14.84H268.583C268.765 14.84 268.93 14.7653 269.079 14.616C269.229 14.456 269.245 14.232 269.127 13.944Z" fill="#CCCCCC"/>
<defs>
<linearGradient id="paint0_linear_59_9" x1="153.5" y1="77" x2="153.5" y2="29" gradientUnits="userSpaceOnUse">
<stop stop-color="#CC8F00"/>
<stop offset="1" stop-color="#FFB400"/>
</linearGradient>
</defs>
</svg>
