<svg width="311" height="68" viewBox="0 0 311 68" fill="none" xmlns="http://www.w3.org/2000/svg">
<path d="M24.2227 41.4824C23.9857 41.4824 23.8672 41.3639 23.8672 41.127C23.8672 40.9915 23.9349 40.8815 24.0703 40.7969C24.138 40.7292 24.2142 40.6615 24.2988 40.5938C24.4004 40.5091 24.485 40.4245 24.5527 40.3398C24.9759 39.8151 25.3568 39.1888 25.6953 38.4609C26.0339 37.7161 26.3893 36.7598 26.7617 35.5918C27.151 34.4238 27.6081 32.9427 28.1328 31.1484C29.0299 28.1523 30.3164 24.8092 31.9922 21.1191C33.6849 17.429 35.5553 13.8236 37.6035 10.3027C36.3171 11.9108 35.1322 13.3919 34.0488 14.7461C32.9655 16.0833 31.8822 17.4036 30.7988 18.707C29.7155 20.0104 28.5391 21.39 27.2695 22.8457C26.0169 24.2845 24.5612 25.918 22.9023 27.7461C18.9414 32.0625 15.5137 35.3633 12.6191 37.6484C9.72461 39.9167 7.2194 41.0508 5.10352 41.0508C3.37695 41.0508 2.09049 40.7122 1.24414 40.0352C0.414714 39.3581 0 38.554 0 37.623C0 36.8613 0.26237 36.3197 0.787109 35.998C1.31185 35.6595 1.83659 35.4902 2.36133 35.4902C2.64909 35.4902 2.93685 35.5833 3.22461 35.7695C3.51237 35.9557 3.65625 36.252 3.65625 36.6582C3.65625 36.9798 3.51237 37.276 3.22461 37.5469C2.93685 37.8008 2.60677 37.9277 2.23438 37.9277C2.01432 37.9277 1.79427 37.9108 1.57422 37.877C1.37109 37.8431 1.1849 37.7754 1.01562 37.6738V37.8262C1.01562 38.554 1.33724 39.1634 1.98047 39.6543C2.64062 40.1283 3.66471 40.3652 5.05273 40.3652C6.10221 40.3652 7.43099 39.9336 9.03906 39.0703C10.6641 38.1901 12.6361 36.7259 14.9551 34.6777C17.2741 32.6296 19.9993 29.8451 23.1309 26.3242C28.446 20.332 32.5 15.5924 35.293 12.1055C38.1029 8.61849 39.6432 6.67188 39.9141 6.26562C40.2188 5.89323 40.4303 5.70703 40.5488 5.70703C40.7012 5.70703 40.7773 5.7832 40.7773 5.93555C40.7773 6.03711 40.7435 6.14714 40.6758 6.26562L40.3203 6.92578C39.8971 7.63672 39.5671 8.32227 39.3301 8.98242C39.0931 9.62565 38.873 10.3027 38.6699 11.0137C38.416 11.8939 38.1621 12.8079 37.9082 13.7559C37.6712 14.6868 37.3665 15.7617 36.9941 16.9805C36.6217 18.1823 36.1224 19.638 35.4961 21.3477C34.819 23.2096 34.1335 24.8685 33.4395 26.3242C32.7454 27.7799 31.9583 29.2865 31.0781 30.8438C30.2148 32.401 29.1569 34.2799 27.9043 36.4805C28.6999 35.5156 29.7663 34.2376 31.1035 32.6465C32.4408 31.0384 33.9303 29.278 35.5723 27.3652C37.2311 25.4355 38.9492 23.4889 40.7266 21.5254C42.5039 19.5449 44.2305 17.6914 45.9062 15.9648C48.9023 12.8503 51.6022 10.3535 54.0059 8.47461C56.4095 6.57878 58.627 5.19922 60.6582 4.33594C62.7064 3.47266 64.6868 3.03255 66.5996 3.01562C68.377 3.01562 69.7227 3.41341 70.6367 4.20898C71.5508 4.98763 72.0163 6.09635 72.0332 7.53516C72.0501 8.58464 71.6777 9.7526 70.916 11.0391C70.1712 12.3086 69.1217 13.5443 67.7676 14.7461C66.4303 15.9479 64.873 16.9805 63.0957 17.8438C62.4694 18.1315 61.9954 18.2754 61.6738 18.2754C61.4876 18.2754 61.3945 18.2161 61.3945 18.0977C61.3945 17.9622 61.5384 17.8268 61.8262 17.6914C63.1973 17.1667 64.543 16.388 65.8633 15.3555C67.1836 14.3229 68.2754 13.1634 69.1387 11.877C70.002 10.5736 70.4336 9.27018 70.4336 7.9668C70.4336 6.62956 70.0697 5.59701 69.3418 4.86914C68.6309 4.12435 67.6237 3.75195 66.3203 3.75195C64.4245 3.75195 62.3594 4.29362 60.125 5.37695C57.9076 6.46029 55.4108 8.18685 52.6348 10.5566C49.8587 12.9264 46.7018 16.0495 43.1641 19.9258C40.3542 23.0065 37.8066 25.8926 35.5215 28.584C33.2363 31.2585 31.2559 33.6029 29.5801 35.6172C27.9212 37.6315 26.6094 39.1888 25.6445 40.2891C25.2044 40.8138 24.8828 41.1439 24.6797 41.2793C24.4766 41.4147 24.3242 41.4824 24.2227 41.4824ZM12.8984 20.3066C11.5951 20.3066 10.3678 20.0527 9.2168 19.5449C8.06576 19.0371 7.13477 18.2669 6.42383 17.2344C5.72982 16.1849 5.38281 14.873 5.38281 13.2988C5.38281 11.7077 5.86523 10.2773 6.83008 9.00781C7.79492 7.72135 9.13216 6.70573 10.8418 5.96094C12.5684 5.21615 14.5573 4.84375 16.8086 4.84375C18.0443 4.84375 19.2122 4.93685 20.3125 5.12305C21.4128 5.29232 22.623 5.64779 23.9434 6.18945C24.8066 6.54492 25.6191 6.90885 26.3809 7.28125C27.1426 7.63672 28.0059 8.03451 28.9707 8.47461C29.5462 8.71159 30.1387 8.90625 30.748 9.05859C31.3574 9.21094 31.9414 9.28711 32.5 9.28711C33.1263 9.28711 33.7695 9.16016 34.4297 8.90625C35.1068 8.65234 35.6823 8.32227 36.1562 7.91602C36.444 7.64518 36.6387 7.50977 36.7402 7.50977C36.8757 7.50977 36.9434 7.57747 36.9434 7.71289C36.9434 7.84831 36.8249 8.04297 36.5879 8.29688C36.1309 8.73698 35.5384 9.13477 34.8105 9.49023C34.0827 9.82878 33.3379 10.0996 32.5762 10.3027C31.8314 10.4889 31.1966 10.582 30.6719 10.582C29.6224 10.582 28.4121 10.3958 27.041 10.0234C25.6699 9.63411 24.4596 9.1263 23.4102 8.5C22.0729 7.72135 20.9473 7.14583 20.0332 6.77344C19.1361 6.40104 18.3405 6.1556 17.6465 6.03711C16.9525 5.90169 16.25 5.83398 15.5391 5.83398C13.8633 5.83398 12.3145 6.16406 10.8926 6.82422C9.4707 7.48438 8.32812 8.38997 7.46484 9.54102C6.61849 10.6921 6.19531 11.9954 6.19531 13.4512C6.19531 15.2454 6.79622 16.735 7.99805 17.9199C9.19987 19.1048 10.7995 19.6973 12.7969 19.6973C13.9648 19.6973 15.1074 19.4518 16.2246 18.9609C17.3418 18.4531 18.2643 17.7422 18.9922 16.8281C19.737 15.9141 20.1094 14.8223 20.1094 13.5527C20.1094 12.8757 19.8809 12.2917 19.4238 11.8008C19.3053 11.9362 19.1615 12.0632 18.9922 12.1816C18.8398 12.2832 18.6536 12.334 18.4336 12.334C18.112 12.334 17.8242 12.2324 17.5703 12.0293C17.3164 11.8092 17.1895 11.5299 17.1895 11.1914C17.1895 10.9036 17.291 10.6413 17.4941 10.4043C17.7142 10.1673 18.0273 10.0488 18.4336 10.0488C19.0599 10.0488 19.627 10.362 20.1348 10.9883C20.6426 11.5977 20.8965 12.4186 20.8965 13.4512C20.8965 14.8223 20.5072 16.0241 19.7285 17.0566C18.9499 18.0723 17.9512 18.8678 16.7324 19.4434C15.5137 20.0189 14.2357 20.3066 12.8984 20.3066ZM40.2949 41.0508C39.2116 41.0508 38.416 40.7546 37.9082 40.1621C37.4173 39.5697 37.1719 38.7572 37.1719 37.7246C37.1719 36.5905 37.4089 35.3802 37.8828 34.0938C38.3737 32.8073 39.1777 31.5293 40.2949 30.2598C42.5801 27.6022 44.7129 25.8333 46.6934 24.9531C48.6908 24.056 50.5612 23.6074 52.3047 23.6074C53.1849 23.6074 53.9297 23.7936 54.5391 24.166C55.1484 24.5384 55.4531 25.0462 55.4531 25.6895C55.4531 26.1803 55.3516 26.6797 55.1484 27.1875C55.6901 26.5443 56.1471 25.9857 56.5195 25.5117C56.9089 25.0208 57.2812 24.5553 57.6367 24.1152C58.0768 24.2507 58.5846 24.3184 59.1602 24.3184C59.3971 24.3184 59.7188 24.3099 60.125 24.293C60.5312 24.276 60.8444 24.2507 61.0645 24.2168L52.5078 34.5254C51.4245 35.8118 50.6458 36.8613 50.1719 37.6738C49.6979 38.4694 49.4609 39.0872 49.4609 39.5273C49.4609 40.069 49.7233 40.3398 50.248 40.3398C51.1621 40.3398 52.11 40.0775 53.0918 39.5527C54.0736 39.0111 55.0384 38.3255 55.9863 37.4961C56.9342 36.6497 57.8229 35.778 58.6523 34.8809C59.4818 33.9668 60.2096 33.1289 60.8359 32.3672C61.4792 31.5885 61.9701 31.013 62.3086 30.6406L62.8164 31.0723C62.444 31.4954 61.9193 32.1048 61.2422 32.9004C60.5651 33.696 59.7865 34.5592 58.9062 35.4902C58.043 36.4212 57.1035 37.3099 56.0879 38.1562C55.0892 39.0026 54.0566 39.6966 52.9902 40.2383C51.9408 40.7799 50.8997 41.0508 49.8672 41.0508C48.1745 41.0508 47.3281 40.526 47.3281 39.4766C47.3281 39.0872 47.3958 38.6979 47.5312 38.3086C47.6836 37.9023 47.9798 37.3861 48.4199 36.7598C48.86 36.1165 49.5202 35.2617 50.4004 34.1953L50.1465 34.0938C48.0814 36.6328 46.1686 38.4271 44.4082 39.4766C42.6647 40.526 41.2936 41.0508 40.2949 41.0508ZM40.3965 40.2891C41.4798 40.2891 42.9102 39.6628 44.6875 38.4102C46.4648 37.1406 48.5977 35.0332 51.0859 32.0879C51.4922 31.597 51.8646 31.14 52.2031 30.7168C52.5586 30.2936 52.8971 29.8958 53.2188 29.5234C53.6081 28.931 53.9551 28.3132 54.2598 27.6699C54.5814 27.0267 54.7422 26.4427 54.7422 25.918C54.7422 25.3932 54.556 25.0124 54.1836 24.7754C53.8112 24.5215 53.4049 24.3945 52.9648 24.3945C52.1354 24.3945 50.7897 24.9954 48.9277 26.1973C47.0827 27.3822 45.0514 29.2865 42.834 31.9102C41.5645 33.4336 40.6504 34.7878 40.0918 35.9727C39.5332 37.1576 39.2539 38.1562 39.2539 38.9688C39.2539 39.849 39.6348 40.2891 40.3965 40.2891ZM60.4805 41.0508C59.5495 41.0508 58.8555 40.8646 58.3984 40.4922C57.9245 40.1198 57.6875 39.6458 57.6875 39.0703C57.6875 38.6133 57.7467 38.1647 57.8652 37.7246C57.9837 37.2676 58.2376 36.6921 58.627 35.998C59.0163 35.304 59.6087 34.373 60.4043 33.2051C61.1999 32.0202 62.2747 30.4714 63.6289 28.5586L70.1797 19.3418H68.1738C67.666 19.3418 67.4121 19.2318 67.4121 19.0117C67.4121 18.7409 67.7337 18.6055 68.377 18.6055H70.6875L75.3848 12.0039C75.6048 12.0378 75.8926 12.0716 76.248 12.1055C76.6204 12.1224 77.1452 12.1224 77.8223 12.1055C78.1608 12.1055 78.5247 12.0716 78.9141 12.0039L74.0137 18.6055H80.5645C81.0384 18.6055 81.2754 18.724 81.2754 18.9609C81.2754 19.2148 81.0638 19.3418 80.6406 19.3418H73.4551L66.752 28.3809C65.1608 30.5137 63.8828 32.2656 62.918 33.6367C61.9531 35.0078 61.2168 36.0911 60.709 36.8867C60.2181 37.6823 59.8796 38.2747 59.6934 38.6641C59.5241 39.0534 59.4395 39.3411 59.4395 39.5273C59.4395 40.0352 59.8626 40.306 60.709 40.3398C61.877 40.3229 63.0788 39.9421 64.3145 39.1973C65.5671 38.4355 66.7689 37.513 67.9199 36.4297C69.071 35.3294 70.1035 34.2546 71.0176 33.2051C71.9316 32.1387 72.6426 31.3008 73.1504 30.6914L73.709 31.123C73.2181 31.6986 72.4987 32.528 71.5508 33.6113C70.6029 34.6947 69.5111 35.8118 68.2754 36.9629C67.0566 38.097 65.7786 39.0618 64.4414 39.8574C63.1042 40.653 61.7839 41.0508 60.4805 41.0508ZM83.5352 41.0508C82.7565 41.0508 81.9948 40.873 81.25 40.5176C80.5221 40.1621 80.1582 39.6882 80.1582 39.0957C80.1582 38.6387 80.2598 38.1055 80.4629 37.4961C80.6829 36.8698 81.1738 36.015 81.9355 34.9316C82.6973 33.8483 83.9076 32.3757 85.5664 30.5137C86.9036 29.0072 87.8262 27.8392 88.334 27.0098C88.8418 26.1803 89.0957 25.5625 89.0957 25.1562C89.0957 24.9193 89.0111 24.7077 88.8418 24.5215C88.6895 24.3353 88.3763 24.2422 87.9023 24.2422C87.513 24.2422 86.9798 24.3522 86.3027 24.5723C85.6426 24.7923 84.9147 25.1647 84.1191 25.6895C82.7819 26.6035 81.123 28.0169 79.1426 29.9297C77.1621 31.8255 74.9277 34.3223 72.4395 37.4199L70.1035 40.5176C69.8327 40.4668 69.5788 40.4329 69.3418 40.416C69.1048 40.3991 68.8678 40.3906 68.6309 40.3906C68.0215 40.3906 67.5137 40.4245 67.1074 40.4922C66.6842 40.543 66.3796 40.5938 66.1934 40.6445L94.3008 0.501953C94.5208 0.51888 94.8086 0.544271 95.1641 0.578125C95.5365 0.611979 96.0612 0.620443 96.7383 0.603516C96.8737 0.603516 97.0345 0.595052 97.2207 0.578125C97.4069 0.544271 97.61 0.51888 97.8301 0.501953L72.6426 35.4648L72.7695 35.7441C75.3594 32.765 77.5599 30.429 79.3711 28.7363C81.1823 27.0267 82.6888 25.7656 83.8906 24.9531C84.737 24.4115 85.5156 24.056 86.2266 23.8867C86.9544 23.7005 87.5892 23.6074 88.1309 23.6074C89.2311 23.6074 90.0098 23.8783 90.4668 24.4199C90.9408 24.9447 91.1608 25.5286 91.127 26.1719C91.0931 26.849 90.8646 27.6615 90.4414 28.6094C90.0182 29.5404 89.2819 30.7083 88.2324 32.1133C87.1999 33.5013 85.7357 35.2194 83.8398 37.2676C82.9935 38.1816 82.4772 38.7741 82.291 39.0449C82.1217 39.2988 82.0371 39.5358 82.0371 39.7559C82.0371 39.9251 82.2233 40.069 82.5957 40.1875C82.9681 40.2891 83.3828 40.3398 83.8398 40.3398C84.9062 40.3398 85.9811 40.0436 87.0645 39.4512C88.1647 38.8587 89.2227 38.1139 90.2383 37.2168C91.2539 36.3197 92.1764 35.4056 93.0059 34.4746C93.8353 33.5436 94.5293 32.7311 95.0879 32.0371C95.6634 31.3262 96.0358 30.8776 96.2051 30.6914L96.7637 31.123C96.5436 31.3431 96.1374 31.8255 95.5449 32.5703C94.9694 33.2982 94.2415 34.1445 93.3613 35.1094C92.4811 36.0573 91.5078 36.9883 90.4414 37.9023C89.375 38.7995 88.2493 39.5527 87.0645 40.1621C85.8965 40.7546 84.7201 41.0508 83.5352 41.0508ZM96.002 41.0508C94.9186 41.0508 94.123 40.7546 93.6152 40.1621C93.1243 39.5697 92.8789 38.7572 92.8789 37.7246C92.8789 36.5905 93.1159 35.3802 93.5898 34.0938C94.0807 32.8073 94.8848 31.5293 96.002 30.2598C98.2871 27.6022 100.42 25.8333 102.4 24.9531C104.398 24.056 106.268 23.6074 108.012 23.6074C108.892 23.6074 109.637 23.7936 110.246 24.166C110.855 24.5384 111.16 25.0462 111.16 25.6895C111.16 26.1803 111.059 26.6797 110.855 27.1875C111.397 26.5443 111.854 25.9857 112.227 25.5117C112.616 25.0208 112.988 24.5553 113.344 24.1152C113.784 24.2507 114.292 24.3184 114.867 24.3184C115.104 24.3184 115.426 24.3099 115.832 24.293C116.238 24.276 116.551 24.2507 116.771 24.2168L108.215 34.5254C107.132 35.8118 106.353 36.8613 105.879 37.6738C105.405 38.4694 105.168 39.0872 105.168 39.5273C105.168 40.069 105.43 40.3398 105.955 40.3398C106.869 40.3398 107.817 40.0775 108.799 39.5527C109.781 39.0111 110.745 38.3255 111.693 37.4961C112.641 36.6497 113.53 35.778 114.359 34.8809C115.189 33.9668 115.917 33.1289 116.543 32.3672C117.186 31.5885 117.677 31.013 118.016 30.6406L118.523 31.0723C118.151 31.4954 117.626 32.1048 116.949 32.9004C116.272 33.696 115.493 34.5592 114.613 35.4902C113.75 36.4212 112.811 37.3099 111.795 38.1562C110.796 39.0026 109.764 39.6966 108.697 40.2383C107.648 40.7799 106.607 41.0508 105.574 41.0508C103.882 41.0508 103.035 40.526 103.035 39.4766C103.035 39.0872 103.103 38.6979 103.238 38.3086C103.391 37.9023 103.687 37.3861 104.127 36.7598C104.567 36.1165 105.227 35.2617 106.107 34.1953L105.854 34.0938C103.788 36.6328 101.876 38.4271 100.115 39.4766C98.3717 40.526 97.0007 41.0508 96.002 41.0508ZM96.1035 40.2891C97.1868 40.2891 98.6172 39.6628 100.395 38.4102C102.172 37.1406 104.305 35.0332 106.793 32.0879C107.199 31.597 107.572 31.14 107.91 30.7168C108.266 30.2936 108.604 29.8958 108.926 29.5234C109.315 28.931 109.662 28.3132 109.967 27.6699C110.288 27.0267 110.449 26.4427 110.449 25.918C110.449 25.3932 110.263 25.0124 109.891 24.7754C109.518 24.5215 109.112 24.3945 108.672 24.3945C107.842 24.3945 106.497 24.9954 104.635 26.1973C102.79 27.3822 100.758 29.2865 98.541 31.9102C97.2715 33.4336 96.3574 34.7878 95.7988 35.9727C95.2402 37.1576 94.9609 38.1562 94.9609 38.9688C94.9609 39.849 95.3418 40.2891 96.1035 40.2891ZM111.135 20.4844C110.932 20.4844 110.83 20.3997 110.83 20.2305C110.83 20.1289 110.881 20.0527 110.982 20.002C111.084 19.9342 111.245 19.8242 111.465 19.6719C111.956 19.3841 112.506 18.9948 113.115 18.5039C113.725 17.9961 114.232 17.4206 114.639 16.7773C114.876 16.3711 115.07 15.8971 115.223 15.3555C115.375 14.8138 115.519 14.069 115.654 13.1211C115.807 11.9193 116.255 11.3184 117 11.3184C117.728 11.3184 118.092 11.7839 118.092 12.7148C118.092 13.3411 117.838 14.0944 117.33 14.9746C116.839 15.8379 116.162 16.7096 115.299 17.5898C114.452 18.4701 113.479 19.2402 112.379 19.9004C111.753 20.2897 111.338 20.4844 111.135 20.4844ZM116.137 41.0508C115.426 41.0508 114.842 40.8561 114.385 40.4668C113.911 40.0605 113.674 39.5697 113.674 38.9941C113.674 38.5371 113.733 38.097 113.852 37.6738C113.953 37.2337 114.199 36.6751 114.588 35.998C114.96 35.304 115.536 34.373 116.314 33.2051C117.093 32.0371 118.151 30.4883 119.488 28.5586L139.115 0.501953C139.352 0.51888 139.648 0.544271 140.004 0.578125C140.376 0.611979 140.901 0.620443 141.578 0.603516C141.714 0.603516 141.866 0.595052 142.035 0.578125C142.221 0.544271 142.424 0.51888 142.645 0.501953L121.773 29.4727C120.25 31.6055 119.057 33.2982 118.193 34.5508C117.33 35.7865 116.695 36.7344 116.289 37.3945C115.883 38.0378 115.629 38.5033 115.527 38.791C115.426 39.0618 115.375 39.2988 115.375 39.502C115.375 40.0605 115.773 40.3398 116.568 40.3398C117.567 40.3398 118.617 40.0436 119.717 39.4512C120.834 38.8587 121.934 38.1224 123.018 37.2422C124.101 36.3451 125.1 35.431 126.014 34.5C126.928 33.569 127.698 32.748 128.324 32.0371C128.967 31.3262 129.391 30.8776 129.594 30.6914L130.102 31.123C129.882 31.3431 129.441 31.8171 128.781 32.5449C128.121 33.2728 127.309 34.1191 126.344 35.084C125.379 36.0319 124.321 36.9629 123.17 37.877C122.036 38.791 120.859 39.5527 119.641 40.1621C118.439 40.7546 117.271 41.0508 116.137 41.0508ZM141.096 18.7578C140.622 18.7578 140.241 18.6139 139.953 18.3262C139.682 18.0215 139.547 17.6406 139.547 17.1836C139.547 16.5911 139.792 16.0495 140.283 15.5586C140.791 15.0508 141.392 14.7969 142.086 14.7969C142.56 14.7969 142.932 14.9577 143.203 15.2793C143.491 15.584 143.635 15.9564 143.635 16.3965C143.635 17.0228 143.364 17.5729 142.822 18.0469C142.298 18.5208 141.722 18.7578 141.096 18.7578ZM128.121 41.0508C127.089 41.0508 126.259 40.8646 125.633 40.4922C124.99 40.1029 124.668 39.5866 124.668 38.9434C124.668 38.4355 124.795 37.8516 125.049 37.1914C125.303 36.5143 125.794 35.6341 126.521 34.5508C127.232 33.4674 128.273 32.0625 129.645 30.3359C131.033 28.5924 132.852 26.4089 135.104 23.7852C135.256 23.8021 135.62 23.819 136.195 23.8359C136.771 23.8529 137.219 23.8613 137.541 23.8613C137.829 23.8613 138.04 23.8613 138.176 23.8613C138.328 23.8444 138.472 23.8275 138.607 23.8105C136.136 26.722 134.113 29.1172 132.539 30.9961C130.982 32.875 129.78 34.373 128.934 35.4902C128.087 36.6074 127.503 37.4622 127.182 38.0547C126.86 38.6471 126.699 39.1211 126.699 39.4766C126.699 39.9167 126.936 40.1706 127.41 40.2383C127.884 40.306 128.265 40.3398 128.553 40.3398C129.467 40.3398 130.465 40.0352 131.549 39.4258C132.632 38.7995 133.707 38.0293 134.773 37.1152C135.857 36.1842 136.855 35.2448 137.77 34.2969C138.701 33.349 139.462 32.5365 140.055 31.8594C140.647 31.1654 140.994 30.7676 141.096 30.666L141.604 31.123C141.417 31.3262 141.011 31.7917 140.385 32.5195C139.758 33.2474 138.98 34.0938 138.049 35.0586C137.118 36.0065 136.094 36.9375 134.977 37.8516C133.876 38.7656 132.734 39.5273 131.549 40.1367C130.381 40.7461 129.238 41.0508 128.121 41.0508ZM140.842 41.0508C139.758 41.0508 138.963 40.7546 138.455 40.1621C137.964 39.5697 137.719 38.7572 137.719 37.7246C137.719 36.5905 137.956 35.3802 138.43 34.0938C138.921 32.8073 139.725 31.5293 140.842 30.2598C143.127 27.6022 145.26 25.8333 147.24 24.9531C149.238 24.056 151.108 23.6074 152.852 23.6074C153.732 23.6074 154.477 23.7936 155.086 24.166C155.695 24.5384 156 25.0462 156 25.6895C156 26.1803 155.898 26.6797 155.695 27.1875C156.237 26.5443 156.694 25.9857 157.066 25.5117C157.456 25.0208 157.828 24.5553 158.184 24.1152C158.624 24.2507 159.132 24.3184 159.707 24.3184C159.944 24.3184 160.266 24.3099 160.672 24.293C161.078 24.276 161.391 24.2507 161.611 24.2168L153.055 34.5254C151.971 35.8118 151.193 36.8613 150.719 37.6738C150.245 38.4694 150.008 39.0872 150.008 39.5273C150.008 40.069 150.27 40.3398 150.795 40.3398C151.709 40.3398 152.657 40.0775 153.639 39.5527C154.62 39.0111 155.585 38.3255 156.533 37.4961C157.481 36.6497 158.37 35.778 159.199 34.8809C160.029 33.9668 160.757 33.1289 161.383 32.3672C162.026 31.5885 162.517 31.013 162.855 30.6406L163.363 31.0723C162.991 31.4954 162.466 32.1048 161.789 32.9004C161.112 33.696 160.333 34.5592 159.453 35.4902C158.59 36.4212 157.65 37.3099 156.635 38.1562C155.636 39.0026 154.604 39.6966 153.537 40.2383C152.488 40.7799 151.447 41.0508 150.414 41.0508C148.721 41.0508 147.875 40.526 147.875 39.4766C147.875 39.0872 147.943 38.6979 148.078 38.3086C148.23 37.9023 148.527 37.3861 148.967 36.7598C149.407 36.1165 150.067 35.2617 150.947 34.1953L150.693 34.0938C148.628 36.6328 146.715 38.4271 144.955 39.4766C143.212 40.526 141.84 41.0508 140.842 41.0508ZM140.943 40.2891C142.027 40.2891 143.457 39.6628 145.234 38.4102C147.012 37.1406 149.145 35.0332 151.633 32.0879C152.039 31.597 152.411 31.14 152.75 30.7168C153.105 30.2936 153.444 29.8958 153.766 29.5234C154.155 28.931 154.502 28.3132 154.807 27.6699C155.128 27.0267 155.289 26.4427 155.289 25.918C155.289 25.3932 155.103 25.0124 154.73 24.7754C154.358 24.5215 153.952 24.3945 153.512 24.3945C152.682 24.3945 151.337 24.9954 149.475 26.1973C147.63 27.3822 145.598 29.2865 143.381 31.9102C142.111 33.4336 141.197 34.7878 140.639 35.9727C140.08 37.1576 139.801 38.1562 139.801 38.9688C139.801 39.849 140.182 40.2891 140.943 40.2891ZM206.73 41.0508C205.698 41.0508 204.928 40.8223 204.42 40.3652C203.912 39.8913 203.658 39.3158 203.658 38.6387C203.658 38.1478 203.878 37.3691 204.318 36.3027C204.758 35.2363 205.673 33.6536 207.061 31.5547C208.686 29.1341 210.514 26.6966 212.545 24.2422C214.576 21.7708 216.65 19.3757 218.766 17.0566C220.898 14.7376 222.947 12.571 224.91 10.5566C226.891 8.54232 228.643 6.7819 230.166 5.27539C229.404 5.81706 228.558 6.47721 227.627 7.25586C226.696 8.03451 225.553 9.04167 224.199 10.2773C222.845 11.4961 221.178 13.0365 219.197 14.8984C217.217 16.7604 214.805 19.054 211.961 21.7793C210.539 23.1335 208.474 25.207 205.766 28C203.074 30.793 199.909 34.3138 196.27 38.5625C195.389 39.5951 194.78 40.2298 194.441 40.4668C194.12 40.7038 193.866 40.8223 193.68 40.8223C193.561 40.8223 193.434 40.7376 193.299 40.5684C193.18 40.3991 193.121 40.1283 193.121 39.7559C193.121 38.334 193.612 36.472 194.594 34.1699C195.576 31.8509 196.964 29.2357 198.758 26.3242C200.569 23.3958 202.71 20.2982 205.182 17.0312C207.653 13.7643 210.37 10.4551 213.332 7.10352C212.384 7.9668 210.649 9.70182 208.127 12.3086C205.622 14.9154 202.143 18.6647 197.691 23.5566C193.832 27.7884 190.362 31.2077 187.281 33.8145C184.201 36.4043 181.475 38.3001 179.105 39.502C177.074 40.5176 175.28 41.0254 173.723 41.0254C172.132 41.0254 170.938 40.7207 170.143 40.1113C169.347 39.502 168.949 38.7233 168.949 37.7754C168.949 36.9967 169.212 36.4212 169.736 36.0488C170.261 35.6595 170.786 35.4648 171.311 35.4648C171.581 35.4648 171.861 35.5579 172.148 35.7441C172.453 35.9303 172.605 36.2266 172.605 36.6328C172.605 36.9544 172.462 37.2507 172.174 37.5215C171.886 37.7754 171.548 37.9023 171.158 37.9023C170.938 37.9023 170.718 37.8854 170.498 37.8516C170.295 37.8177 170.109 37.7415 169.939 37.623C169.939 37.6908 169.931 37.75 169.914 37.8008C169.914 37.8516 169.914 37.8939 169.914 37.9277C169.914 38.6556 170.236 39.2396 170.879 39.6797C171.522 40.1198 172.462 40.3398 173.697 40.3398C174.95 40.3398 176.389 39.9674 178.014 39.2227C179.656 38.4779 181.585 37.2422 183.803 35.5156C186.037 33.7721 188.661 31.4277 191.674 28.4824C194.687 25.5371 198.199 21.8724 202.211 17.4883C205.579 13.8151 208.339 10.9544 210.488 8.90625C212.655 6.84115 214.28 5.39388 215.363 4.56445C216.464 3.73503 217.09 3.32031 217.242 3.32031C217.361 3.32031 217.505 3.3457 217.674 3.39648C217.843 3.43034 217.928 3.48958 217.928 3.57422C217.928 3.67578 217.801 3.83659 217.547 4.05664C217.378 4.20898 217.166 4.39518 216.912 4.61523C216.675 4.83529 216.379 5.12305 216.023 5.47852C215.583 5.95247 214.906 6.83268 213.992 8.11914C213.095 9.38867 212.046 10.929 210.844 12.7402C209.659 14.5345 208.389 16.4811 207.035 18.5801C205.698 20.679 204.369 22.7949 203.049 24.9277C201.729 27.0605 200.484 29.0833 199.316 30.9961C198.165 32.9089 197.167 34.6016 196.32 36.0742C195.491 37.5299 194.898 38.6217 194.543 39.3496C196.388 37.2168 198.055 35.304 199.545 33.6113C201.051 31.9186 202.49 30.3359 203.861 28.8633C205.249 27.3737 206.663 25.8926 208.102 24.4199C209.557 22.9473 211.148 21.3815 212.875 19.7227C214.602 18.0469 216.565 16.168 218.766 14.0859C221.694 11.3607 224.132 9.21094 226.078 7.63672C228.042 6.04557 229.607 4.91992 230.775 4.25977C231.943 3.58268 232.79 3.24414 233.314 3.24414C233.484 3.24414 233.568 3.31185 233.568 3.44727C233.568 3.56576 233.348 3.77734 232.908 4.08203C232.468 4.38672 231.994 4.75911 231.486 5.19922C229.811 6.67188 227.991 8.55924 226.027 10.8613C224.081 13.1465 222.083 15.6517 220.035 18.377C217.987 21.1022 215.964 23.8698 213.967 26.6797C211.969 29.4896 210.09 32.1471 208.33 34.6523C207.535 35.8203 206.942 36.709 206.553 37.3184C206.18 37.9108 205.943 38.3424 205.842 38.6133C205.74 38.8672 205.689 39.0957 205.689 39.2988C205.689 40.0098 206.18 40.3652 207.162 40.3652C207.653 40.3652 208.313 40.2467 209.143 40.0098C209.989 39.7559 210.869 39.4004 211.783 38.9434C212.697 38.4694 213.493 37.9023 214.17 37.2422C214.255 37.276 214.297 37.3861 214.297 37.5723C214.297 37.8262 214.255 38.0208 214.17 38.1562C213.442 38.7656 212.604 39.2904 211.656 39.7305C210.708 40.1536 209.794 40.4837 208.914 40.7207C208.034 40.9408 207.306 41.0508 206.73 41.0508ZM221.152 41.0508C219.73 41.0508 218.681 40.7292 218.004 40.0859C217.327 39.4258 216.946 38.6217 216.861 37.6738C216.811 36.5228 217.048 35.2871 217.572 33.9668C218.114 32.6465 218.698 31.5378 219.324 30.6406C220.154 29.4727 221.161 28.3555 222.346 27.2891C223.531 26.2057 224.826 25.3255 226.23 24.6484C227.652 23.9544 229.108 23.6074 230.598 23.6074C231.495 23.6074 232.265 23.8444 232.908 24.3184C233.568 24.7754 233.932 25.5117 234 26.5273C234.085 27.9661 233.805 29.4811 233.162 31.0723C232.519 32.6465 231.647 34.1107 230.547 35.4648C230.665 35.9557 231.046 36.2012 231.689 36.2012C232.316 36.2012 233.001 35.9557 233.746 35.4648C234.491 34.957 235.21 34.3646 235.904 33.6875C236.615 33.0104 237.225 32.3841 237.732 31.8086C238.24 31.2331 238.579 30.8607 238.748 30.6914L239.307 31.123C238.985 31.4277 238.528 31.9017 237.936 32.5449C237.343 33.1712 236.683 33.8229 235.955 34.5C235.244 35.1602 234.508 35.7272 233.746 36.2012C233.001 36.6751 232.299 36.9121 231.639 36.9121C230.826 36.9121 230.276 36.6582 229.988 36.1504C228.736 37.5723 227.322 38.7487 225.748 39.6797C224.191 40.5938 222.659 41.0508 221.152 41.0508ZM221.812 40.2891C222.405 40.2891 223.09 40.1198 223.869 39.7812C224.648 39.4427 225.426 38.9941 226.205 38.4355C227.508 37.5046 228.685 36.4128 229.734 35.1602V35.0586C229.734 34.0091 230.005 33.1797 230.547 32.5703C231.105 31.944 231.647 31.5462 232.172 31.377C233.001 29.6504 233.374 28.1016 233.289 26.7305C233.238 25.901 233.018 25.3255 232.629 25.0039C232.257 24.6823 231.842 24.5215 231.385 24.5215C230.403 24.5215 229.193 25.1055 227.754 26.2734C226.332 27.4245 224.741 29.0918 222.98 31.2754C221.728 32.8496 220.848 34.1784 220.34 35.2617C219.849 36.3451 219.637 37.2845 219.705 38.0801C219.705 38.5371 219.857 39.0195 220.162 39.5273C220.484 40.0352 221.034 40.2891 221.812 40.2891ZM242.836 41.0508C241.888 41.0508 241.118 40.8138 240.525 40.3398C239.933 39.849 239.637 39.2142 239.637 38.4355C239.637 37.0814 240.627 35.4479 242.607 33.5352C244.588 31.6224 247.271 29.5319 250.656 27.2637C248.93 26.9759 247.44 26.6882 246.188 26.4004C244.952 26.1126 243.962 25.7995 243.217 25.4609C242.878 26.138 242.387 26.9674 241.744 27.9492C241.101 28.931 240.28 29.9889 239.281 31.123C238.604 31.9186 238.096 32.4772 237.758 32.7988C237.419 33.1204 237.182 33.3151 237.047 33.3828C236.928 33.4336 236.861 33.4759 236.844 33.5098C236.793 33.5267 236.759 33.4759 236.742 33.3574C236.742 33.2389 236.751 33.1458 236.768 33.0781C236.768 33.0104 236.895 32.8496 237.148 32.5957C237.402 32.3418 237.936 31.707 238.748 30.6914C239.594 29.625 240.348 28.6094 241.008 27.6445C241.668 26.6797 242.176 25.8333 242.531 25.1055C241.922 24.7161 241.566 24.2845 241.465 23.8105C241.329 22.998 241.49 22.2617 241.947 21.6016C242.404 20.9414 242.997 20.6113 243.725 20.6113C244.622 20.6113 245.07 21.0007 245.07 21.7793C245.07 22.1686 244.994 22.4987 244.842 22.7695C244.689 23.0404 244.537 23.3027 244.385 23.5566C244.08 23.9121 243.928 24.3607 243.928 24.9023C243.928 25.0716 244.215 25.2578 244.791 25.4609C245.383 25.6471 246.103 25.8333 246.949 26.0195C247.812 26.1888 248.659 26.3411 249.488 26.4766C250.318 26.5951 250.969 26.6712 251.443 26.7051C251.765 26.722 251.96 26.7812 252.027 26.8828C252.112 26.9674 252.154 27.0352 252.154 27.0859C252.154 27.2552 251.909 27.5345 251.418 27.9238C250.487 28.6348 249.531 29.498 248.549 30.5137C247.567 31.5124 246.653 32.5534 245.807 33.6367C244.96 34.7031 244.275 35.7103 243.75 36.6582C243.225 37.6061 242.963 38.3848 242.963 38.9941C242.963 39.7897 243.285 40.1875 243.928 40.1875C244.757 40.1875 245.663 39.9082 246.645 39.3496C247.626 38.791 248.617 38.0885 249.615 37.2422C250.631 36.3958 251.579 35.5241 252.459 34.627C253.356 33.7129 254.126 32.9004 254.77 32.1895C255.413 31.4616 255.861 30.9622 256.115 30.6914L256.623 31.123C256.251 31.4785 255.717 32.0456 255.023 32.8242C254.346 33.5859 253.551 34.4408 252.637 35.3887C251.723 36.3197 250.724 37.2168 249.641 38.0801C248.574 38.9434 247.465 39.6543 246.314 40.2129C245.163 40.7715 244.004 41.0508 242.836 41.0508ZM255.861 41.0508C254.778 41.0508 253.982 40.7546 253.475 40.1621C252.984 39.5697 252.738 38.7572 252.738 37.7246C252.738 36.5905 252.975 35.3802 253.449 34.0938C253.94 32.8073 254.744 31.5293 255.861 30.2598C258.146 27.6022 260.279 25.8333 262.26 24.9531C264.257 24.056 266.128 23.6074 267.871 23.6074C268.751 23.6074 269.496 23.7936 270.105 24.166C270.715 24.5384 271.02 25.0462 271.02 25.6895C271.02 26.1803 270.918 26.6797 270.715 27.1875C271.257 26.5443 271.714 25.9857 272.086 25.5117C272.475 25.0208 272.848 24.5553 273.203 24.1152C273.643 24.2507 274.151 24.3184 274.727 24.3184C274.964 24.3184 275.285 24.3099 275.691 24.293C276.098 24.276 276.411 24.2507 276.631 24.2168L268.074 34.5254C266.991 35.8118 266.212 36.8613 265.738 37.6738C265.264 38.4694 265.027 39.0872 265.027 39.5273C265.027 40.069 265.29 40.3398 265.814 40.3398C266.729 40.3398 267.676 40.0775 268.658 39.5527C269.64 39.0111 270.605 38.3255 271.553 37.4961C272.501 36.6497 273.389 35.778 274.219 34.8809C275.048 33.9668 275.776 33.1289 276.402 32.3672C277.046 31.5885 277.536 31.013 277.875 30.6406L278.383 31.0723C278.01 31.4954 277.486 32.1048 276.809 32.9004C276.132 33.696 275.353 34.5592 274.473 35.4902C273.609 36.4212 272.67 37.3099 271.654 38.1562C270.656 39.0026 269.623 39.6966 268.557 40.2383C267.507 40.7799 266.466 41.0508 265.434 41.0508C263.741 41.0508 262.895 40.526 262.895 39.4766C262.895 39.0872 262.962 38.6979 263.098 38.3086C263.25 37.9023 263.546 37.3861 263.986 36.7598C264.426 36.1165 265.087 35.2617 265.967 34.1953L265.713 34.0938C263.648 36.6328 261.735 38.4271 259.975 39.4766C258.231 40.526 256.86 41.0508 255.861 41.0508ZM255.963 40.2891C257.046 40.2891 258.477 39.6628 260.254 38.4102C262.031 37.1406 264.164 35.0332 266.652 32.0879C267.059 31.597 267.431 31.14 267.77 30.7168C268.125 30.2936 268.464 29.8958 268.785 29.5234C269.174 28.931 269.521 28.3132 269.826 27.6699C270.148 27.0267 270.309 26.4427 270.309 25.918C270.309 25.3932 270.122 25.0124 269.75 24.7754C269.378 24.5215 268.971 24.3945 268.531 24.3945C267.702 24.3945 266.356 24.9954 264.494 26.1973C262.649 27.3822 260.618 29.2865 258.4 31.9102C257.131 33.4336 256.217 34.7878 255.658 35.9727C255.1 37.1576 254.82 38.1562 254.82 38.9688C254.82 39.849 255.201 40.2891 255.963 40.2891ZM279.678 41.1523C278.019 41.1523 276.834 40.7207 276.123 39.8574C275.412 38.9941 275.04 37.9362 275.006 36.6836C274.989 35.7695 275.175 34.7539 275.564 33.6367C275.954 32.5195 276.36 31.6647 276.783 31.0723C278.036 29.3288 279.39 27.9069 280.846 26.8066C282.301 25.7064 283.723 24.9023 285.111 24.3945C286.516 23.8698 287.752 23.6074 288.818 23.6074C289.851 23.6074 290.57 23.7767 290.977 24.1152C291.4 24.4538 291.62 24.8431 291.637 25.2832C291.688 25.9434 291.332 26.7135 290.57 27.5938C289.826 28.457 288.514 29.3965 286.635 30.4121C284.756 31.4277 282.132 32.4941 278.764 33.6113C278.171 34.5592 277.773 35.3802 277.57 36.0742C277.367 36.7513 277.266 37.3607 277.266 37.9023C277.266 38.6979 277.528 39.3158 278.053 39.7559C278.594 40.196 279.229 40.416 279.957 40.416C281.548 40.416 283.038 40.1198 284.426 39.5273C285.831 38.918 287.109 38.1562 288.26 37.2422C289.428 36.3281 290.452 35.4056 291.332 34.4746C292.212 33.5267 292.932 32.7057 293.49 32.0117C294.049 31.3008 294.421 30.8607 294.607 30.6914L295.141 31.123C294.887 31.3431 294.455 31.8255 293.846 32.5703C293.253 33.3151 292.492 34.1699 291.561 35.1348C290.646 36.0996 289.589 37.0391 288.387 37.9531C287.185 38.8672 285.848 39.6289 284.375 40.2383C282.919 40.8477 281.354 41.1523 279.678 41.1523ZM279.348 32.7227C282.632 31.5716 285.221 30.3867 287.117 29.168C289.013 27.9323 289.961 26.7559 289.961 25.6387C289.961 24.6908 289.521 24.2168 288.641 24.2168C287.507 24.2168 286.279 24.8262 284.959 26.0449C283.639 27.2637 282.098 29.0326 280.338 31.3516C279.965 31.8255 279.635 32.2826 279.348 32.7227ZM293.211 41.584C292.686 41.584 292.009 41.5163 291.18 41.3809C290.35 41.2454 289.614 40.9577 288.971 40.5176C288.311 40.0775 287.98 39.3919 287.98 38.4609C287.98 37.6146 288.243 36.9206 288.768 36.3789C289.275 35.8203 289.842 35.4056 290.469 35.1348C291.095 34.8639 291.561 34.7285 291.865 34.7285C292.559 34.7285 292.906 35.0501 292.906 35.6934C292.889 35.9642 292.695 36.2181 292.322 36.4551C291.967 36.6751 291.569 36.7852 291.129 36.7852C290.926 36.7852 290.731 36.7174 290.545 36.582C290.342 36.4297 290.181 36.3197 290.062 36.252C289.876 36.4382 289.597 36.7174 289.225 37.0898C288.835 37.4453 288.641 37.9108 288.641 38.4863C288.641 39.1296 288.903 39.612 289.428 39.9336C289.936 40.2383 290.511 40.4414 291.154 40.543C291.798 40.6276 292.288 40.6699 292.627 40.6699C293.338 40.6699 294.227 40.3906 295.293 39.832C296.359 39.2565 297.35 38.3001 298.264 36.9629C299.195 35.6257 299.796 33.806 300.066 31.5039C300.151 30.6914 300.227 29.5658 300.295 28.127C300.38 26.6882 300.65 25.3086 301.107 23.9883C301.124 23.9375 301.133 23.8613 301.133 23.7598C300.49 24.5553 299.796 25.4102 299.051 26.3242C298.306 27.2383 297.587 28.1185 296.893 28.9648C296.215 29.8112 295.632 30.5306 295.141 31.123C294.802 31.5293 294.557 31.7917 294.404 31.9102C294.252 32.0286 294.184 32.0879 294.201 32.0879C294.184 32.0879 294.117 32.0964 293.998 32.1133C293.896 32.1133 293.812 32.054 293.744 31.9355C293.71 31.8509 293.786 31.6901 293.973 31.4531C294.176 31.2161 294.387 30.9622 294.607 30.6914C294.997 30.2513 295.598 29.5488 296.41 28.584C297.223 27.6191 298.077 26.5866 298.975 25.4863C299.889 24.3861 300.676 23.4128 301.336 22.5664C301.438 22.0586 301.59 21.6016 301.793 21.1953C301.996 20.7891 302.284 20.5859 302.656 20.5859C303.333 20.5859 303.672 20.8652 303.672 21.4238C303.655 21.7454 303.266 22.3464 302.504 23.2266C302.047 23.7682 301.801 24.1237 301.768 24.293C301.734 24.4453 301.717 24.6484 301.717 24.9023C301.7 25.5117 301.759 26.2734 301.895 27.1875C302.047 28.0846 302.208 29.0326 302.377 30.0312C302.546 31.013 302.656 31.9525 302.707 32.8496C302.758 34.1868 302.605 35.3464 302.25 36.3281C302.521 36.362 302.749 36.3789 302.936 36.3789C303.477 36.3789 304.095 36.1335 304.789 35.6426C305.5 35.1517 306.202 34.5677 306.896 33.8906C307.59 33.2135 308.191 32.5703 308.699 31.9609C309.224 31.3516 309.571 30.9284 309.74 30.6914L310.299 31.123C310.011 31.4277 309.588 31.9017 309.029 32.5449C308.471 33.1712 307.836 33.8314 307.125 34.5254C306.414 35.2025 305.686 35.7865 304.941 36.2773C304.214 36.7513 303.52 36.9883 302.859 36.9883C302.707 36.9883 302.563 36.9883 302.428 36.9883C302.292 36.9714 302.157 36.9544 302.021 36.9375C301.226 38.6979 300.049 39.9167 298.492 40.5938C296.935 41.2539 295.174 41.584 293.211 41.584Z" fill="url(#paint0_linear_44_87)"/>
<path d="M4.304 51.8V63H1.904V51.8H4.304ZM8.528 62.312L8.912 63H4.256V62.312H8.528ZM7.936 57.144V57.816H4.256V57.144H7.936ZM8.72 51.8V52.488H4.256V51.8H8.72ZM9.696 59.72L8.96 63H5.824L6.4 62.312C6.93333 62.312 7.40267 62.2107 7.808 62.008C8.21333 61.7947 8.56 61.496 8.848 61.112C9.136 60.7173 9.36533 60.2533 9.536 59.72H9.696ZM7.936 57.784V59.32H7.776V59.192C7.776 58.7973 7.648 58.472 7.392 58.216C7.136 57.96 6.81067 57.8267 6.416 57.816V57.784H7.936ZM7.936 55.64V57.176H6.416V57.144C6.81067 57.1333 7.136 57 7.392 56.744C7.648 56.4773 7.776 56.1467 7.776 55.752V55.64H7.936ZM8.72 52.44V54.312H8.56V54.12C8.56 53.6293 8.41067 53.2347 8.112 52.936C7.824 52.6373 7.42933 52.4827 6.928 52.472V52.44H8.72ZM8.72 51.512V51.976L6.768 51.8C7.00267 51.8 7.248 51.784 7.504 51.752C7.77067 51.72 8.016 51.6827 8.24 51.64C8.464 51.5973 8.624 51.5547 8.72 51.512ZM1.952 61.832V63H0.672V62.84C0.672 62.84 0.704 62.84 0.768 62.84C0.842667 62.84 0.88 62.84 0.88 62.84C1.15733 62.84 1.392 62.744 1.584 62.552C1.78667 62.3493 1.89333 62.1093 1.904 61.832H1.952ZM1.952 52.968H1.904C1.89333 52.6907 1.78667 52.456 1.584 52.264C1.392 52.0613 1.15733 51.96 0.88 51.96C0.88 51.96 0.842667 51.96 0.768 51.96C0.704 51.96 0.672 51.96 0.672 51.96V51.8H1.952V52.968ZM13.9174 53.192C14.1307 53.192 14.3867 53.2027 14.6854 53.224C14.9947 53.2453 15.2987 53.272 15.5974 53.304C15.896 53.3253 16.1574 53.3573 16.3814 53.4C16.616 53.432 16.776 53.464 16.8614 53.496L16.6534 55.448H16.5094C16.5094 54.9573 16.3387 54.568 15.9974 54.28C15.656 53.992 15.1654 53.848 14.5254 53.848C14.0134 53.848 13.5974 53.96 13.2774 54.184C12.968 54.408 12.8027 54.7067 12.7814 55.08C12.76 55.272 12.792 55.448 12.8774 55.608C12.9734 55.7573 13.1014 55.8907 13.2614 56.008C13.432 56.1253 13.6187 56.2427 13.8214 56.36L16.3334 57.912C16.76 58.1253 17.096 58.4347 17.3414 58.84C17.5867 59.2453 17.6934 59.736 17.6614 60.312C17.6294 60.9093 17.4534 61.4267 17.1334 61.864C16.824 62.3013 16.392 62.6373 15.8374 62.872C15.2934 63.096 14.648 63.208 13.9014 63.208C13.4427 63.208 13.016 63.1707 12.6214 63.096C12.2267 63.0213 11.8854 62.92 11.5974 62.792C11.32 62.664 11.1067 62.52 10.9574 62.36C10.872 62.1467 10.8347 61.8907 10.8454 61.592C10.856 61.2827 10.904 60.9787 10.9894 60.68C11.0747 60.3707 11.1814 60.1147 11.3094 59.912H11.4374C11.4054 60.392 11.4907 60.8347 11.6934 61.24C11.9067 61.6453 12.216 61.9707 12.6214 62.216C13.0267 62.4507 13.512 62.568 14.0774 62.568C14.696 62.568 15.16 62.424 15.4694 62.136C15.7787 61.848 15.9334 61.512 15.9334 61.128C15.9334 60.84 15.8374 60.584 15.6454 60.36C15.464 60.1253 15.16 59.896 14.7334 59.672L12.4614 58.232C11.928 57.9547 11.5387 57.5867 11.2934 57.128C11.0587 56.6693 10.9734 56.168 11.0374 55.624C11.0907 55.112 11.24 54.6747 11.4854 54.312C11.7414 53.9493 12.0774 53.672 12.4934 53.48C12.9094 53.288 13.384 53.192 13.9174 53.192ZM16.8614 53.336L16.8454 53.624H15.1334V53.336H16.8614ZM24.1083 53.448V63H21.7883V53.448H24.1083ZM27.5963 53.384V54.024H18.3163V53.384H27.5963ZM27.5963 53.976V55.672H27.4203V55.528C27.4309 55.0693 27.3029 54.7067 27.0363 54.44C26.7803 54.1733 26.4229 54.0347 25.9643 54.024V53.976H27.5963ZM27.5963 53.144V53.544L25.9003 53.384C26.1029 53.384 26.3216 53.3733 26.5563 53.352C26.7909 53.32 27.0043 53.288 27.1962 53.256C27.3883 53.2133 27.5216 53.176 27.5963 53.144ZM21.8203 61.992V63H20.7483V62.84C20.7483 62.84 20.7749 62.84 20.8283 62.84C20.8923 62.84 20.9243 62.84 20.9243 62.84C21.1589 62.84 21.3563 62.76 21.5163 62.6C21.6869 62.4293 21.7776 62.2267 21.7883 61.992H21.8203ZM24.0603 61.992H24.1083C24.1083 62.2267 24.1936 62.4293 24.3643 62.6C24.5349 62.76 24.7429 62.84 24.9883 62.84C24.9883 62.84 25.0149 62.84 25.0683 62.84C25.1323 62.84 25.1643 62.84 25.1643 62.84V63H24.0603V61.992ZM19.9483 53.976V54.024C19.4789 54.0347 19.1163 54.1733 18.8603 54.44C18.6149 54.7067 18.4923 55.0693 18.4923 55.528V55.672H18.3163V53.976H19.9483ZM18.3163 53.144C18.4123 53.1653 18.5509 53.1973 18.7323 53.24C18.9243 53.2827 19.1323 53.32 19.3563 53.352C19.5909 53.3733 19.8043 53.384 19.9963 53.384L18.3163 53.544V53.144ZM31.795 53.4V63H29.491V53.4H31.795ZM35.539 62.36L35.907 63H31.763V62.36H35.539ZM34.995 57.928V58.568H31.763V57.928H34.995ZM35.715 53.4V54.04H31.763V53.4H35.715ZM36.563 60.056L35.955 63H33.187L33.683 62.36C34.1417 62.36 34.547 62.2693 34.899 62.088C35.2617 61.896 35.571 61.6293 35.827 61.288C36.083 60.936 36.2803 60.5253 36.419 60.056H36.563ZM34.995 58.536V59.944H34.835V59.816C34.835 59.464 34.723 59.1707 34.499 58.936C34.2857 58.7013 33.9923 58.5787 33.619 58.568V58.536H34.995ZM34.995 56.552V57.96H33.619V57.928C33.9923 57.9173 34.2857 57.7947 34.499 57.56C34.723 57.3147 34.835 57.016 34.835 56.664V56.552H34.995ZM35.715 54.008V55.704H35.555V55.56C35.555 55.0907 35.427 54.7227 35.171 54.456C34.9257 54.1893 34.5683 54.0507 34.099 54.04V54.008H35.715ZM35.715 53.16V53.544L34.035 53.4C34.3443 53.4 34.6697 53.3733 35.011 53.32C35.3523 53.256 35.587 53.2027 35.715 53.16ZM29.523 61.992L29.603 63H28.419V62.84C28.419 62.84 28.451 62.84 28.515 62.84C28.579 62.84 28.6163 62.84 28.627 62.84C28.8617 62.84 29.059 62.76 29.219 62.6C29.3897 62.4293 29.4803 62.2267 29.491 61.992H29.523ZM29.523 54.408H29.491C29.4803 54.1627 29.3897 53.96 29.219 53.8C29.059 53.64 28.8617 53.56 28.627 53.56C28.6163 53.56 28.579 53.56 28.515 53.56C28.451 53.56 28.419 53.56 28.419 53.56V53.4H29.603L29.523 54.408ZM42.9051 53.448V63H40.5851V53.448H42.9051ZM46.3931 53.384V54.024H37.1131V53.384H46.3931ZM46.3931 53.976V55.672H46.2171V55.528C46.2278 55.0693 46.0998 54.7067 45.8331 54.44C45.5771 54.1733 45.2198 54.0347 44.7611 54.024V53.976H46.3931ZM46.3931 53.144V53.544L44.6971 53.384C44.8998 53.384 45.1185 53.3733 45.3531 53.352C45.5878 53.32 45.8011 53.288 45.9931 53.256C46.1851 53.2133 46.3185 53.176 46.3931 53.144ZM40.6171 61.992V63H39.5451V62.84C39.5451 62.84 39.5718 62.84 39.6251 62.84C39.6891 62.84 39.7211 62.84 39.7211 62.84C39.9558 62.84 40.1531 62.76 40.3131 62.6C40.4838 62.4293 40.5745 62.2267 40.5851 61.992H40.6171ZM42.8571 61.992H42.9051C42.9051 62.2267 42.9905 62.4293 43.1611 62.6C43.3318 62.76 43.5398 62.84 43.7851 62.84C43.7851 62.84 43.8118 62.84 43.8651 62.84C43.9291 62.84 43.9611 62.84 43.9611 62.84V63H42.8571V61.992ZM38.7451 53.976V54.024C38.2758 54.0347 37.9131 54.1733 37.6571 54.44C37.4118 54.7067 37.2891 55.0693 37.2891 55.528V55.672H37.1131V53.976H38.7451ZM37.1131 53.144C37.2091 53.1653 37.3478 53.1973 37.5291 53.24C37.7211 53.2827 37.9291 53.32 38.1531 53.352C38.3878 53.3733 38.6011 53.384 38.7931 53.384L37.1131 53.544V53.144ZM50.6399 53.4V63H48.3359V53.4H50.6399ZM48.3839 61.992V63H47.2159V62.84C47.2159 62.84 47.2479 62.84 47.3119 62.84C47.3759 62.84 47.4132 62.84 47.4239 62.84C47.6692 62.84 47.8825 62.76 48.0639 62.6C48.2452 62.4293 48.3359 62.2267 48.3359 61.992H48.3839ZM50.6079 61.992H50.6399C50.6505 62.2267 50.7412 62.4293 50.9119 62.6C51.0932 62.76 51.3119 62.84 51.5679 62.84C51.5679 62.84 51.5945 62.84 51.6479 62.84C51.7119 62.84 51.7492 62.84 51.7599 62.84V63H50.6079V61.992ZM50.6079 54.408V53.4H51.7599L51.7439 53.56C51.7439 53.56 51.7172 53.56 51.6639 53.56C51.6105 53.56 51.5785 53.56 51.5679 53.56C51.3119 53.56 51.0932 53.64 50.9119 53.8C50.7412 53.96 50.6505 54.1627 50.6399 54.408H50.6079ZM48.3839 54.408H48.3359C48.3359 54.1627 48.2452 53.96 48.0639 53.8C47.8825 53.64 47.6639 53.56 47.4079 53.56C47.4079 53.56 47.3759 53.56 47.3119 53.56C47.2479 53.56 47.2159 53.56 47.2159 53.56V53.4H48.3839V54.408ZM62.3003 58.984L62.4763 61.4C62.2736 61.7413 61.9909 62.0507 61.6283 62.328C61.2656 62.5947 60.8229 62.808 60.3003 62.968C59.7776 63.128 59.1696 63.208 58.4763 63.208C57.2816 63.1973 56.2523 62.9947 55.3883 62.6C54.5243 62.2053 53.8576 61.64 53.3883 60.904C52.9296 60.1573 52.7003 59.2507 52.7003 58.184C52.7003 57.1387 52.9296 56.248 53.3883 55.512C53.8469 54.7653 54.5083 54.1947 55.3723 53.8C56.2363 53.3947 57.2709 53.192 58.4763 53.192C59.2016 53.192 59.8736 53.2613 60.4923 53.4C61.1216 53.5387 61.6443 53.7147 62.0603 53.928L62.0763 56.472H61.9483C61.6816 55.4907 61.2603 54.8027 60.6843 54.408C60.1083 54.0133 59.4256 53.816 58.6363 53.816C57.8576 53.816 57.2069 53.9973 56.6843 54.36C56.1723 54.7227 55.7829 55.2293 55.5163 55.88C55.2603 56.5307 55.1323 57.2933 55.1323 58.168C55.1323 59.0533 55.2603 59.8213 55.5163 60.472C55.7829 61.1227 56.1669 61.6293 56.6683 61.992C57.1696 62.3547 57.7723 62.5467 58.4763 62.568C59.2336 62.568 59.8576 62.4507 60.3483 62.216C60.8496 61.9813 61.2443 61.6027 61.5323 61.08C61.8309 60.5573 62.0443 59.8587 62.1723 58.984H62.3003ZM67.0461 53.4V63H64.7421V53.4H67.0461ZM64.7901 61.992V63H63.6221V62.84C63.6221 62.84 63.6541 62.84 63.7181 62.84C63.7821 62.84 63.8195 62.84 63.8301 62.84C64.0755 62.84 64.2888 62.76 64.4701 62.6C64.6515 62.4293 64.7421 62.2267 64.7421 61.992H64.7901ZM67.0141 61.992H67.0461C67.0568 62.2267 67.1475 62.4293 67.3181 62.6C67.4995 62.76 67.7181 62.84 67.9741 62.84C67.9741 62.84 68.0008 62.84 68.0541 62.84C68.1181 62.84 68.1555 62.84 68.1661 62.84V63H67.0141V61.992ZM67.0141 54.408V53.4H68.1661L68.1501 53.56C68.1501 53.56 68.1235 53.56 68.0701 53.56C68.0168 53.56 67.9848 53.56 67.9741 53.56C67.7181 53.56 67.4995 53.64 67.3181 53.8C67.1475 53.96 67.0568 54.1627 67.0461 54.408H67.0141ZM64.7901 54.408H64.7421C64.7421 54.1627 64.6515 53.96 64.4701 53.8C64.2888 53.64 64.0701 53.56 63.8141 53.56C63.8141 53.56 63.7821 53.56 63.7181 53.56C63.6541 53.56 63.6221 53.56 63.6221 53.56V53.4H64.7901V54.408ZM72.5111 53.192C72.7245 53.192 72.9805 53.2027 73.2791 53.224C73.5885 53.2453 73.8925 53.272 74.1911 53.304C74.4898 53.3253 74.7511 53.3573 74.9751 53.4C75.2098 53.432 75.3698 53.464 75.4551 53.496L75.2471 55.448H75.1031C75.1031 54.9573 74.9325 54.568 74.5911 54.28C74.2498 53.992 73.7591 53.848 73.1191 53.848C72.6071 53.848 72.1911 53.96 71.8711 54.184C71.5618 54.408 71.3965 54.7067 71.3751 55.08C71.3538 55.272 71.3858 55.448 71.4711 55.608C71.5671 55.7573 71.6951 55.8907 71.8551 56.008C72.0258 56.1253 72.2125 56.2427 72.4151 56.36L74.9271 57.912C75.3538 58.1253 75.6898 58.4347 75.9351 58.84C76.1805 59.2453 76.2871 59.736 76.2551 60.312C76.2231 60.9093 76.0471 61.4267 75.7271 61.864C75.4178 62.3013 74.9858 62.6373 74.4311 62.872C73.8871 63.096 73.2418 63.208 72.4951 63.208C72.0365 63.208 71.6098 63.1707 71.2151 63.096C70.8205 63.0213 70.4791 62.92 70.1911 62.792C69.9138 62.664 69.7005 62.52 69.5511 62.36C69.4658 62.1467 69.4285 61.8907 69.4391 61.592C69.4498 61.2827 69.4978 60.9787 69.5831 60.68C69.6685 60.3707 69.7751 60.1147 69.9031 59.912H70.0311C69.9991 60.392 70.0845 60.8347 70.2871 61.24C70.5005 61.6453 70.8098 61.9707 71.2151 62.216C71.6205 62.4507 72.1058 62.568 72.6711 62.568C73.2898 62.568 73.7538 62.424 74.0631 62.136C74.3725 61.848 74.5271 61.512 74.5271 61.128C74.5271 60.84 74.4311 60.584 74.2391 60.36C74.0578 60.1253 73.7538 59.896 73.3271 59.672L71.0551 58.232C70.5218 57.9547 70.1325 57.5867 69.8871 57.128C69.6525 56.6693 69.5671 56.168 69.6311 55.624C69.6845 55.112 69.8338 54.6747 70.0791 54.312C70.3351 53.9493 70.6711 53.672 71.0871 53.48C71.5031 53.288 71.9778 53.192 72.5111 53.192ZM75.4551 53.336L75.4391 53.624H73.7271V53.336H75.4551ZM82.702 53.448V63H80.382V53.448H82.702ZM86.19 53.384V54.024H76.91V53.384H86.19ZM86.19 53.976V55.672H86.014V55.528C86.0247 55.0693 85.8967 54.7067 85.63 54.44C85.374 54.1733 85.0167 54.0347 84.558 54.024V53.976H86.19ZM86.19 53.144V53.544L84.494 53.384C84.6967 53.384 84.9153 53.3733 85.15 53.352C85.3847 53.32 85.598 53.288 85.79 53.256C85.982 53.2133 86.1153 53.176 86.19 53.144ZM80.414 61.992V63H79.342V62.84C79.342 62.84 79.3687 62.84 79.422 62.84C79.486 62.84 79.518 62.84 79.518 62.84C79.7527 62.84 79.95 62.76 80.11 62.6C80.2807 62.4293 80.3713 62.2267 80.382 61.992H80.414ZM82.654 61.992H82.702C82.702 62.2267 82.7873 62.4293 82.958 62.6C83.1287 62.76 83.3367 62.84 83.582 62.84C83.582 62.84 83.6087 62.84 83.662 62.84C83.726 62.84 83.758 62.84 83.758 62.84V63H82.654V61.992ZM78.542 53.976V54.024C78.0727 54.0347 77.71 54.1733 77.454 54.44C77.2087 54.7067 77.086 55.0693 77.086 55.528V55.672H76.91V53.976H78.542ZM76.91 53.144C77.006 53.1653 77.1447 53.1973 77.326 53.24C77.518 53.2827 77.726 53.32 77.95 53.352C78.1847 53.3733 78.398 53.384 78.59 53.384L76.91 53.544V53.144ZM90.4478 52.968L95.1838 62.92H92.4798L89.5038 55.896L90.4478 52.968ZM87.4398 61.944C87.3224 62.232 87.3384 62.456 87.4878 62.616C87.6371 62.7653 87.8024 62.84 87.9838 62.84H88.1118V63H84.9117V62.84C84.9117 62.84 84.9331 62.84 84.9757 62.84C85.0184 62.84 85.0397 62.84 85.0397 62.84C85.2531 62.84 85.4771 62.776 85.7118 62.648C85.9464 62.5093 86.1384 62.2747 86.2878 61.944H87.4398ZM90.4478 52.968L90.4798 54.888L87.0078 62.952H85.8238L89.5677 54.904C89.5891 54.84 89.6371 54.728 89.7118 54.568C89.7864 54.3973 89.8664 54.2107 89.9518 54.008C90.0371 53.7947 90.1171 53.5973 90.1918 53.416C90.2664 53.224 90.3091 53.0747 90.3198 52.968H90.4478ZM91.8398 59.864V60.488H87.7598V59.864H91.8398ZM92.0798 61.944H94.7198C94.8798 62.2747 95.0771 62.5093 95.3118 62.648C95.5464 62.776 95.7704 62.84 95.9838 62.84C95.9838 62.84 96.0051 62.84 96.0478 62.84C96.0904 62.84 96.1118 62.84 96.1118 62.84V63H91.4078V62.84H91.5358C91.7171 62.84 91.8824 62.7653 92.0318 62.616C92.1811 62.456 92.1971 62.232 92.0798 61.944ZM103.561 53.4V63H101.257V53.4H103.561ZM107.305 62.36L107.673 63H103.529V62.36H107.305ZM106.761 57.928V58.568H103.529V57.928H106.761ZM107.481 53.4V54.04H103.529V53.4H107.481ZM108.329 60.056L107.721 63H104.953L105.449 62.36C105.907 62.36 106.313 62.2693 106.665 62.088C107.027 61.896 107.337 61.6293 107.593 61.288C107.849 60.936 108.046 60.5253 108.185 60.056H108.329ZM106.761 58.536V59.944H106.601V59.816C106.601 59.464 106.489 59.1707 106.265 58.936C106.051 58.7013 105.758 58.5787 105.385 58.568V58.536H106.761ZM106.761 56.552V57.96H105.385V57.928C105.758 57.9173 106.051 57.7947 106.265 57.56C106.489 57.3147 106.601 57.016 106.601 56.664V56.552H106.761ZM107.481 54.008V55.704H107.321V55.56C107.321 55.0907 107.193 54.7227 106.937 54.456C106.691 54.1893 106.334 54.0507 105.865 54.04V54.008H107.481ZM107.481 53.16V53.544L105.801 53.4C106.11 53.4 106.435 53.3733 106.777 53.32C107.118 53.256 107.353 53.2027 107.481 53.16ZM101.289 61.992L101.369 63H100.185V62.84C100.185 62.84 100.217 62.84 100.281 62.84C100.345 62.84 100.382 62.84 100.393 62.84C100.627 62.84 100.825 62.76 100.985 62.6C101.155 62.4293 101.246 62.2267 101.257 61.992H101.289ZM101.289 54.408H101.257C101.246 54.1627 101.155 53.96 100.985 53.8C100.825 53.64 100.627 53.56 100.393 53.56C100.382 53.56 100.345 53.56 100.281 53.56C100.217 53.56 100.185 53.56 100.185 53.56V53.4H101.369L101.289 54.408ZM122.816 58.984L122.992 61.4C122.789 61.7413 122.507 62.0507 122.144 62.328C121.781 62.5947 121.339 62.808 120.816 62.968C120.293 63.128 119.685 63.208 118.992 63.208C117.797 63.1973 116.768 62.9947 115.904 62.6C115.04 62.2053 114.373 61.64 113.904 60.904C113.445 60.1573 113.216 59.2507 113.216 58.184C113.216 57.1387 113.445 56.248 113.904 55.512C114.363 54.7653 115.024 54.1947 115.888 53.8C116.752 53.3947 117.787 53.192 118.992 53.192C119.717 53.192 120.389 53.2613 121.008 53.4C121.637 53.5387 122.16 53.7147 122.576 53.928L122.592 56.472H122.464C122.197 55.4907 121.776 54.8027 121.2 54.408C120.624 54.0133 119.941 53.816 119.152 53.816C118.373 53.816 117.723 53.9973 117.2 54.36C116.688 54.7227 116.299 55.2293 116.032 55.88C115.776 56.5307 115.648 57.2933 115.648 58.168C115.648 59.0533 115.776 59.8213 116.032 60.472C116.299 61.1227 116.683 61.6293 117.184 61.992C117.685 62.3547 118.288 62.5467 118.992 62.568C119.749 62.568 120.373 62.4507 120.864 62.216C121.365 61.9813 121.76 61.6027 122.048 61.08C122.347 60.5573 122.56 59.8587 122.688 58.984H122.816ZM130.052 53.192C130.905 53.192 131.678 53.3093 132.372 53.544C133.065 53.768 133.662 54.0987 134.164 54.536C134.665 54.9733 135.049 55.5013 135.316 56.12C135.593 56.7387 135.732 57.4373 135.732 58.216C135.732 58.984 135.593 59.6773 135.316 60.296C135.049 60.904 134.665 61.4267 134.164 61.864C133.662 62.3013 133.065 62.6373 132.372 62.872C131.678 63.096 130.905 63.208 130.052 63.208C129.209 63.208 128.441 63.096 127.748 62.872C127.054 62.6373 126.457 62.3013 125.956 61.864C125.454 61.4267 125.07 60.904 124.804 60.296C124.537 59.6773 124.404 58.984 124.404 58.216C124.404 57.4373 124.537 56.7387 124.804 56.12C125.07 55.5013 125.454 54.9733 125.956 54.536C126.457 54.0987 127.054 53.768 127.748 53.544C128.441 53.3093 129.209 53.192 130.052 53.192ZM130.052 62.584C130.702 62.584 131.268 62.408 131.748 62.056C132.238 61.6933 132.612 61.1867 132.868 60.536C133.134 59.8853 133.268 59.112 133.268 58.216C133.268 57.3093 133.134 56.5307 132.868 55.88C132.612 55.2187 132.238 54.712 131.748 54.36C131.268 53.9973 130.702 53.816 130.052 53.816C129.412 53.816 128.852 53.9973 128.372 54.36C127.892 54.712 127.518 55.2187 127.252 55.88C126.985 56.5307 126.852 57.3093 126.852 58.216C126.852 59.112 126.985 59.8853 127.252 60.536C127.518 61.1867 127.892 61.6933 128.372 62.056C128.852 62.408 129.412 62.584 130.052 62.584ZM147.468 53.192L147.596 54.84L143.292 61.672C143.292 61.672 143.244 61.7627 143.148 61.944C143.052 62.1147 142.956 62.3227 142.86 62.568C142.774 62.8133 142.726 63.0587 142.716 63.304H142.572L141.948 61.992L147.468 53.192ZM137.628 61.976V63H136.059V62.84C136.059 62.84 136.097 62.84 136.171 62.84C136.236 62.84 136.268 62.84 136.268 62.84C136.534 62.84 136.764 62.7653 136.956 62.616C137.158 62.4667 137.281 62.2533 137.324 61.976H137.628ZM138.316 62.2C138.305 62.3173 138.342 62.456 138.428 62.616C138.513 62.7653 138.662 62.84 138.876 62.84H139.1V63H138.14L138.236 62.2H138.316ZM138.572 53.192H138.7L139.244 54.728L138.236 63H137.196L138.572 53.192ZM138.7 53.192L143.436 60.28L142.572 63.304L138.316 56.856L138.7 53.192ZM147.612 53.192L149.02 63H146.572L145.788 57.16L147.468 53.192H147.612ZM148.572 61.976H148.876C148.929 62.2533 149.052 62.4667 149.244 62.616C149.446 62.7653 149.67 62.84 149.916 62.84C149.916 62.84 149.953 62.84 150.028 62.84C150.102 62.84 150.14 62.84 150.14 62.84V63H148.572V61.976ZM146.46 62.2H146.556L146.652 63H145.692V62.84H145.916C146.15 62.84 146.305 62.7653 146.38 62.616C146.454 62.456 146.481 62.3173 146.46 62.2ZM153.92 53.4V63H151.616V53.4H153.92ZM157.664 62.36L158.032 63H153.888V62.36H157.664ZM157.12 57.928V58.568H153.888V57.928H157.12ZM157.84 53.4V54.04H153.888V53.4H157.84ZM158.688 60.056L158.08 63H155.312L155.808 62.36C156.267 62.36 156.672 62.2693 157.024 62.088C157.387 61.896 157.696 61.6293 157.952 61.288C158.208 60.936 158.405 60.5253 158.544 60.056H158.688ZM157.12 58.536V59.944H156.96V59.816C156.96 59.464 156.848 59.1707 156.624 58.936C156.411 58.7013 156.117 58.5787 155.744 58.568V58.536H157.12ZM157.12 56.552V57.96H155.744V57.928C156.117 57.9173 156.411 57.7947 156.624 57.56C156.848 57.3147 156.96 57.016 156.96 56.664V56.552H157.12ZM157.84 54.008V55.704H157.68V55.56C157.68 55.0907 157.552 54.7227 157.296 54.456C157.051 54.1893 156.693 54.0507 156.224 54.04V54.008H157.84ZM157.84 53.16V53.544L156.16 53.4C156.469 53.4 156.795 53.3733 157.136 53.32C157.477 53.256 157.712 53.2027 157.84 53.16ZM151.648 61.992L151.728 63H150.544V62.84C150.544 62.84 150.576 62.84 150.64 62.84C150.704 62.84 150.741 62.84 150.752 62.84C150.987 62.84 151.184 62.76 151.344 62.6C151.515 62.4293 151.605 62.2267 151.616 61.992H151.648ZM151.648 54.408H151.616C151.605 54.1627 151.515 53.96 151.344 53.8C151.184 53.64 150.987 53.56 150.752 53.56C150.741 53.56 150.704 53.56 150.64 53.56C150.576 53.56 150.544 53.56 150.544 53.56V53.4H151.728L151.648 54.408ZM165.03 53.448V63H162.71V53.448H165.03ZM168.518 53.384V54.024H159.238V53.384H168.518ZM168.518 53.976V55.672H168.342V55.528C168.353 55.0693 168.225 54.7067 167.958 54.44C167.702 54.1733 167.345 54.0347 166.886 54.024V53.976H168.518ZM168.518 53.144V53.544L166.822 53.384C167.025 53.384 167.243 53.3733 167.478 53.352C167.713 53.32 167.926 53.288 168.118 53.256C168.31 53.2133 168.443 53.176 168.518 53.144ZM162.742 61.992V63H161.67V62.84C161.67 62.84 161.697 62.84 161.75 62.84C161.814 62.84 161.846 62.84 161.846 62.84C162.081 62.84 162.278 62.76 162.438 62.6C162.609 62.4293 162.699 62.2267 162.71 61.992H162.742ZM164.982 61.992H165.03C165.03 62.2267 165.115 62.4293 165.286 62.6C165.457 62.76 165.665 62.84 165.91 62.84C165.91 62.84 165.937 62.84 165.99 62.84C166.054 62.84 166.086 62.84 166.086 62.84V63H164.982V61.992ZM160.87 53.976V54.024C160.401 54.0347 160.038 54.1733 159.782 54.44C159.537 54.7067 159.414 55.0693 159.414 55.528V55.672H159.238V53.976H160.87ZM159.238 53.144C159.334 53.1653 159.473 53.1973 159.654 53.24C159.846 53.2827 160.054 53.32 160.278 53.352C160.513 53.3733 160.726 53.384 160.918 53.384L159.238 53.544V53.144ZM174.724 53.192C175.577 53.192 176.35 53.3093 177.044 53.544C177.737 53.768 178.334 54.0987 178.836 54.536C179.337 54.9733 179.721 55.5013 179.988 56.12C180.265 56.7387 180.404 57.4373 180.404 58.216C180.404 58.984 180.265 59.6773 179.988 60.296C179.721 60.904 179.337 61.4267 178.836 61.864C178.334 62.3013 177.737 62.6373 177.044 62.872C176.35 63.096 175.577 63.208 174.724 63.208C173.881 63.208 173.113 63.096 172.42 62.872C171.726 62.6373 171.129 62.3013 170.628 61.864C170.126 61.4267 169.742 60.904 169.476 60.296C169.209 59.6773 169.076 58.984 169.076 58.216C169.076 57.4373 169.209 56.7387 169.476 56.12C169.742 55.5013 170.126 54.9733 170.628 54.536C171.129 54.0987 171.726 53.768 172.42 53.544C173.113 53.3093 173.881 53.192 174.724 53.192ZM174.724 62.584C175.374 62.584 175.94 62.408 176.42 62.056C176.91 61.6933 177.284 61.1867 177.54 60.536C177.806 59.8853 177.94 59.112 177.94 58.216C177.94 57.3093 177.806 56.5307 177.54 55.88C177.284 55.2187 176.91 54.712 176.42 54.36C175.94 53.9973 175.374 53.816 174.724 53.816C174.084 53.816 173.524 53.9973 173.044 54.36C172.564 54.712 172.19 55.2187 171.924 55.88C171.657 56.5307 171.524 57.3093 171.524 58.216C171.524 59.112 171.657 59.8853 171.924 60.536C172.19 61.1867 172.564 61.6933 173.044 62.056C173.524 62.408 174.084 62.584 174.724 62.584ZM174.468 52.28C174.649 51.9707 174.873 51.6507 175.14 51.32C175.406 50.9893 175.684 50.68 175.972 50.392C176.27 50.104 176.532 49.8533 176.756 49.64C177.044 49.8 177.273 49.9867 177.444 50.2C177.614 50.4133 177.753 50.664 177.86 50.952C177.54 51.1547 177.188 51.352 176.804 51.544C176.43 51.7253 176.052 51.8907 175.668 52.04C175.294 52.1893 174.932 52.3067 174.58 52.392L174.468 52.28ZM184.686 53.4V63H182.382V53.4H184.686ZM188.414 62.36L188.798 63H184.654V62.36H188.414ZM189.47 60.056L188.846 63H186.078L186.574 62.36C187.032 62.36 187.438 62.2693 187.79 62.088C188.152 61.896 188.462 61.6293 188.718 61.288C188.974 60.936 189.171 60.5253 189.31 60.056H189.47ZM182.414 61.992L182.494 63H181.31V62.84C181.31 62.84 181.342 62.84 181.406 62.84C181.47 62.84 181.507 62.84 181.518 62.84C181.752 62.84 181.95 62.76 182.11 62.6C182.28 62.4293 182.371 62.2267 182.382 61.992H182.414ZM184.654 54.408V53.4H185.758V53.56C185.747 53.56 185.71 53.56 185.646 53.56C185.592 53.56 185.566 53.56 185.566 53.56C185.331 53.56 185.128 53.64 184.958 53.8C184.787 53.96 184.696 54.1627 184.686 54.408H184.654ZM182.414 54.408H182.382C182.371 54.1627 182.28 53.96 182.11 53.8C181.939 53.64 181.736 53.56 181.502 53.56C181.491 53.56 181.454 53.56 181.39 53.56C181.336 53.56 181.31 53.56 181.31 53.56V53.4H182.414V54.408ZM195.927 53.192C196.78 53.192 197.553 53.3093 198.247 53.544C198.94 53.768 199.537 54.0987 200.039 54.536C200.54 54.9733 200.924 55.5013 201.191 56.12C201.468 56.7387 201.607 57.4373 201.607 58.216C201.607 58.984 201.468 59.6773 201.191 60.296C200.924 60.904 200.54 61.4267 200.039 61.864C199.537 62.3013 198.94 62.6373 198.247 62.872C197.553 63.096 196.78 63.208 195.927 63.208C195.084 63.208 194.316 63.096 193.623 62.872C192.929 62.6373 192.332 62.3013 191.831 61.864C191.329 61.4267 190.945 60.904 190.679 60.296C190.412 59.6773 190.279 58.984 190.279 58.216C190.279 57.4373 190.412 56.7387 190.679 56.12C190.945 55.5013 191.329 54.9733 191.831 54.536C192.332 54.0987 192.929 53.768 193.623 53.544C194.316 53.3093 195.084 53.192 195.927 53.192ZM195.927 62.584C196.577 62.584 197.143 62.408 197.623 62.056C198.113 61.6933 198.487 61.1867 198.743 60.536C199.009 59.8853 199.143 59.112 199.143 58.216C199.143 57.3093 199.009 56.5307 198.743 55.88C198.487 55.2187 198.113 54.712 197.623 54.36C197.143 53.9973 196.577 53.816 195.927 53.816C195.287 53.816 194.727 53.9973 194.247 54.36C193.767 54.712 193.393 55.2187 193.127 55.88C192.86 56.5307 192.727 57.3093 192.727 58.216C192.727 59.112 192.86 59.8853 193.127 60.536C193.393 61.1867 193.767 61.6933 194.247 62.056C194.727 62.408 195.287 62.584 195.927 62.584ZM208.264 53.192C208.754 53.192 209.245 53.224 209.736 53.288C210.237 53.3413 210.701 53.4267 211.128 53.544C211.565 53.6507 211.933 53.7787 212.232 53.928V56.472H212.104C211.933 55.7893 211.677 55.256 211.336 54.872C211.005 54.488 210.621 54.216 210.184 54.056C209.746 53.896 209.272 53.816 208.76 53.816C208.013 53.816 207.384 53.992 206.872 54.344C206.36 54.696 205.97 55.208 205.704 55.88C205.448 56.5413 205.32 57.3413 205.32 58.28C205.32 59.1653 205.437 59.928 205.672 60.568C205.906 61.208 206.253 61.704 206.712 62.056C207.17 62.408 207.725 62.584 208.376 62.584C208.717 62.584 209.042 62.5307 209.352 62.424C209.661 62.3067 209.933 62.1413 210.168 61.928C210.402 61.704 210.568 61.432 210.664 61.112L210.68 59.192C210.68 58.9787 210.616 58.8187 210.488 58.712C210.37 58.6053 210.2 58.552 209.976 58.552H209.752V58.408H213.864V58.552H213.656C213.186 58.552 212.957 58.7653 212.968 59.192V61.32C212.744 61.6187 212.397 61.912 211.928 62.2C211.458 62.488 210.904 62.728 210.264 62.92C209.624 63.112 208.925 63.208 208.168 63.208C207.101 63.1973 206.173 62.9947 205.384 62.6C204.594 62.1947 203.981 61.6187 203.544 60.872C203.106 60.1253 202.888 59.2293 202.888 58.184C202.888 57.1387 203.106 56.248 203.544 55.512C203.981 54.7653 204.6 54.1947 205.4 53.8C206.2 53.3947 207.154 53.192 208.264 53.192ZM219.135 52.968L223.871 62.92H221.167L218.191 55.896L219.135 52.968ZM216.127 61.944C216.01 62.232 216.026 62.456 216.175 62.616C216.325 62.7653 216.49 62.84 216.671 62.84H216.799V63H213.599V62.84C213.599 62.84 213.621 62.84 213.663 62.84C213.706 62.84 213.727 62.84 213.727 62.84C213.941 62.84 214.165 62.776 214.399 62.648C214.634 62.5093 214.826 62.2747 214.975 61.944H216.127ZM219.135 52.968L219.167 54.888L215.695 62.952H214.511L218.255 54.904C218.277 54.84 218.325 54.728 218.399 54.568C218.474 54.3973 218.554 54.2107 218.639 54.008C218.725 53.7947 218.805 53.5973 218.879 53.416C218.954 53.224 218.997 53.0747 219.007 52.968H219.135ZM220.527 59.864V60.488H216.447V59.864H220.527ZM220.767 61.944H223.407C223.567 62.2747 223.765 62.5093 223.999 62.648C224.234 62.776 224.458 62.84 224.671 62.84C224.671 62.84 224.693 62.84 224.735 62.84C224.778 62.84 224.799 62.84 224.799 62.84V63H220.095V62.84H220.223C220.405 62.84 220.57 62.7653 220.719 62.616C220.869 62.456 220.885 62.232 220.767 61.944Z" fill="#818181"/>
<defs>
<linearGradient id="paint0_linear_44_87" x1="153.5" y1="53" x2="153.5" y2="5" gradientUnits="userSpaceOnUse">
<stop stop-color="#CC8F00"/>
<stop offset="1" stop-color="#FFB400"/>
</linearGradient>
</defs>
</svg>
