<svg width="18" height="18" viewBox="0 0 18 18" fill="none" xmlns="http://www.w3.org/2000/svg">
<path d="M9.00879 1.5C4.87929 1.5 1.51761 4.85878 1.51611 8.98828C1.51536 10.3083 1.8611 11.5969 2.5166 12.7324L1.5 16.5L5.42432 15.5728C6.51857 16.1698 7.75039 16.4831 9.00439 16.4839H9.00732C13.1361 16.4839 16.4963 13.1244 16.4985 8.99561C16.5 6.99386 15.7216 5.1118 14.3071 3.6958C12.8926 2.28055 11.0128 1.50075 9.00879 1.5ZM9.00732 3C10.6093 3.00075 12.1148 3.62535 13.2466 4.75635C14.3783 5.88885 15 7.39364 14.9985 8.99414C14.997 12.2971 12.3104 14.9839 9.00586 14.9839C8.00611 14.9831 7.0158 14.7321 6.14355 14.2559L5.63818 13.9805L5.08008 14.1123L3.60352 14.4609L3.96387 13.1221L4.12646 12.5215L3.81592 11.9824C3.29242 11.0764 3.01536 10.0405 3.01611 8.98828C3.01761 5.68678 5.70507 3 9.00732 3ZM6.35742 5.53125C6.23217 5.53125 6.02966 5.57813 5.85791 5.76563C5.68616 5.95238 5.20166 6.40468 5.20166 7.32568C5.20166 8.24668 5.87256 9.13696 5.96631 9.26221C6.05931 9.38671 7.26131 11.3364 9.16406 12.0864C10.7451 12.7097 11.0662 12.5867 11.4097 12.5552C11.7532 12.5244 12.5178 12.1033 12.6738 11.666C12.8298 11.2288 12.8302 10.8526 12.7837 10.7754C12.7372 10.6974 12.6123 10.6509 12.4248 10.5571C12.2381 10.4634 11.3177 10.0115 11.146 9.94922C10.9742 9.88697 10.8486 9.85547 10.7241 10.043C10.5996 10.2305 10.2418 10.6509 10.1323 10.7754C10.0228 10.9006 9.91406 10.9175 9.72656 10.8237C9.53906 10.7292 8.9362 10.5311 8.2207 9.89356C7.6642 9.39781 7.2887 8.78613 7.1792 8.59863C7.07045 8.41188 7.16895 8.30931 7.2627 8.21631C7.3467 8.13231 7.44873 7.99768 7.54248 7.88818C7.63548 7.77868 7.66773 7.70067 7.72998 7.57617C7.79223 7.45167 7.76037 7.3418 7.71387 7.24805C7.66737 7.1543 7.30322 6.22988 7.13672 5.85938C6.99647 5.54813 6.84834 5.54089 6.71484 5.53565C6.60609 5.53115 6.48192 5.53125 6.35742 5.53125Z" fill="white"/>
</svg>
